<?xml version="1.0" encoding="utf-8" standalone="no"?>
<!DOCTYPE svg PUBLIC "-//W3C//DTD SVG 1.1//EN"
  "http://www.w3.org/Graphics/SVG/1.1/DTD/svg11.dtd">
<svg xmlns:xlink="http://www.w3.org/1999/xlink" width="288pt" height="288pt" viewBox="0 0 288 288" xmlns="http://www.w3.org/2000/svg" version="1.1">
 <metadata>
  <rdf:RDF xmlns:dc="http://purl.org/dc/elements/1.1/" xmlns:cc="http://creativecommons.org/ns#" xmlns:rdf="http://www.w3.org/1999/02/22-rdf-syntax-ns#">
   <cc:Work>
    <dc:type rdf:resource="http://purl.org/dc/dcmitype/StillImage"/>
    <dc:date>2024-02-13T04:36:44.572206</dc:date>
    <dc:format>image/svg+xml</dc:format>
    <dc:creator>
     <cc:Agent>
      <dc:title>Matplotlib v3.7.1, https://matplotlib.org/</dc:title>
     </cc:Agent>
    </dc:creator>
   </cc:Work>
  </rdf:RDF>
 </metadata>
 <defs>
  <style type="text/css">*{stroke-linejoin: round; stroke-linecap: butt}</style>
 </defs>
 <g id="figure_1">
  <g id="patch_1">
   <path d="M 0 288 
L 288 288 
L 288 0 
L 0 0 
z
" style="fill: #ffffff"/>
  </g>
  <g id="axes_1">
   <g id="patch_2">
    <path d="M 46.73 235.145625 
L 277.2 235.145625 
L 277.2 33.484375 
L 46.73 33.484375 
z
" style="fill: #ffffff"/>
   </g>
   <g id="PathCollection_1">
    <defs>
     <path id="mf1116ffac3" d="M 0 3 
C 0.795609 3 1.55874 2.683901 2.12132 2.12132 
C 2.683901 1.55874 3 0.795609 3 0 
C 3 -0.795609 2.683901 -1.55874 2.12132 -2.12132 
C 1.55874 -2.683901 0.795609 -3 0 -3 
C -0.795609 -3 -1.55874 -2.683901 -2.12132 -2.12132 
C -2.683901 -1.55874 -3 -0.795609 -3 0 
C -3 0.795609 -2.683901 1.55874 -2.12132 2.12132 
C -1.55874 2.683901 -0.795609 3 0 3 
z
" style="stroke: #000000"/>
    </defs>
    <g clip-path="url(#p473918c2ce)">
     <use xlink:href="#mf1116ffac3" x="143.967831" y="190.102904" style="stroke: #000000"/>
     <use xlink:href="#mf1116ffac3" x="180.729682" y="170.178653" style="stroke: #000000"/>
     <use xlink:href="#mf1116ffac3" x="223.664837" y="156.427705" style="stroke: #000000"/>
     <use xlink:href="#mf1116ffac3" x="120.058729" y="157.325903" style="stroke: #000000"/>
     <use xlink:href="#mf1116ffac3" x="156.82058" y="134.315" style="stroke: #000000"/>
     <use xlink:href="#mf1116ffac3" x="199.755735" y="117.4774" style="stroke: #000000"/>
     <use xlink:href="#mf1116ffac3" x="96.149627" y="124.548902" style="stroke: #000000"/>
     <use xlink:href="#mf1116ffac3" x="132.911478" y="98.451347" style="stroke: #000000"/>
     <use xlink:href="#mf1116ffac3" x="175.846633" y="78.527096" style="stroke: #000000"/>
    </g>
   </g>
   <g id="matplotlib.axis_1">
    <g id="xtick_1">
     <g id="line2d_1">
      <defs>
       <path id="m6de7e8848c" d="M 0 0 
L 0 3.5 
" style="stroke: #000000; stroke-width: 0.8"/>
      </defs>
      <g>
       <use xlink:href="#m6de7e8848c" x="59.076607" y="235.145625" style="stroke: #000000; stroke-width: 0.8"/>
      </g>
     </g>
     <g id="text_1">
      <!-- −0.4 -->
      <g transform="translate(49.156295 249.745625) scale(0.1 -0.1)">
       <defs>
        <path id="NotoSansMath-Regular-2212" d="M 326 2029 
L 326 2483 
L 3334 2483 
L 3334 2029 
L 326 2029 
z
" transform="scale(0.015625)"/>
        <path id="NotoSansMath-Regular-30" d="M 1824 -64 
Q 1050 -64 682 560 
Q 314 1184 314 2291 
Q 314 3034 464 3558 
Q 614 4083 947 4361 
Q 1280 4640 1824 4640 
Q 2592 4640 2969 4022 
Q 3347 3405 3347 2291 
Q 3347 1555 3193 1027 
Q 3040 499 2707 217 
Q 2374 -64 1824 -64 
z
M 1824 416 
Q 2336 416 2557 880 
Q 2778 1344 2778 2291 
Q 2778 3226 2557 3693 
Q 2336 4160 1824 4160 
Q 1306 4160 1091 3693 
Q 877 3226 877 2291 
Q 877 1350 1091 883 
Q 1306 416 1824 416 
z
" transform="scale(0.015625)"/>
        <path id="NotoSansMath-Regular-2e" d="M 851 -90 
Q 691 -90 576 12 
Q 461 115 461 346 
Q 461 582 576 678 
Q 691 774 851 774 
Q 1018 774 1136 678 
Q 1254 582 1254 346 
Q 1254 115 1136 12 
Q 1018 -90 851 -90 
z
" transform="scale(0.015625)"/>
        <path id="NotoSansMath-Regular-34" d="M 2323 0 
L 2323 1037 
L 134 1037 
L 134 1517 
L 2285 4595 
L 2867 4595 
L 2867 1542 
L 3533 1542 
L 3533 1037 
L 2867 1037 
L 2867 0 
L 2323 0 
z
M 685 1542 
L 2323 1542 
L 2323 2982 
Q 2323 3315 2332 3548 
Q 2342 3782 2355 3994 
L 2330 3994 
Q 2278 3872 2201 3731 
Q 2125 3590 2054 3494 
L 685 1542 
z
" transform="scale(0.015625)"/>
       </defs>
       <use xlink:href="#NotoSansMath-Regular-2212"/>
       <use xlink:href="#NotoSansMath-Regular-30" x="57.199997"/>
       <use xlink:href="#NotoSansMath-Regular-2e" x="114.399994"/>
       <use xlink:href="#NotoSansMath-Regular-34" x="141.199982"/>
      </g>
     </g>
    </g>
    <g id="xtick_2">
     <g id="line2d_2">
      <g>
       <use xlink:href="#m6de7e8848c" x="100.231964" y="235.145625" style="stroke: #000000; stroke-width: 0.8"/>
      </g>
     </g>
     <g id="text_2">
      <!-- −0.2 -->
      <g transform="translate(90.311652 249.745625) scale(0.1 -0.1)">
       <defs>
        <path id="NotoSansMath-Regular-32" d="M 307 0 
L 307 467 
L 1504 1677 
Q 1850 2022 2086 2291 
Q 2323 2560 2444 2819 
Q 2566 3078 2566 3386 
Q 2566 3763 2342 3958 
Q 2118 4154 1760 4154 
Q 1427 4154 1174 4038 
Q 922 3923 659 3718 
L 358 4096 
Q 627 4320 976 4477 
Q 1325 4634 1760 4634 
Q 2400 4634 2771 4310 
Q 3142 3987 3142 3418 
Q 3142 3059 2995 2748 
Q 2848 2438 2585 2131 
Q 2323 1824 1971 1478 
L 1018 538 
L 1018 512 
L 3328 512 
L 3328 0 
L 307 0 
z
" transform="scale(0.015625)"/>
       </defs>
       <use xlink:href="#NotoSansMath-Regular-2212"/>
       <use xlink:href="#NotoSansMath-Regular-30" x="57.199997"/>
       <use xlink:href="#NotoSansMath-Regular-2e" x="114.399994"/>
       <use xlink:href="#NotoSansMath-Regular-32" x="141.199982"/>
      </g>
     </g>
    </g>
    <g id="xtick_3">
     <g id="line2d_3">
      <g>
       <use xlink:href="#m6de7e8848c" x="141.387321" y="235.145625" style="stroke: #000000; stroke-width: 0.8"/>
      </g>
     </g>
     <g id="text_3">
      <!-- 0.0 -->
      <g transform="translate(134.327165 249.745625) scale(0.1 -0.1)">
       <use xlink:href="#NotoSansMath-Regular-30"/>
       <use xlink:href="#NotoSansMath-Regular-2e" x="57.199997"/>
       <use xlink:href="#NotoSansMath-Regular-30" x="83.999985"/>
      </g>
     </g>
    </g>
    <g id="xtick_4">
     <g id="line2d_4">
      <g>
       <use xlink:href="#m6de7e8848c" x="182.542679" y="235.145625" style="stroke: #000000; stroke-width: 0.8"/>
      </g>
     </g>
     <g id="text_4">
      <!-- 0.2 -->
      <g transform="translate(175.482522 249.745625) scale(0.1 -0.1)">
       <use xlink:href="#NotoSansMath-Regular-30"/>
       <use xlink:href="#NotoSansMath-Regular-2e" x="57.199997"/>
       <use xlink:href="#NotoSansMath-Regular-32" x="83.999985"/>
      </g>
     </g>
    </g>
    <g id="xtick_5">
     <g id="line2d_5">
      <g>
       <use xlink:href="#m6de7e8848c" x="223.698036" y="235.145625" style="stroke: #000000; stroke-width: 0.8"/>
      </g>
     </g>
     <g id="text_5">
      <!-- 0.4 -->
      <g transform="translate(216.637879 249.745625) scale(0.1 -0.1)">
       <use xlink:href="#NotoSansMath-Regular-30"/>
       <use xlink:href="#NotoSansMath-Regular-2e" x="57.199997"/>
       <use xlink:href="#NotoSansMath-Regular-34" x="83.999985"/>
      </g>
     </g>
    </g>
    <g id="xtick_6">
     <g id="line2d_6">
      <g>
       <use xlink:href="#m6de7e8848c" x="264.853393" y="235.145625" style="stroke: #000000; stroke-width: 0.8"/>
      </g>
     </g>
     <g id="text_6">
      <!-- 0.6 -->
      <g transform="translate(257.793237 249.745625) scale(0.1 -0.1)">
       <defs>
        <path id="NotoSansMath-Regular-36" d="M 1907 -64 
Q 1472 -64 1120 153 
Q 768 371 560 819 
Q 352 1267 352 1952 
Q 352 2445 438 2921 
Q 525 3398 752 3785 
Q 979 4173 1388 4403 
Q 1798 4634 2445 4634 
Q 2579 4634 2742 4621 
Q 2906 4608 3008 4576 
L 3008 4096 
Q 2893 4134 2749 4153 
Q 2605 4173 2458 4173 
Q 2016 4173 1721 4025 
Q 1427 3878 1257 3622 
Q 1088 3366 1011 3033 
Q 934 2701 915 2323 
L 954 2323 
Q 1101 2547 1363 2704 
Q 1626 2861 2035 2861 
Q 2630 2861 2995 2499 
Q 3360 2138 3360 1472 
Q 3360 755 2966 345 
Q 2573 -64 1907 -64 
z
M 1901 410 
Q 2304 410 2553 669 
Q 2803 928 2803 1472 
Q 2803 1907 2582 2163 
Q 2362 2419 1920 2419 
Q 1619 2419 1395 2294 
Q 1171 2170 1046 1978 
Q 922 1786 922 1581 
Q 922 1306 1030 1034 
Q 1139 762 1356 586 
Q 1574 410 1901 410 
z
" transform="scale(0.015625)"/>
       </defs>
       <use xlink:href="#NotoSansMath-Regular-30"/>
       <use xlink:href="#NotoSansMath-Regular-2e" x="57.199997"/>
       <use xlink:href="#NotoSansMath-Regular-36" x="83.999985"/>
      </g>
     </g>
    </g>
    <g id="text_7">
     <!-- $x_0$ -->
     <g transform="translate(157.365 263.745625) scale(0.1 -0.1)">
      <defs>
       <path id="NotoSans-Italic-78" d="M -237 0 
L 1248 1766 
L 506 3430 
L 1075 3430 
L 1606 2163 
L 2611 3430 
L 3264 3430 
L 1837 1741 
L 2624 0 
L 2054 0 
L 1472 1331 
L 416 0 
L -237 0 
z
" transform="scale(0.015625)"/>
      </defs>
      <use xlink:href="#NotoSans-Italic-78" transform="translate(0 0.40625)"/>
      <use xlink:href="#NotoSansMath-Regular-30" transform="translate(48.299988 -15.671875) scale(0.7)"/>
     </g>
    </g>
   </g>
   <g id="matplotlib.axis_2">
    <g id="ytick_1">
     <g id="line2d_7">
      <defs>
       <path id="m4a2aef4f2b" d="M 0 0 
L -3.5 0 
" style="stroke: #000000; stroke-width: 0.8"/>
      </defs>
      <g>
       <use xlink:href="#m4a2aef4f2b" x="46.73" y="206.336875" style="stroke: #000000; stroke-width: 0.8"/>
      </g>
     </g>
     <g id="text_8">
      <!-- 0.0 -->
      <g transform="translate(25.609687 210.136875) scale(0.1 -0.1)">
       <use xlink:href="#NotoSansMath-Regular-30"/>
       <use xlink:href="#NotoSansMath-Regular-2e" x="57.199997"/>
       <use xlink:href="#NotoSansMath-Regular-30" x="83.999985"/>
      </g>
     </g>
    </g>
    <g id="ytick_2">
     <g id="line2d_8">
      <g>
       <use xlink:href="#m4a2aef4f2b" x="46.73" y="165.181518" style="stroke: #000000; stroke-width: 0.8"/>
      </g>
     </g>
     <g id="text_9">
      <!-- 0.2 -->
      <g transform="translate(25.609687 168.981518) scale(0.1 -0.1)">
       <use xlink:href="#NotoSansMath-Regular-30"/>
       <use xlink:href="#NotoSansMath-Regular-2e" x="57.199997"/>
       <use xlink:href="#NotoSansMath-Regular-32" x="83.999985"/>
      </g>
     </g>
    </g>
    <g id="ytick_3">
     <g id="line2d_9">
      <g>
       <use xlink:href="#m4a2aef4f2b" x="46.73" y="124.026161" style="stroke: #000000; stroke-width: 0.8"/>
      </g>
     </g>
     <g id="text_10">
      <!-- 0.4 -->
      <g transform="translate(25.609687 127.826161) scale(0.1 -0.1)">
       <use xlink:href="#NotoSansMath-Regular-30"/>
       <use xlink:href="#NotoSansMath-Regular-2e" x="57.199997"/>
       <use xlink:href="#NotoSansMath-Regular-34" x="83.999985"/>
      </g>
     </g>
    </g>
    <g id="ytick_4">
     <g id="line2d_10">
      <g>
       <use xlink:href="#m4a2aef4f2b" x="46.73" y="82.870804" style="stroke: #000000; stroke-width: 0.8"/>
      </g>
     </g>
     <g id="text_11">
      <!-- 0.6 -->
      <g transform="translate(25.609687 86.670804) scale(0.1 -0.1)">
       <use xlink:href="#NotoSansMath-Regular-30"/>
       <use xlink:href="#NotoSansMath-Regular-2e" x="57.199997"/>
       <use xlink:href="#NotoSansMath-Regular-36" x="83.999985"/>
      </g>
     </g>
    </g>
    <g id="ytick_5">
     <g id="line2d_11">
      <g>
       <use xlink:href="#m4a2aef4f2b" x="46.73" y="41.715446" style="stroke: #000000; stroke-width: 0.8"/>
      </g>
     </g>
     <g id="text_12">
      <!-- 0.8 -->
      <g transform="translate(25.609687 45.515446) scale(0.1 -0.1)">
       <defs>
        <path id="NotoSansMath-Regular-38" d="M 1843 -64 
Q 1107 -64 710 259 
Q 314 582 314 1165 
Q 314 1478 445 1708 
Q 576 1939 793 2105 
Q 1011 2272 1261 2387 
Q 928 2579 694 2851 
Q 461 3123 461 3546 
Q 461 3898 640 4138 
Q 819 4378 1126 4506 
Q 1434 4634 1824 4634 
Q 2426 4634 2810 4352 
Q 3194 4070 3194 3539 
Q 3194 3264 3075 3059 
Q 2957 2854 2758 2697 
Q 2560 2541 2323 2419 
Q 2605 2285 2835 2115 
Q 3066 1946 3203 1722 
Q 3341 1498 3341 1184 
Q 3341 608 2934 272 
Q 2528 -64 1843 -64 
z
M 1850 2637 
Q 2182 2778 2409 2976 
Q 2637 3174 2637 3520 
Q 2637 3840 2413 4009 
Q 2189 4179 1818 4179 
Q 1466 4179 1238 4009 
Q 1011 3840 1011 3520 
Q 1011 3283 1123 3123 
Q 1235 2963 1427 2851 
Q 1619 2739 1850 2637 
z
M 1830 384 
Q 2298 384 2544 605 
Q 2790 826 2790 1178 
Q 2790 1510 2528 1731 
Q 2266 1952 1830 2118 
L 1728 2157 
Q 1306 1978 1085 1744 
Q 864 1510 864 1158 
Q 864 826 1101 605 
Q 1338 384 1830 384 
z
" transform="scale(0.015625)"/>
       </defs>
       <use xlink:href="#NotoSansMath-Regular-30"/>
       <use xlink:href="#NotoSansMath-Regular-2e" x="57.199997"/>
       <use xlink:href="#NotoSansMath-Regular-38" x="83.999985"/>
      </g>
     </g>
    </g>
    <g id="text_13">
     <!-- $x_1$ -->
     <g transform="translate(19.209687 138.915) rotate(-90) scale(0.1 -0.1)">
      <defs>
       <path id="NotoSansMath-Regular-31" d="M 1722 0 
L 1722 3194 
Q 1722 3469 1728 3635 
Q 1734 3802 1747 3981 
Q 1645 3885 1561 3811 
Q 1478 3738 1350 3629 
L 864 3232 
L 570 3610 
L 1805 4570 
L 2272 4570 
L 2272 0 
L 1722 0 
z
" transform="scale(0.015625)"/>
      </defs>
      <use xlink:href="#NotoSans-Italic-78" transform="translate(0 0.40625)"/>
      <use xlink:href="#NotoSansMath-Regular-31" transform="translate(48.299988 -15.671875) scale(0.7)"/>
     </g>
    </g>
   </g>
   <g id="line2d_12">
    <path d="M 141.387321 206.336875 
L 142.220842 205.715409 
L 143.058562 205.098141 
L 143.900481 204.485073 
L 144.7466 203.876204 
L 145.596917 203.271534 
L 146.451433 202.671063 
L 147.310149 202.074791 
L 148.173063 201.482718 
L 149.040177 200.894844 
L 149.91149 200.31117 
L 150.787002 199.731694 
L 151.666713 199.156418 
L 152.550623 198.585341 
L 153.438732 198.018462 
L 154.33104 197.455783 
L 155.227548 196.897303 
L 156.128254 196.343022 
L 157.03316 195.792941 
L 157.942264 195.247058 
L 158.855568 194.705374 
L 159.773071 194.16789 
L 160.694773 193.634604 
L 161.620674 193.105518 
L 162.550774 192.580631 
L 163.485073 192.059943 
L 164.423572 191.543454 
L 165.366269 191.031164 
L 166.313166 190.523073 
L 167.264261 190.019181 
L 168.219556 189.519488 
L 169.17905 189.023995 
L 170.142743 188.5327 
L 171.110635 188.045605 
L 172.082726 187.562709 
L 173.059016 187.084012 
L 174.039506 186.609514 
L 175.024194 186.139215 
L 176.013082 185.673115 
L 177.006168 185.211214 
L 178.003454 184.753513 
L 179.004939 184.30001 
L 180.010623 183.850706 
L 181.020506 183.405602 
L 182.034588 182.964697 
L 183.052869 182.527991 
L 184.075349 182.095484 
L 185.102029 181.667176 
L 186.132907 181.243067 
L 187.167985 180.823157 
L 188.207261 180.407446 
L 189.250737 179.995935 
L 190.298412 179.588622 
L 191.350286 179.185509 
L 192.406359 178.786595 
L 193.466631 178.391879 
L 194.531103 178.001363 
L 195.599773 177.615046 
L 196.672643 177.232928 
L 197.749711 176.85501 
L 198.830979 176.48129 
L 199.916446 176.111769 
L 201.006111 175.746448 
L 202.099976 175.385325 
L 203.19804 175.028402 
L 204.300304 174.675678 
L 205.406766 174.327153 
L 206.517427 173.982827 
L 207.632288 173.6427 
L 208.751347 173.306772 
L 209.874606 172.975043 
L 211.002064 172.647514 
L 212.13372 172.324183 
L 213.269576 172.005052 
L 214.409631 171.690119 
L 215.553886 171.379386 
L 216.702339 171.072852 
L 217.854991 170.770517 
L 219.011843 170.472381 
L 220.172893 170.178444 
L 221.338143 169.888706 
L 222.507591 169.603168 
L 223.681239 169.321828 
L 224.859086 169.044688 
L 226.041132 168.771746 
L 227.227377 168.503004 
L 228.417822 168.238461 
L 229.612465 167.978117 
L 230.811307 167.721972 
L 232.014349 167.470026 
L 233.221589 167.222279 
L 234.433029 166.978732 
L 235.648668 166.739383 
L 236.868506 166.504234 
L 238.092543 166.273283 
L 239.320779 166.046532 
L 240.553214 165.82398 
L 241.789848 165.605627 
L 243.030682 165.391473 
L 244.275714 165.181518 
" clip-path="url(#p473918c2ce)" style="fill: none; stroke: #000000; stroke-width: 1.5; stroke-linecap: square"/>
   </g>
   <g id="line2d_13">
    <path d="M 141.387321 206.336875 
L 140.763755 205.505454 
L 140.140189 204.674032 
L 139.516623 203.842611 
L 138.893057 203.01119 
L 138.269491 202.179768 
L 137.645925 201.348347 
L 137.022359 200.516926 
L 136.398793 199.685504 
L 135.775227 198.854083 
L 135.151661 198.022661 
L 134.528095 197.19124 
L 133.904529 196.359819 
L 133.280963 195.528397 
L 132.657397 194.696976 
L 132.033831 193.865555 
L 131.410265 193.034133 
L 130.786699 192.202712 
L 130.163133 191.371291 
L 129.539567 190.539869 
L 128.916001 189.708448 
L 128.292435 188.877027 
L 127.668869 188.045605 
L 127.045303 187.214184 
L 126.421737 186.382762 
L 125.798171 185.551341 
L 125.174605 184.71992 
L 124.551039 183.888498 
L 123.927473 183.057077 
L 123.303907 182.225656 
L 122.680341 181.394234 
L 122.056775 180.562813 
L 121.433209 179.731392 
L 120.809643 178.89997 
L 120.186077 178.068549 
L 119.562511 177.237128 
L 118.938945 176.405706 
L 118.315379 175.574285 
L 117.691813 174.742863 
L 117.068247 173.911442 
L 116.444681 173.080021 
L 115.821115 172.248599 
L 115.197549 171.417178 
L 114.573983 170.585757 
L 113.950417 169.754335 
L 113.326851 168.922914 
L 112.703285 168.091493 
L 112.079719 167.260071 
L 111.456153 166.42865 
L 110.832587 165.597229 
L 110.209021 164.765807 
L 109.585455 163.934386 
L 108.961889 163.102964 
L 108.338323 162.271543 
L 107.714756 161.440122 
L 107.09119 160.6087 
L 106.467624 159.777279 
L 105.844058 158.945858 
L 105.220492 158.114436 
L 104.596926 157.283015 
L 103.97336 156.451594 
L 103.349794 155.620172 
L 102.726228 154.788751 
L 102.102662 153.95733 
L 101.479096 153.125908 
L 100.85553 152.294487 
L 100.231964 151.463065 
L 99.608398 150.631644 
L 98.984832 149.800223 
L 98.361266 148.968801 
L 97.7377 148.13738 
L 97.114134 147.305959 
L 96.490568 146.474537 
L 95.867002 145.643116 
L 95.243436 144.811695 
L 94.61987 143.980273 
L 93.996304 143.148852 
L 93.372738 142.317431 
L 92.749172 141.486009 
L 92.125606 140.654588 
L 91.50204 139.823166 
L 90.878474 138.991745 
L 90.254908 138.160324 
L 89.631342 137.328902 
L 89.007776 136.497481 
L 88.38421 135.66606 
L 87.760644 134.834638 
L 87.137078 134.003217 
L 86.513512 133.171796 
L 85.889946 132.340374 
L 85.26638 131.508953 
L 84.642814 130.677532 
L 84.019248 129.84611 
L 83.395682 129.014689 
L 82.772116 128.183267 
L 82.14855 127.351846 
L 81.524984 126.520425 
L 80.901418 125.689003 
L 80.277852 124.857582 
L 79.654286 124.026161 
" clip-path="url(#p473918c2ce)" style="fill: none; stroke: #000000; stroke-width: 1.5; stroke-linecap: square"/>
   </g>
   <g id="line2d_14">
    <path d="M 79.654286 124.026161 
L 80.487807 123.196839 
L 81.325527 122.371716 
L 82.167446 121.550793 
L 83.013564 120.734068 
L 83.863881 119.921543 
L 84.718398 119.113216 
L 85.577113 118.309089 
L 86.440028 117.509161 
L 87.307141 116.713432 
L 88.178454 115.921902 
L 89.053966 115.134571 
L 89.933677 114.351439 
L 90.817587 113.572507 
L 91.705696 112.797773 
L 92.598005 112.027239 
L 93.494512 111.260904 
L 94.395218 110.498767 
L 95.300124 109.74083 
L 96.209229 108.987092 
L 97.122532 108.237553 
L 98.040035 107.492213 
L 98.961737 106.751073 
L 99.887638 106.014131 
L 100.817738 105.281388 
L 101.752038 104.552845 
L 102.690536 103.8285 
L 103.633233 103.108355 
L 104.58013 102.392409 
L 105.531226 101.680662 
L 106.48652 100.973114 
L 107.446014 100.269765 
L 108.409707 99.570615 
L 109.377599 98.875665 
L 110.34969 98.184913 
L 111.325981 97.498361 
L 112.30647 96.816007 
L 113.291158 96.137853 
L 114.280046 95.463898 
L 115.273132 94.794142 
L 116.270418 94.128585 
L 117.271903 93.467227 
L 118.277587 92.810068 
L 119.28747 92.157108 
L 120.301552 91.508348 
L 121.319833 90.863786 
L 122.342314 90.223424 
L 123.368993 89.58726 
L 124.399871 88.955296 
L 125.434949 88.327531 
L 126.474226 87.703965 
L 127.517702 87.084598 
L 128.565376 86.46943 
L 129.61725 85.858462 
L 130.673323 85.251692 
L 131.733596 84.649121 
L 132.798067 84.05075 
L 133.866737 83.456578 
L 134.939607 82.866604 
L 136.016675 82.28083 
L 137.097943 81.699255 
L 138.18341 81.121879 
L 139.273076 80.548703 
L 140.366941 79.979725 
L 141.465005 79.414946 
L 142.567268 78.854367 
L 143.67373 78.297986 
L 144.784392 77.745805 
L 145.899252 77.197822 
L 147.018312 76.654039 
L 148.14157 76.114455 
L 149.269028 75.57907 
L 150.400685 75.047884 
L 151.536541 74.520898 
L 152.676596 73.99811 
L 153.82085 73.479521 
L 154.969303 72.965132 
L 156.121955 72.454942 
L 157.278807 71.94895 
L 158.439857 71.447158 
L 159.605107 70.949565 
L 160.774556 70.456171 
L 161.948204 69.966976 
L 163.126051 69.48198 
L 164.308097 69.001184 
L 165.494342 68.524586 
L 166.684786 68.052188 
L 167.879429 67.583988 
L 169.078272 67.119988 
L 170.281313 66.660187 
L 171.488554 66.204585 
L 172.699993 65.753182 
L 173.915632 65.305978 
L 175.13547 64.862973 
L 176.359507 64.424167 
L 177.587743 63.98956 
L 178.820178 63.559153 
L 180.056813 63.132945 
L 181.297646 62.710935 
L 182.542679 62.293125 
" clip-path="url(#p473918c2ce)" style="fill: none; stroke: #000000; stroke-width: 1.5; stroke-linecap: square"/>
   </g>
   <g id="line2d_15">
    <path d="M 244.275714 165.181518 
L 243.652148 164.142241 
L 243.028582 163.102964 
L 242.405016 162.063688 
L 241.78145 161.024411 
L 241.157884 159.985134 
L 240.534318 158.945858 
L 239.910752 157.906581 
L 239.287186 156.867304 
L 238.66362 155.828028 
L 238.040054 154.788751 
L 237.416488 153.749474 
L 236.792922 152.710198 
L 236.169356 151.670921 
L 235.54579 150.631644 
L 234.922224 149.592367 
L 234.298658 148.553091 
L 233.675092 147.513814 
L 233.051526 146.474537 
L 232.42796 145.435261 
L 231.804394 144.395984 
L 231.180828 143.356707 
L 230.557262 142.317431 
L 229.933696 141.278154 
L 229.31013 140.238877 
L 228.686564 139.1996 
L 228.062998 138.160324 
L 227.439432 137.121047 
L 226.815866 136.08177 
L 226.1923 135.042494 
L 225.568734 134.003217 
L 224.945168 132.96394 
L 224.321602 131.924664 
L 223.698036 130.885387 
L 223.07447 129.84611 
L 222.450904 128.806834 
L 221.827338 127.767557 
L 221.203772 126.72828 
L 220.580206 125.689003 
L 219.95664 124.649727 
L 219.333074 123.61045 
L 218.709508 122.571173 
L 218.085942 121.531897 
L 217.462376 120.49262 
L 216.83881 119.453343 
L 216.215244 118.414067 
L 215.591677 117.37479 
L 214.968111 116.335513 
L 214.344545 115.296236 
L 213.720979 114.25696 
L 213.097413 113.217683 
L 212.473847 112.178406 
L 211.850281 111.13913 
L 211.226715 110.099853 
L 210.603149 109.060576 
L 209.979583 108.0213 
L 209.356017 106.982023 
L 208.732451 105.942746 
L 208.108885 104.90347 
L 207.485319 103.864193 
L 206.861753 102.824916 
L 206.238187 101.785639 
L 205.614621 100.746363 
L 204.991055 99.707086 
L 204.367489 98.667809 
L 203.743923 97.628533 
L 203.120357 96.589256 
L 202.496791 95.549979 
L 201.873225 94.510703 
L 201.249659 93.471426 
L 200.626093 92.432149 
L 200.002527 91.392872 
L 199.378961 90.353596 
L 198.755395 89.314319 
L 198.131829 88.275042 
L 197.508263 87.235766 
L 196.884697 86.196489 
L 196.261131 85.157212 
L 195.637565 84.117936 
L 195.013999 83.078659 
L 194.390433 82.039382 
L 193.766867 81.000106 
L 193.143301 79.960829 
L 192.519735 78.921552 
L 191.896169 77.882275 
L 191.272603 76.842999 
L 190.649037 75.803722 
L 190.025471 74.764445 
L 189.401905 73.725169 
L 188.778339 72.685892 
L 188.154773 71.646615 
L 187.531207 70.607339 
L 186.907641 69.568062 
L 186.284075 68.528785 
L 185.660509 67.489508 
L 185.036943 66.450232 
L 184.413377 65.410955 
L 183.789811 64.371678 
L 183.166245 63.332402 
L 182.542679 62.293125 
" clip-path="url(#p473918c2ce)" style="fill: none; stroke: #000000; stroke-width: 1.5; stroke-linecap: square"/>
   </g>
   <g id="PathCollection_2">
    <path d="M 129.040714 189.874732 
L 129.874235 189.211695 
L 130.711955 188.552856 
L 131.553874 187.898217 
L 132.399992 187.247777 
L 133.25031 186.601535 
L 134.104826 185.959493 
L 134.963542 185.32165 
L 135.826456 184.688007 
L 136.69357 184.058562 
L 137.564883 183.433316 
L 138.440395 182.81227 
L 139.320106 182.195422 
L 140.204016 181.582774 
L 141.092125 180.974325 
L 141.984433 180.370074 
L 142.880941 179.770023 
L 143.781647 179.174171 
L 144.686553 178.582518 
L 145.595657 177.995065 
L 146.508961 177.41181 
L 147.426464 176.832754 
L 148.348166 176.257898 
L 149.274067 175.687241 
L 150.204167 175.120782 
L 151.138466 174.558523 
L 152.076965 174.000463 
L 153.019662 173.446602 
L 153.966559 172.89694 
L 154.917654 172.351477 
L 155.872949 171.810214 
L 156.832443 171.273149 
L 157.796136 170.740283 
L 158.764028 170.211617 
L 159.736119 169.68715 
L 160.712409 169.166882 
L 161.692898 168.650812 
L 162.677587 168.138942 
L 163.666474 167.631271 
L 164.659561 167.1278 
L 165.656847 166.628527 
L 166.658332 166.133453 
L 167.664015 165.642579 
L 168.673898 165.155903 
L 169.687981 164.673427 
L 170.706262 164.19515 
L 171.728742 163.721072 
L 172.755422 163.251193 
L 173.7863 162.785513 
L 174.821378 162.324032 
L 175.860654 161.86675 
L 176.90413 161.413667 
L 177.951805 160.964784 
L 179.003679 160.520099 
L 180.059752 160.079614 
L 181.120024 159.643328 
L 182.184496 159.211241 
L 183.253166 158.783353 
L 183.488067 158.690587 
" clip-path="url(#p473918c2ce)" style="fill: none; stroke: #1f77b4; stroke-width: 1.5"/>
    <path d="M 211.90168 149.297421 
L 212.512479 149.132146 
L 213.694525 148.817634 
L 214.88077 148.507321 
L 216.071214 148.201206 
L 217.265858 147.899291 
L 218.4647 147.601575 
L 219.667742 147.308058 
L 220.874982 147.01874 
L 222.086422 146.733622 
L 223.302061 146.452702 
L 224.521899 146.175981 
L 225.745936 145.90346 
L 226.974172 145.635138 
L 228.206607 145.371014 
L 229.443241 145.11109 
L 230.684075 144.855365 
L 231.929107 144.603839 
" clip-path="url(#p473918c2ce)" style="fill: none; stroke: #1f77b4; stroke-width: 1.5"/>
   </g>
   <g id="PathCollection_3">
    <path d="M 116.694107 173.412589 
L 117.527628 172.707981 
L 118.365348 172.007571 
L 119.207267 171.311361 
L 120.053385 170.619349 
L 120.903703 169.931537 
L 121.758219 169.247924 
L 122.616935 168.56851 
L 123.479849 167.893295 
L 124.346963 167.222279 
L 125.097338 166.648016 
" clip-path="url(#p473918c2ce)" style="fill: none; stroke: #1f77b4; stroke-width: 1.5"/>
    <path d="M 149.40843 150.657187 
L 150.33098 150.13867 
L 151.319867 149.589428 
L 152.312954 149.044385 
L 153.31024 148.503541 
L 154.311724 147.966897 
L 155.317408 147.434451 
L 156.327291 146.906205 
L 157.341373 146.382157 
L 158.359655 145.862309 
L 159.382135 145.34666 
L 160.408814 144.83521 
L 161.439693 144.327959 
L 162.47477 143.824907 
L 163.514047 143.326054 
L 164.557523 142.8314 
L 165.605198 142.340946 
L 166.657072 141.85469 
L 167.713145 141.372634 
L 168.773417 140.894776 
L 169.837888 140.421118 
L 170.906559 139.951659 
L 171.979428 139.486399 
L 173.056497 139.025338 
L 174.137764 138.568476 
L 175.223231 138.115813 
L 176.312897 137.66735 
L 177.406762 137.223085 
L 178.504826 136.78302 
L 179.607089 136.347153 
L 180.713552 135.915486 
L 181.824213 135.488018 
L 182.939073 135.064749 
L 184.058133 134.645679 
L 185.181392 134.230808 
L 186.308849 133.820136 
L 187.440506 133.413664 
L 188.576362 133.01139 
L 189.716417 132.613316 
L 190.860671 132.21944 
L 192.009125 131.829764 
L 193.161777 131.444287 
L 194.318628 131.063009 
L 195.479679 130.68593 
L 196.644928 130.31305 
L 197.814377 129.944369 
L 198.988025 129.579887 
L 200.165872 129.219605 
L 201.347918 128.863521 
L 202.534163 128.511637 
L 203.724607 128.163952 
L 204.919251 127.820465 
L 206.118093 127.481178 
L 207.321135 127.14609 
L 208.528375 126.815201 
L 209.739815 126.488512 
L 210.955454 126.166021 
L 212.175292 125.847729 
L 213.399329 125.533637 
L 214.627565 125.223743 
L 215.86 124.918049 
L 217.096634 124.616554 
L 218.337468 124.319258 
L 219.5825 124.026161 
" clip-path="url(#p473918c2ce)" style="fill: none; stroke: #1f77b4; stroke-width: 1.5"/>
   </g>
   <g id="PathCollection_4">
    <path d="M 104.3475 156.950446 
L 105.181021 156.204267 
L 106.018741 155.462286 
L 106.86066 154.724505 
L 107.706778 153.990922 
L 108.557096 153.261539 
L 109.411612 152.536355 
L 110.270327 151.81537 
L 111.133242 151.098584 
L 112.000356 150.385997 
L 112.871668 149.677609 
L 113.74718 148.97342 
L 114.626891 148.273431 
L 115.510801 147.57764 
L 116.398911 146.886049 
L 117.291219 146.198657 
L 118.187726 145.515463 
L 119.088433 144.836469 
L 119.993338 144.161674 
L 120.902443 143.491078 
L 121.815747 142.824682 
L 122.73325 142.162484 
L 123.654951 141.504485 
L 124.580853 140.850686 
L 125.510953 140.201085 
L 126.445252 139.555684 
L 127.38375 138.914482 
L 128.326448 138.277479 
L 129.273344 137.644675 
L 130.22444 137.01607 
L 131.179735 136.391664 
L 132.139229 135.771457 
L 133.102921 135.155449 
L 134.070813 134.543641 
L 135.042905 133.936031 
L 136.019195 133.332621 
L 136.999684 132.73341 
L 137.984373 132.138398 
L 138.97326 131.547585 
L 139.966347 130.960971 
L 140.963632 130.378556 
L 141.965117 129.80034 
L 142.970801 129.226323 
L 143.980684 128.656506 
L 144.994766 128.090887 
L 146.013048 127.529468 
L 147.035528 126.972248 
L 148.062207 126.419227 
L 149.093086 125.870404 
L 150.128163 125.325781 
L 151.16744 124.785358 
L 152.210916 124.249133 
L 153.258591 123.717107 
L 154.310465 123.189281 
L 155.366538 122.665653 
L 156.42681 122.146225 
L 157.491281 121.630995 
L 158.559952 121.119965 
L 159.234509 120.8013 
" clip-path="url(#p473918c2ce)" style="fill: none; stroke: #1f77b4; stroke-width: 1.5"/>
    <path d="M 186.817361 109.648889 
L 187.819265 109.307063 
L 189.001311 108.909409 
L 190.187556 108.515953 
L 191.378 108.126697 
L 192.572643 107.74164 
L 193.771486 107.360782 
L 194.974527 106.984122 
L 196.181768 106.611662 
L 197.393208 106.243402 
L 198.608847 105.87934 
L 199.828684 105.519477 
L 201.052721 105.163814 
L 202.280958 104.812349 
L 203.513393 104.465084 
L 204.750027 104.122017 
L 205.99086 103.78315 
L 207.235893 103.448482 
" clip-path="url(#p473918c2ce)" style="fill: none; stroke: #1f77b4; stroke-width: 1.5"/>
   </g>
   <g id="PathCollection_5">
    <path d="M 92.000893 140.488304 
L 92.834414 139.700553 
L 93.672134 138.917001 
L 94.514053 138.137649 
L 95.360171 137.362495 
L 96.210488 136.591541 
L 97.065005 135.824786 
L 97.92372 135.062229 
L 98.786635 134.303872 
L 99.653749 133.549714 
L 100.525061 132.799756 
L 100.98318 132.409531 
" clip-path="url(#p473918c2ce)" style="fill: none; stroke: #1f77b4; stroke-width: 1.5"/>
    <path d="M 124.125289 115.119635 
L 124.653077 114.774709 
L 125.637765 114.138125 
L 126.626653 113.505741 
L 127.61974 112.877556 
L 128.617025 112.25357 
L 129.61851 111.633783 
L 130.624194 111.018196 
L 131.634077 110.406807 
L 132.648159 109.799618 
L 133.66644 109.196627 
L 134.688921 108.597836 
L 135.7156 108.003243 
L 136.746479 107.41285 
L 137.781556 106.826656 
L 138.820833 106.244661 
L 139.864309 105.666865 
L 140.911984 105.093269 
L 141.963858 104.523871 
L 143.019931 103.958673 
L 144.080203 103.397673 
L 145.144674 102.840873 
L 146.213344 102.288271 
L 147.286214 101.739869 
L 148.363283 101.195666 
L 149.44455 100.655662 
L 150.530017 100.119857 
L 151.619683 99.588252 
L 152.713548 99.060845 
L 153.811612 98.537637 
L 154.913875 98.018629 
L 156.020337 97.503819 
L 157.130999 96.993209 
L 158.245859 96.486798 
L 159.364919 95.984586 
L 160.488177 95.486573 
L 161.615635 94.992759 
L 162.747292 94.503144 
L 163.883148 94.017728 
L 165.023203 93.536512 
L 166.167457 93.059494 
L 167.31591 92.586676 
L 168.468563 92.118057 
L 169.625414 91.653636 
L 170.786465 91.193415 
L 171.951714 90.737393 
L 173.121163 90.28557 
L 174.294811 89.837947 
L 175.472658 89.394522 
L 176.654704 88.955296 
L 177.840949 88.52027 
L 179.031393 88.089442 
L 180.226036 87.662814 
L 181.424879 87.240385 
L 182.62792 86.822155 
L 183.835161 86.408124 
L 185.046601 85.998292 
L 186.262239 85.592659 
L 187.482077 85.191225 
L 188.706114 84.79399 
L 189.93435 84.400955 
L 191.166786 84.012118 
L 192.40342 83.627481 
L 193.644253 83.247043 
L 194.889286 82.870804 
" clip-path="url(#p473918c2ce)" style="fill: none; stroke: #1f77b4; stroke-width: 1.5"/>
   </g>
   <g id="PathCollection_6">
    <path d="M 96.939872 108.387461 
L 97.563438 109.260453 
L 98.187004 110.133446 
L 98.81057 111.006438 
L 99.434136 111.879431 
L 100.057702 112.752423 
L 100.681268 113.625415 
L 101.304834 114.498408 
L 101.9284 115.3714 
L 102.551966 116.244393 
L 103.175532 117.117385 
L 103.799098 117.990378 
L 104.422664 118.86337 
L 105.04623 119.736362 
L 105.669796 120.609355 
L 106.293362 121.482347 
L 106.916928 122.35534 
L 107.540494 123.228332 
L 108.16406 124.101325 
L 108.787626 124.974317 
L 109.411192 125.847309 
L 110.034758 126.720302 
L 110.658324 127.593294 
L 111.28189 128.466287 
L 111.905456 129.339279 
L 112.529022 130.212272 
L 113.152588 131.085264 
L 113.776154 131.958256 
L 114.39972 132.831249 
L 115.023286 133.704241 
L 115.646852 134.577234 
L 116.270418 135.450226 
L 116.893984 136.323219 
L 117.51755 137.196211 
L 118.141116 138.069203 
L 118.764682 138.942196 
L 119.388248 139.815188 
L 120.011814 140.688181 
L 120.63538 141.561173 
L 121.258946 142.434165 
L 121.882512 143.307158 
L 122.506078 144.18015 
L 123.129644 145.053143 
L 123.75321 145.926135 
L 124.376776 146.799128 
L 125.000342 147.67212 
L 125.623908 148.545112 
L 126.247474 149.418105 
L 126.87104 150.291097 
L 127.494606 151.16409 
L 128.118173 152.037082 
L 128.741739 152.910075 
L 129.365305 153.783067 
L 129.988871 154.656059 
L 130.612437 155.529052 
L 131.236003 156.402044 
L 131.859569 157.275037 
L 132.483135 158.148029 
L 132.504175 158.177486 
" clip-path="url(#p473918c2ce)" style="fill: none; stroke: #ff7f0e; stroke-width: 1.5"/>
    <path d="M 148.674811 180.816376 
L 148.695851 180.845832 
L 149.319417 181.718825 
L 149.942983 182.591817 
L 150.566549 183.464809 
L 151.190115 184.337802 
L 151.813681 185.210794 
L 152.437247 186.083787 
L 153.060813 186.956779 
L 153.684379 187.829772 
L 154.307945 188.702764 
L 154.931511 189.575756 
L 155.555077 190.448749 
L 156.178643 191.321741 
L 156.802209 192.194734 
L 157.425775 193.067726 
L 158.049341 193.940719 
L 158.672907 194.813711 
" clip-path="url(#p473918c2ce)" style="fill: none; stroke: #ff7f0e; stroke-width: 1.5"/>
   </g>
   <g id="PathCollection_7">
    <path d="M 115.871504 94.394807 
L 116.49507 95.309371 
L 117.118636 96.223934 
L 117.742202 97.138498 
L 118.365768 98.053061 
L 118.989334 98.967625 
L 119.6129 99.882188 
L 120.236466 100.796752 
L 120.860032 101.711315 
L 121.483598 102.625879 
L 122.107164 103.540442 
L 122.396642 103.96501 
" clip-path="url(#p473918c2ce)" style="fill: none; stroke: #ff7f0e; stroke-width: 1.5"/>
    <path d="M 138.030403 126.894526 
L 138.319881 127.319093 
L 138.943447 128.233657 
L 139.567013 129.14822 
L 140.190579 130.062784 
L 140.814145 130.977347 
L 141.437711 131.891911 
L 142.061277 132.806474 
L 142.684843 133.721038 
L 143.308409 134.635601 
L 143.931975 135.550165 
L 144.555541 136.464728 
L 145.179107 137.379292 
L 145.802673 138.293855 
L 146.426239 139.208419 
L 147.049805 140.122982 
L 147.673371 141.037546 
L 148.296937 141.952109 
L 148.920503 142.866673 
L 149.544069 143.781236 
L 150.167635 144.6958 
L 150.791201 145.610363 
L 151.414767 146.524927 
L 152.038333 147.43949 
L 152.661899 148.354053 
L 153.285465 149.268617 
L 153.909031 150.18318 
L 154.532597 151.097744 
L 155.156163 152.012307 
L 155.779729 152.926871 
L 156.403295 153.841434 
L 157.026861 154.755998 
L 157.650427 155.670561 
L 158.273993 156.585125 
L 158.897559 157.499688 
L 159.521125 158.414252 
L 160.144691 159.328815 
L 160.768257 160.243379 
L 161.391823 161.157942 
L 162.015389 162.072506 
L 162.638955 162.987069 
L 163.262521 163.901633 
L 163.886087 164.816196 
L 164.509653 165.73076 
L 165.133219 166.645323 
L 165.756785 167.559887 
L 166.380351 168.47445 
L 167.003917 169.389014 
L 167.627483 170.303577 
L 168.251049 171.218141 
L 168.874615 172.132704 
L 169.498181 173.047268 
L 170.121747 173.961831 
L 170.745313 174.876395 
L 171.368879 175.790958 
L 171.992445 176.705522 
L 172.616011 177.620085 
L 173.239577 178.534649 
L 173.863144 179.449212 
L 174.48671 180.363776 
L 175.110276 181.278339 
L 175.733842 182.192903 
L 176.357408 183.107466 
L 176.980974 184.02203 
L 177.60454 184.936593 
" clip-path="url(#p473918c2ce)" style="fill: none; stroke: #ff7f0e; stroke-width: 1.5"/>
   </g>
   <g id="PathCollection_8">
    <path d="M 136.449182 82.0482 
L 137.072748 83.004335 
L 137.696314 83.960469 
L 138.319881 84.916604 
L 138.943447 85.872739 
L 139.567013 86.828873 
L 140.190579 87.785008 
L 140.814145 88.741142 
L 141.437711 89.697277 
L 142.061277 90.653411 
L 142.684843 91.609546 
L 143.308409 92.56568 
L 143.931975 93.521815 
L 144.555541 94.47795 
L 145.179107 95.434084 
L 145.802673 96.390219 
L 146.426239 97.346353 
L 147.049805 98.302488 
L 147.673371 99.258622 
L 148.296937 100.214757 
L 148.920503 101.170892 
L 149.544069 102.127026 
L 150.167635 103.083161 
L 150.791201 104.039295 
L 151.414767 104.99543 
L 152.038333 105.951564 
L 152.661899 106.907699 
L 153.285465 107.863833 
L 153.909031 108.819968 
L 154.532597 109.776103 
L 155.156163 110.732237 
L 155.779729 111.688372 
L 156.403295 112.644506 
L 157.026861 113.600641 
L 157.650427 114.556775 
L 158.273993 115.51291 
L 158.897559 116.469044 
L 159.521125 117.425179 
L 160.144691 118.381314 
L 160.768257 119.337448 
L 161.391823 120.293583 
L 162.015389 121.249717 
L 162.638955 122.205852 
L 163.262521 123.161986 
L 163.886087 124.118121 
L 164.509653 125.074256 
L 165.133219 126.03039 
L 165.756785 126.986525 
L 166.380351 127.942659 
L 167.003917 128.898794 
L 167.627483 129.854928 
L 168.251049 130.811063 
L 168.874615 131.767197 
L 169.498181 132.723332 
L 170.121747 133.679467 
L 170.745313 134.635601 
L 171.368879 135.591736 
L 171.992445 136.54787 
L 172.536058 137.381409 
" clip-path="url(#p473918c2ce)" style="fill: none; stroke: #ff7f0e; stroke-width: 1.5"/>
    <path d="M 187.66155 160.57383 
L 188.205162 161.407369 
L 188.828728 162.363503 
L 189.452294 163.319638 
L 190.07586 164.275772 
L 190.699426 165.231907 
L 191.322992 166.188042 
L 191.946558 167.144176 
L 192.570124 168.100311 
L 193.19369 169.056445 
L 193.817256 170.01258 
L 194.440822 170.968714 
L 195.064388 171.924849 
L 195.687954 172.880984 
L 196.31152 173.837118 
L 196.935086 174.793253 
L 197.558652 175.749387 
L 198.182218 176.705522 
" clip-path="url(#p473918c2ce)" style="fill: none; stroke: #ff7f0e; stroke-width: 1.5"/>
   </g>
   <g id="PathCollection_9">
    <path d="M 158.672907 71.347639 
L 159.296473 72.345345 
L 159.920039 73.343051 
L 160.543605 74.340756 
L 161.167171 75.338462 
L 161.790737 76.336168 
L 162.414303 77.333873 
L 163.037869 78.331579 
L 163.661435 79.329285 
L 164.285002 80.32699 
L 164.908568 81.324696 
L 165.532134 82.322401 
L 165.692813 82.579488 
" clip-path="url(#p473918c2ce)" style="fill: none; stroke: #ff7f0e; stroke-width: 1.5"/>
    <path d="M 180.337039 106.010249 
L 180.497718 106.267336 
L 181.121284 107.265042 
L 181.74485 108.262748 
L 182.368416 109.260453 
L 182.991982 110.258159 
L 183.615548 111.255865 
L 184.239114 112.25357 
L 184.86268 113.251276 
L 185.486246 114.248981 
L 186.109812 115.246687 
L 186.733378 116.244393 
L 187.356944 117.242098 
L 187.98051 118.239804 
L 188.604076 119.23751 
L 189.227642 120.235215 
L 189.851208 121.232921 
L 190.474774 122.230627 
L 191.09834 123.228332 
L 191.721906 124.226038 
L 192.345472 125.223743 
L 192.969038 126.221449 
L 193.592604 127.219155 
L 194.21617 128.21686 
L 194.839736 129.214566 
L 195.463302 130.212272 
L 196.086868 131.209977 
L 196.710434 132.207683 
L 197.334 133.205388 
L 197.957566 134.203094 
L 198.581132 135.2008 
L 199.204698 136.198505 
L 199.828264 137.196211 
L 200.451831 138.193917 
L 201.075397 139.191622 
L 201.698963 140.189328 
L 202.322529 141.187033 
L 202.946095 142.184739 
L 203.569661 143.182445 
L 204.193227 144.18015 
L 204.816793 145.177856 
L 205.440359 146.175562 
L 206.063925 147.173267 
L 206.687491 148.170973 
L 207.311057 149.168678 
L 207.934623 150.166384 
L 208.558189 151.16409 
L 209.181755 152.161795 
L 209.805321 153.159501 
L 210.428887 154.157207 
L 211.052453 155.154912 
L 211.676019 156.152618 
L 212.299585 157.150323 
L 212.923151 158.148029 
L 213.546717 159.145735 
L 214.170283 160.14344 
L 214.793849 161.141146 
L 215.417415 162.138852 
L 216.040981 163.136557 
L 216.664547 164.134263 
L 217.288113 165.131969 
L 217.911679 166.129674 
L 218.535245 167.12738 
L 219.158811 168.125085 
L 219.782377 169.122791 
L 220.405943 170.120497 
" clip-path="url(#p473918c2ce)" style="fill: none; stroke: #ff7f0e; stroke-width: 1.5"/>
   </g>
   <g id="patch_3">
    <path d="M 46.73 235.145625 
L 46.73 33.484375 
" style="fill: none; stroke: #000000; stroke-width: 0.8; stroke-linejoin: miter; stroke-linecap: square"/>
   </g>
   <g id="patch_4">
    <path d="M 277.2 235.145625 
L 277.2 33.484375 
" style="fill: none; stroke: #000000; stroke-width: 0.8; stroke-linejoin: miter; stroke-linecap: square"/>
   </g>
   <g id="patch_5">
    <path d="M 46.73 235.145625 
L 277.2 235.145625 
" style="fill: none; stroke: #000000; stroke-width: 0.8; stroke-linejoin: miter; stroke-linecap: square"/>
   </g>
   <g id="patch_6">
    <path d="M 46.73 33.484375 
L 277.2 33.484375 
" style="fill: none; stroke: #000000; stroke-width: 0.8; stroke-linejoin: miter; stroke-linecap: square"/>
   </g>
   <g id="text_14">
    <g clip-path="url(#p473918c2ce)">
     <!-- $\xi_0$ = 0.20 -->
     <g style="fill: #1f77b4" transform="translate(182.546464 160.833178) rotate(-18.28158) scale(0.0833 -0.0833)">
      <defs>
       <path id="NotoSans-Italic-3be" d="M 1139 -1293 
Q 1421 -1043 1568 -860 
Q 1715 -678 1715 -474 
Q 1715 -288 1564 -189 
Q 1414 -90 1114 26 
Q 685 192 470 451 
Q 256 710 256 1146 
Q 256 1664 595 2041 
Q 934 2419 1581 2560 
L 1581 2579 
Q 1286 2669 1097 2861 
Q 909 3053 909 3379 
Q 909 3642 1046 3853 
Q 1184 4064 1421 4211 
Q 1658 4358 1939 4429 
Q 1779 4416 1638 4403 
Q 1498 4390 1293 4390 
L 1114 4390 
L 1216 4864 
L 3155 4864 
L 3059 4429 
L 3034 4429 
Q 2758 4429 2480 4365 
Q 2202 4301 1971 4176 
Q 1741 4051 1600 3862 
Q 1459 3674 1459 3424 
Q 1459 3110 1676 2937 
Q 1894 2765 2381 2765 
L 2675 2765 
L 2579 2330 
L 2336 2330 
Q 1958 2330 1612 2211 
Q 1267 2093 1049 1846 
Q 832 1600 832 1216 
Q 832 922 979 755 
Q 1126 589 1510 442 
Q 1702 371 1878 268 
Q 2054 166 2166 9 
Q 2278 -147 2278 -384 
Q 2278 -678 2115 -899 
Q 1952 -1120 1747 -1293 
L 1139 -1293 
z
" transform="scale(0.015625)"/>
       <path id="NotoSansMath-Regular-20" transform="scale(0.015625)"/>
       <path id="NotoSansMath-Regular-3d" d="M 365 2662 
L 365 3117 
L 3296 3117 
L 3296 2662 
L 365 2662 
z
M 365 1389 
L 365 1843 
L 3296 1843 
L 3296 1389 
L 365 1389 
z
" transform="scale(0.015625)"/>
      </defs>
      <use xlink:href="#NotoSans-Italic-3be"/>
      <use xlink:href="#NotoSansMath-Regular-30" transform="translate(44.699997 -16.078125) scale(0.7)"/>
      <use xlink:href="#NotoSansMath-Regular-20" transform="translate(87.419682 0)"/>
      <use xlink:href="#NotoSansMath-Regular-3d" transform="translate(113.419667 0)"/>
      <use xlink:href="#NotoSansMath-Regular-20" transform="translate(170.619664 0)"/>
      <use xlink:href="#NotoSansMath-Regular-30" transform="translate(196.619649 0)"/>
      <use xlink:href="#NotoSansMath-Regular-2e" transform="translate(253.819646 0)"/>
      <use xlink:href="#NotoSansMath-Regular-32" transform="translate(280.619633 0)"/>
      <use xlink:href="#NotoSansMath-Regular-30" transform="translate(337.81963 0)"/>
     </g>
    </g>
   </g>
   <g id="text_15">
    <g clip-path="url(#p473918c2ce)">
     <!-- $\xi_0$ = 0.40 -->
     <g style="fill: #1f77b4" transform="translate(124.337126 169.141241) rotate(-33.331091) scale(0.0833 -0.0833)">
      <use xlink:href="#NotoSans-Italic-3be"/>
      <use xlink:href="#NotoSansMath-Regular-30" transform="translate(44.699997 -16.078125) scale(0.7)"/>
      <use xlink:href="#NotoSansMath-Regular-20" transform="translate(87.419682 0)"/>
      <use xlink:href="#NotoSansMath-Regular-3d" transform="translate(113.419667 0)"/>
      <use xlink:href="#NotoSansMath-Regular-20" transform="translate(170.619664 0)"/>
      <use xlink:href="#NotoSansMath-Regular-30" transform="translate(196.619649 0)"/>
      <use xlink:href="#NotoSansMath-Regular-2e" transform="translate(253.819646 0)"/>
      <use xlink:href="#NotoSansMath-Regular-34" transform="translate(280.619633 0)"/>
      <use xlink:href="#NotoSansMath-Regular-30" transform="translate(337.81963 0)"/>
     </g>
    </g>
   </g>
   <g id="text_16">
    <g clip-path="url(#p473918c2ce)">
     <!-- $\xi_0$ = 0.60 -->
     <g style="fill: #1f77b4" transform="translate(158.354511 123.046768) rotate(-22.005722) scale(0.0833 -0.0833)">
      <use xlink:href="#NotoSans-Italic-3be"/>
      <use xlink:href="#NotoSansMath-Regular-30" transform="translate(44.699997 -16.078125) scale(0.7)"/>
      <use xlink:href="#NotoSansMath-Regular-20" transform="translate(87.419682 0)"/>
      <use xlink:href="#NotoSansMath-Regular-3d" transform="translate(113.419667 0)"/>
      <use xlink:href="#NotoSansMath-Regular-20" transform="translate(170.619664 0)"/>
      <use xlink:href="#NotoSansMath-Regular-30" transform="translate(196.619649 0)"/>
      <use xlink:href="#NotoSansMath-Regular-2e" transform="translate(253.819646 0)"/>
      <use xlink:href="#NotoSansMath-Regular-36" transform="translate(280.619633 0)"/>
      <use xlink:href="#NotoSansMath-Regular-30" transform="translate(337.81963 0)"/>
     </g>
    </g>
   </g>
   <g id="text_17">
    <g clip-path="url(#p473918c2ce)">
     <!-- $\xi_0$ = 0.80 -->
     <g style="fill: #1f77b4" transform="translate(100.317414 135.038961) rotate(-36.763415) scale(0.0833 -0.0833)">
      <use xlink:href="#NotoSans-Italic-3be"/>
      <use xlink:href="#NotoSansMath-Regular-30" transform="translate(44.699997 -16.078125) scale(0.7)"/>
      <use xlink:href="#NotoSansMath-Regular-20" transform="translate(87.419682 0)"/>
      <use xlink:href="#NotoSansMath-Regular-3d" transform="translate(113.419667 0)"/>
      <use xlink:href="#NotoSansMath-Regular-20" transform="translate(170.619664 0)"/>
      <use xlink:href="#NotoSansMath-Regular-30" transform="translate(196.619649 0)"/>
      <use xlink:href="#NotoSansMath-Regular-2e" transform="translate(253.819646 0)"/>
      <use xlink:href="#NotoSansMath-Regular-38" transform="translate(280.619633 0)"/>
      <use xlink:href="#NotoSansMath-Regular-30" transform="translate(337.81963 0)"/>
     </g>
    </g>
   </g>
   <g id="text_18">
    <g clip-path="url(#p473918c2ce)">
     <!-- $\xi_1$ = 0.20 -->
     <g style="fill: #ff7f0e" transform="translate(129.240515 157.334545) rotate(54.462322) scale(0.0833 -0.0833)">
      <use xlink:href="#NotoSans-Italic-3be"/>
      <use xlink:href="#NotoSansMath-Regular-31" transform="translate(44.699997 -16.078125) scale(0.7)"/>
      <use xlink:href="#NotoSansMath-Regular-20" transform="translate(87.419682 0)"/>
      <use xlink:href="#NotoSansMath-Regular-3d" transform="translate(113.419667 0)"/>
      <use xlink:href="#NotoSansMath-Regular-20" transform="translate(170.619664 0)"/>
      <use xlink:href="#NotoSansMath-Regular-30" transform="translate(196.619649 0)"/>
      <use xlink:href="#NotoSansMath-Regular-2e" transform="translate(253.819646 0)"/>
      <use xlink:href="#NotoSansMath-Regular-32" transform="translate(280.619633 0)"/>
      <use xlink:href="#NotoSansMath-Regular-30" transform="translate(337.81963 0)"/>
     </g>
    </g>
   </g>
   <g id="text_19">
    <g clip-path="url(#p473918c2ce)">
     <!-- $\xi_1$ = 0.40 -->
     <g style="fill: #ff7f0e" transform="translate(119.13274 103.022545) rotate(55.713123) scale(0.0833 -0.0833)">
      <use xlink:href="#NotoSans-Italic-3be"/>
      <use xlink:href="#NotoSansMath-Regular-31" transform="translate(44.699997 -16.078125) scale(0.7)"/>
      <use xlink:href="#NotoSansMath-Regular-20" transform="translate(87.419682 0)"/>
      <use xlink:href="#NotoSansMath-Regular-3d" transform="translate(113.419667 0)"/>
      <use xlink:href="#NotoSansMath-Regular-20" transform="translate(170.619664 0)"/>
      <use xlink:href="#NotoSansMath-Regular-30" transform="translate(196.619649 0)"/>
      <use xlink:href="#NotoSansMath-Regular-2e" transform="translate(253.819646 0)"/>
      <use xlink:href="#NotoSansMath-Regular-34" transform="translate(280.619633 0)"/>
      <use xlink:href="#NotoSansMath-Regular-30" transform="translate(337.81963 0)"/>
     </g>
    </g>
   </g>
   <g id="text_20">
    <g clip-path="url(#p473918c2ce)">
     <!-- $\xi_1$ = 0.60 -->
     <g style="fill: #ff7f0e" transform="translate(169.274894 136.34568) rotate(56.888658) scale(0.0833 -0.0833)">
      <use xlink:href="#NotoSans-Italic-3be"/>
      <use xlink:href="#NotoSansMath-Regular-31" transform="translate(44.699997 -16.078125) scale(0.7)"/>
      <use xlink:href="#NotoSansMath-Regular-20" transform="translate(87.419682 0)"/>
      <use xlink:href="#NotoSansMath-Regular-3d" transform="translate(113.419667 0)"/>
      <use xlink:href="#NotoSansMath-Regular-20" transform="translate(170.619664 0)"/>
      <use xlink:href="#NotoSansMath-Regular-30" transform="translate(196.619649 0)"/>
      <use xlink:href="#NotoSansMath-Regular-2e" transform="translate(253.819646 0)"/>
      <use xlink:href="#NotoSansMath-Regular-36" transform="translate(280.619633 0)"/>
      <use xlink:href="#NotoSansMath-Regular-30" transform="translate(337.81963 0)"/>
     </g>
    </g>
   </g>
   <g id="text_21">
    <g clip-path="url(#p473918c2ce)">
     <!-- $\xi_1$ = 0.80 -->
     <g style="fill: #ff7f0e" transform="translate(162.436847 81.456365) rotate(57.994617) scale(0.0833 -0.0833)">
      <use xlink:href="#NotoSans-Italic-3be"/>
      <use xlink:href="#NotoSansMath-Regular-31" transform="translate(44.699997 -16.078125) scale(0.7)"/>
      <use xlink:href="#NotoSansMath-Regular-20" transform="translate(87.419682 0)"/>
      <use xlink:href="#NotoSansMath-Regular-3d" transform="translate(113.419667 0)"/>
      <use xlink:href="#NotoSansMath-Regular-20" transform="translate(170.619664 0)"/>
      <use xlink:href="#NotoSansMath-Regular-30" transform="translate(196.619649 0)"/>
      <use xlink:href="#NotoSansMath-Regular-2e" transform="translate(253.819646 0)"/>
      <use xlink:href="#NotoSansMath-Regular-38" transform="translate(280.619633 0)"/>
      <use xlink:href="#NotoSansMath-Regular-30" transform="translate(337.81963 0)"/>
     </g>
    </g>
   </g>
   <g id="legend_1">
    <g id="patch_7">
     <path d="M 152.853125 56.484375 
L 270.2 56.484375 
Q 272.2 56.484375 272.2 54.484375 
L 272.2 40.484375 
Q 272.2 38.484375 270.2 38.484375 
L 152.853125 38.484375 
Q 150.853125 38.484375 150.853125 40.484375 
L 150.853125 54.484375 
Q 150.853125 56.484375 152.853125 56.484375 
z
" style="fill: #ffffff; opacity: 0.8; stroke: #cccccc; stroke-linejoin: miter"/>
    </g>
    <g id="PathCollection_10">
     <g>
      <use xlink:href="#mf1116ffac3" x="164.853125" y="47.459375" style="stroke: #000000"/>
     </g>
    </g>
    <g id="text_22">
     <!-- quadrature points -->
     <g transform="translate(182.853125 50.084375) scale(0.1 -0.1)">
      <defs>
       <path id="NotoSansMath-Regular-71" d="M 2829 -1536 
L 2829 -70 
Q 2829 45 2835 198 
Q 2842 352 2861 461 
L 2822 461 
Q 2675 243 2416 89 
Q 2157 -64 1747 -64 
Q 1126 -64 739 381 
Q 352 826 352 1709 
Q 352 2592 745 3043 
Q 1139 3494 1766 3494 
Q 2170 3494 2426 3340 
Q 2682 3187 2835 2963 
L 2861 2963 
L 2944 3430 
L 3392 3430 
L 3392 -1536 
L 2829 -1536 
z
M 1856 403 
Q 2387 403 2608 694 
Q 2829 986 2835 1587 
L 2835 1702 
Q 2835 2355 2617 2691 
Q 2400 3027 1843 3027 
Q 1382 3027 1158 2665 
Q 934 2304 934 1696 
Q 934 1088 1161 745 
Q 1389 403 1856 403 
z
" transform="scale(0.015625)"/>
       <path id="NotoSansMath-Regular-75" d="M 1754 -64 
Q 1133 -64 819 233 
Q 506 531 506 1184 
L 506 3430 
L 1075 3430 
L 1075 1222 
Q 1075 403 1837 403 
Q 2406 403 2627 723 
Q 2848 1043 2848 1645 
L 2848 3430 
L 3411 3430 
L 3411 0 
L 2950 0 
L 2867 454 
L 2842 454 
Q 2675 186 2380 61 
Q 2086 -64 1754 -64 
z
" transform="scale(0.015625)"/>
       <path id="NotoSansMath-Regular-61" d="M 1376 -64 
Q 909 -64 601 182 
Q 294 429 294 954 
Q 294 1466 697 1744 
Q 1101 2022 1939 2048 
L 2522 2067 
L 2522 2272 
Q 2522 2701 2336 2867 
Q 2150 3034 1811 3034 
Q 1542 3034 1299 2954 
Q 1056 2874 845 2771 
L 672 3194 
Q 896 3315 1203 3401 
Q 1510 3488 1843 3488 
Q 2470 3488 2771 3213 
Q 3072 2938 3072 2336 
L 3072 0 
L 2662 0 
L 2554 486 
L 2528 486 
Q 2304 205 2057 70 
Q 1811 -64 1376 -64 
z
M 1504 390 
Q 1939 390 2227 630 
Q 2515 870 2515 1370 
L 2515 1677 
L 2010 1658 
Q 1370 1632 1123 1453 
Q 877 1274 877 947 
Q 877 659 1053 524 
Q 1229 390 1504 390 
z
" transform="scale(0.015625)"/>
       <path id="NotoSansMath-Regular-64" d="M 1760 -64 
Q 1120 -64 736 381 
Q 352 826 352 1709 
Q 352 2592 739 3043 
Q 1126 3494 1766 3494 
Q 2163 3494 2416 3347 
Q 2669 3200 2829 2989 
L 2867 2989 
Q 2861 3072 2845 3235 
Q 2829 3398 2829 3494 
L 2829 4864 
L 3392 4864 
L 3392 0 
L 2938 0 
L 2854 461 
L 2829 461 
Q 2675 243 2419 89 
Q 2163 -64 1760 -64 
z
M 1850 403 
Q 2394 403 2614 700 
Q 2835 998 2835 1600 
L 2835 1702 
Q 2835 2342 2624 2684 
Q 2413 3027 1843 3027 
Q 1389 3027 1161 2665 
Q 934 2304 934 1696 
Q 934 1082 1161 742 
Q 1389 403 1850 403 
z
" transform="scale(0.015625)"/>
       <path id="NotoSansMath-Regular-72" d="M 544 0 
L 544 3430 
L 1005 3430 
L 1069 2803 
L 1094 2803 
Q 1261 3085 1523 3289 
Q 1786 3494 2144 3494 
Q 2240 3494 2352 3484 
Q 2464 3475 2547 3456 
L 2477 2938 
Q 2394 2957 2294 2969 
Q 2195 2982 2106 2982 
Q 1843 2982 1612 2838 
Q 1382 2694 1244 2435 
Q 1107 2176 1107 1830 
L 1107 0 
L 544 0 
z
" transform="scale(0.015625)"/>
       <path id="NotoSansMath-Regular-74" d="M 1594 -64 
Q 1325 -64 1097 29 
Q 870 122 729 352 
Q 589 582 589 998 
L 589 2995 
L 102 2995 
L 102 3264 
L 595 3488 
L 819 4218 
L 1152 4218 
L 1152 3430 
L 2144 3430 
L 2144 2995 
L 1152 2995 
L 1152 1011 
Q 1152 698 1302 547 
Q 1453 397 1690 397 
Q 1818 397 1952 419 
Q 2086 442 2170 467 
L 2170 38 
Q 2080 -6 1913 -35 
Q 1747 -64 1594 -64 
z
" transform="scale(0.015625)"/>
       <path id="NotoSansMath-Regular-65" d="M 2003 -64 
Q 1517 -64 1142 134 
Q 768 333 560 726 
Q 352 1120 352 1690 
Q 352 2253 541 2656 
Q 730 3059 1072 3276 
Q 1414 3494 1869 3494 
Q 2310 3494 2627 3302 
Q 2944 3110 3113 2761 
Q 3283 2413 3283 1946 
L 3283 1606 
L 934 1606 
Q 947 1024 1232 720 
Q 1517 416 2029 416 
Q 2355 416 2608 477 
Q 2861 538 3130 653 
L 3130 160 
Q 2867 45 2611 -9 
Q 2355 -64 2003 -64 
z
M 947 2054 
L 2694 2054 
Q 2694 2490 2492 2762 
Q 2291 3034 1862 3034 
Q 1459 3034 1225 2774 
Q 992 2515 947 2054 
z
" transform="scale(0.015625)"/>
       <path id="NotoSansMath-Regular-70" d="M 544 -1536 
L 544 3430 
L 1005 3430 
L 1082 2963 
L 1107 2963 
Q 1261 3187 1510 3340 
Q 1760 3494 2176 3494 
Q 2810 3494 3197 3052 
Q 3584 2611 3584 1722 
Q 3584 845 3197 390 
Q 2810 -64 2170 -64 
Q 1773 -64 1513 86 
Q 1254 237 1107 435 
L 1069 435 
Q 1082 326 1094 160 
Q 1107 -6 1107 -128 
L 1107 -1536 
L 544 -1536 
z
M 2086 403 
Q 2400 403 2601 576 
Q 2803 749 2902 1046 
Q 3002 1344 3002 1728 
Q 3002 2317 2774 2669 
Q 2547 3021 2074 3021 
Q 1549 3021 1334 2726 
Q 1120 2432 1107 1830 
L 1107 1722 
Q 1107 1088 1315 745 
Q 1523 403 2086 403 
z
" transform="scale(0.015625)"/>
       <path id="NotoSansMath-Regular-6f" d="M 1926 -64 
Q 1472 -64 1117 144 
Q 762 352 557 752 
Q 352 1152 352 1722 
Q 352 2573 781 3033 
Q 1210 3494 1946 3494 
Q 2413 3494 2768 3286 
Q 3123 3078 3324 2684 
Q 3526 2291 3526 1722 
Q 3526 870 3094 403 
Q 2662 -64 1926 -64 
z
M 1939 403 
Q 2458 403 2701 758 
Q 2944 1114 2944 1722 
Q 2944 2330 2701 2675 
Q 2458 3021 1933 3021 
Q 1408 3021 1171 2675 
Q 934 2330 934 1722 
Q 934 1114 1174 758 
Q 1414 403 1939 403 
z
" transform="scale(0.015625)"/>
       <path id="NotoSansMath-Regular-69" d="M 832 4000 
Q 691 4000 595 4089 
Q 499 4179 499 4358 
Q 499 4544 595 4630 
Q 691 4717 832 4717 
Q 960 4717 1059 4630 
Q 1158 4544 1158 4358 
Q 1158 4179 1059 4089 
Q 960 4000 832 4000 
z
M 544 0 
L 544 3430 
L 1107 3430 
L 1107 0 
L 544 0 
z
" transform="scale(0.015625)"/>
       <path id="NotoSansMath-Regular-6e" d="M 544 0 
L 544 3430 
L 998 3430 
L 1082 2963 
L 1114 2963 
Q 1280 3232 1574 3363 
Q 1869 3494 2195 3494 
Q 2810 3494 3123 3196 
Q 3437 2899 3437 2234 
L 3437 0 
L 2880 0 
L 2880 2195 
Q 2880 3021 2112 3021 
Q 1542 3021 1324 2701 
Q 1107 2381 1107 1779 
L 1107 0 
L 544 0 
z
" transform="scale(0.015625)"/>
       <path id="NotoSansMath-Regular-73" d="M 1408 -64 
Q 1050 -64 790 -6 
Q 531 51 333 154 
L 333 666 
Q 538 563 829 476 
Q 1120 390 1421 390 
Q 1850 390 2042 528 
Q 2234 666 2234 896 
Q 2234 1024 2163 1126 
Q 2093 1229 1910 1331 
Q 1728 1434 1389 1562 
Q 1056 1690 819 1818 
Q 582 1946 454 2125 
Q 326 2304 326 2586 
Q 326 3021 681 3257 
Q 1037 3494 1613 3494 
Q 1926 3494 2198 3433 
Q 2470 3373 2707 3264 
L 2515 2816 
Q 2298 2906 2061 2970 
Q 1824 3034 1574 3034 
Q 1229 3034 1046 2922 
Q 864 2810 864 2618 
Q 864 2477 947 2377 
Q 1030 2278 1225 2185 
Q 1421 2093 1747 1965 
Q 2074 1843 2304 1712 
Q 2534 1581 2656 1401 
Q 2778 1222 2778 947 
Q 2778 448 2406 192 
Q 2035 -64 1408 -64 
z
" transform="scale(0.015625)"/>
      </defs>
      <use xlink:href="#NotoSansMath-Regular-71"/>
      <use xlink:href="#NotoSansMath-Regular-75" x="61.499985"/>
      <use xlink:href="#NotoSansMath-Regular-61" x="123.299973"/>
      <use xlink:href="#NotoSansMath-Regular-64" x="179.399963"/>
      <use xlink:href="#NotoSansMath-Regular-72" x="240.899948"/>
      <use xlink:href="#NotoSansMath-Regular-61" x="282.199936"/>
      <use xlink:href="#NotoSansMath-Regular-74" x="338.299927"/>
      <use xlink:href="#NotoSansMath-Regular-75" x="374.399918"/>
      <use xlink:href="#NotoSansMath-Regular-72" x="436.199905"/>
      <use xlink:href="#NotoSansMath-Regular-65" x="477.499893"/>
      <use xlink:href="#NotoSansMath-Regular-20" x="533.899887"/>
      <use xlink:href="#NotoSansMath-Regular-70" x="559.899872"/>
      <use xlink:href="#NotoSansMath-Regular-6f" x="621.399857"/>
      <use xlink:href="#NotoSansMath-Regular-69" x="681.899841"/>
      <use xlink:href="#NotoSansMath-Regular-6e" x="707.699829"/>
      <use xlink:href="#NotoSansMath-Regular-74" x="769.499817"/>
      <use xlink:href="#NotoSansMath-Regular-73" x="805.599808"/>
     </g>
    </g>
   </g>
  </g>
 </g>
 <defs>
  <clipPath id="p473918c2ce">
   <rect x="46.73" y="33.484375" width="230.47" height="201.66125"/>
  </clipPath>
 </defs>
</svg>
