<?xml version="1.0" encoding="utf-8" standalone="no"?>
<!DOCTYPE svg PUBLIC "-//W3C//DTD SVG 1.1//EN"
  "http://www.w3.org/Graphics/SVG/1.1/DTD/svg11.dtd">
<svg xmlns:xlink="http://www.w3.org/1999/xlink" width="288pt" height="288pt" viewBox="0 0 288 288" xmlns="http://www.w3.org/2000/svg" version="1.1">
 <metadata>
  <rdf:RDF xmlns:dc="http://purl.org/dc/elements/1.1/" xmlns:cc="http://creativecommons.org/ns#" xmlns:rdf="http://www.w3.org/1999/02/22-rdf-syntax-ns#">
   <cc:Work>
    <dc:type rdf:resource="http://purl.org/dc/dcmitype/StillImage"/>
    <dc:date>2024-02-13T04:36:44.442276</dc:date>
    <dc:format>image/svg+xml</dc:format>
    <dc:creator>
     <cc:Agent>
      <dc:title>Matplotlib v3.7.1, https://matplotlib.org/</dc:title>
     </cc:Agent>
    </dc:creator>
   </cc:Work>
  </rdf:RDF>
 </metadata>
 <defs>
  <style type="text/css">*{stroke-linejoin: round; stroke-linecap: butt}</style>
 </defs>
 <g id="figure_1">
  <g id="patch_1">
   <path d="M 0 288 
L 288 288 
L 288 0 
L 0 0 
z
" style="fill: #ffffff"/>
  </g>
  <g id="axes_1">
   <g id="patch_2">
    <path d="M 53.2325 237.7375 
L 270.9 237.7375 
L 270.9 20.07 
L 53.2325 20.07 
z
" style="fill: #ffffff"/>
   </g>
   <g id="PathCollection_1">
    <defs>
     <path id="mc7845b7cee" d="M 0 3 
C 0.795609 3 1.55874 2.683901 2.12132 2.12132 
C 2.683901 1.55874 3 0.795609 3 0 
C 3 -0.795609 2.683901 -1.55874 2.12132 -2.12132 
C 1.55874 -2.683901 0.795609 -3 0 -3 
C -0.795609 -3 -1.55874 -2.683901 -2.12132 -2.12132 
C -2.683901 -1.55874 -3 -0.795609 -3 0 
C -3 0.795609 -2.683901 1.55874 -2.12132 2.12132 
C -1.55874 2.683901 -0.795609 3 0 3 
z
" style="stroke: #000000"/>
    </defs>
    <g clip-path="url(#p49997d6238)">
     <use xlink:href="#mc7845b7cee" x="101.85035" y="189.11965" style="stroke: #000000"/>
     <use xlink:href="#mc7845b7cee" x="101.85035" y="128.90375" style="stroke: #000000"/>
     <use xlink:href="#mc7845b7cee" x="101.85035" y="68.68785" style="stroke: #000000"/>
     <use xlink:href="#mc7845b7cee" x="162.06625" y="189.11965" style="stroke: #000000"/>
     <use xlink:href="#mc7845b7cee" x="162.06625" y="128.90375" style="stroke: #000000"/>
     <use xlink:href="#mc7845b7cee" x="162.06625" y="68.68785" style="stroke: #000000"/>
     <use xlink:href="#mc7845b7cee" x="222.28215" y="189.11965" style="stroke: #000000"/>
     <use xlink:href="#mc7845b7cee" x="222.28215" y="128.90375" style="stroke: #000000"/>
     <use xlink:href="#mc7845b7cee" x="222.28215" y="68.68785" style="stroke: #000000"/>
    </g>
   </g>
   <g id="matplotlib.axis_1">
    <g id="xtick_1">
     <g id="line2d_1">
      <defs>
       <path id="md778ce255b" d="M 0 0 
L 0 3.5 
" style="stroke: #000000; stroke-width: 0.8"/>
      </defs>
      <g>
       <use xlink:href="#md778ce255b" x="53.2325" y="237.7375" style="stroke: #000000; stroke-width: 0.8"/>
      </g>
     </g>
     <g id="text_1">
      <!-- −0.2 -->
      <g transform="translate(43.312188 252.3375) scale(0.1 -0.1)">
       <defs>
        <path id="NotoSansMath-Regular-2212" d="M 326 2029 
L 326 2483 
L 3334 2483 
L 3334 2029 
L 326 2029 
z
" transform="scale(0.015625)"/>
        <path id="NotoSansMath-Regular-30" d="M 1824 -64 
Q 1050 -64 682 560 
Q 314 1184 314 2291 
Q 314 3034 464 3558 
Q 614 4083 947 4361 
Q 1280 4640 1824 4640 
Q 2592 4640 2969 4022 
Q 3347 3405 3347 2291 
Q 3347 1555 3193 1027 
Q 3040 499 2707 217 
Q 2374 -64 1824 -64 
z
M 1824 416 
Q 2336 416 2557 880 
Q 2778 1344 2778 2291 
Q 2778 3226 2557 3693 
Q 2336 4160 1824 4160 
Q 1306 4160 1091 3693 
Q 877 3226 877 2291 
Q 877 1350 1091 883 
Q 1306 416 1824 416 
z
" transform="scale(0.015625)"/>
        <path id="NotoSansMath-Regular-2e" d="M 851 -90 
Q 691 -90 576 12 
Q 461 115 461 346 
Q 461 582 576 678 
Q 691 774 851 774 
Q 1018 774 1136 678 
Q 1254 582 1254 346 
Q 1254 115 1136 12 
Q 1018 -90 851 -90 
z
" transform="scale(0.015625)"/>
        <path id="NotoSansMath-Regular-32" d="M 307 0 
L 307 467 
L 1504 1677 
Q 1850 2022 2086 2291 
Q 2323 2560 2444 2819 
Q 2566 3078 2566 3386 
Q 2566 3763 2342 3958 
Q 2118 4154 1760 4154 
Q 1427 4154 1174 4038 
Q 922 3923 659 3718 
L 358 4096 
Q 627 4320 976 4477 
Q 1325 4634 1760 4634 
Q 2400 4634 2771 4310 
Q 3142 3987 3142 3418 
Q 3142 3059 2995 2748 
Q 2848 2438 2585 2131 
Q 2323 1824 1971 1478 
L 1018 538 
L 1018 512 
L 3328 512 
L 3328 0 
L 307 0 
z
" transform="scale(0.015625)"/>
       </defs>
       <use xlink:href="#NotoSansMath-Regular-2212"/>
       <use xlink:href="#NotoSansMath-Regular-30" x="57.199997"/>
       <use xlink:href="#NotoSansMath-Regular-2e" x="114.399994"/>
       <use xlink:href="#NotoSansMath-Regular-32" x="141.199982"/>
      </g>
     </g>
    </g>
    <g id="xtick_2">
     <g id="line2d_2">
      <g>
       <use xlink:href="#md778ce255b" x="84.327857" y="237.7375" style="stroke: #000000; stroke-width: 0.8"/>
      </g>
     </g>
     <g id="text_2">
      <!-- 0.0 -->
      <g transform="translate(77.267701 252.3375) scale(0.1 -0.1)">
       <use xlink:href="#NotoSansMath-Regular-30"/>
       <use xlink:href="#NotoSansMath-Regular-2e" x="57.199997"/>
       <use xlink:href="#NotoSansMath-Regular-30" x="83.999985"/>
      </g>
     </g>
    </g>
    <g id="xtick_3">
     <g id="line2d_3">
      <g>
       <use xlink:href="#md778ce255b" x="115.423214" y="237.7375" style="stroke: #000000; stroke-width: 0.8"/>
      </g>
     </g>
     <g id="text_3">
      <!-- 0.2 -->
      <g transform="translate(108.363058 252.3375) scale(0.1 -0.1)">
       <use xlink:href="#NotoSansMath-Regular-30"/>
       <use xlink:href="#NotoSansMath-Regular-2e" x="57.199997"/>
       <use xlink:href="#NotoSansMath-Regular-32" x="83.999985"/>
      </g>
     </g>
    </g>
    <g id="xtick_4">
     <g id="line2d_4">
      <g>
       <use xlink:href="#md778ce255b" x="146.518571" y="237.7375" style="stroke: #000000; stroke-width: 0.8"/>
      </g>
     </g>
     <g id="text_4">
      <!-- 0.4 -->
      <g transform="translate(139.458415 252.3375) scale(0.1 -0.1)">
       <defs>
        <path id="NotoSansMath-Regular-34" d="M 2323 0 
L 2323 1037 
L 134 1037 
L 134 1517 
L 2285 4595 
L 2867 4595 
L 2867 1542 
L 3533 1542 
L 3533 1037 
L 2867 1037 
L 2867 0 
L 2323 0 
z
M 685 1542 
L 2323 1542 
L 2323 2982 
Q 2323 3315 2332 3548 
Q 2342 3782 2355 3994 
L 2330 3994 
Q 2278 3872 2201 3731 
Q 2125 3590 2054 3494 
L 685 1542 
z
" transform="scale(0.015625)"/>
       </defs>
       <use xlink:href="#NotoSansMath-Regular-30"/>
       <use xlink:href="#NotoSansMath-Regular-2e" x="57.199997"/>
       <use xlink:href="#NotoSansMath-Regular-34" x="83.999985"/>
      </g>
     </g>
    </g>
    <g id="xtick_5">
     <g id="line2d_5">
      <g>
       <use xlink:href="#md778ce255b" x="177.613929" y="237.7375" style="stroke: #000000; stroke-width: 0.8"/>
      </g>
     </g>
     <g id="text_5">
      <!-- 0.6 -->
      <g transform="translate(170.553772 252.3375) scale(0.1 -0.1)">
       <defs>
        <path id="NotoSansMath-Regular-36" d="M 1907 -64 
Q 1472 -64 1120 153 
Q 768 371 560 819 
Q 352 1267 352 1952 
Q 352 2445 438 2921 
Q 525 3398 752 3785 
Q 979 4173 1388 4403 
Q 1798 4634 2445 4634 
Q 2579 4634 2742 4621 
Q 2906 4608 3008 4576 
L 3008 4096 
Q 2893 4134 2749 4153 
Q 2605 4173 2458 4173 
Q 2016 4173 1721 4025 
Q 1427 3878 1257 3622 
Q 1088 3366 1011 3033 
Q 934 2701 915 2323 
L 954 2323 
Q 1101 2547 1363 2704 
Q 1626 2861 2035 2861 
Q 2630 2861 2995 2499 
Q 3360 2138 3360 1472 
Q 3360 755 2966 345 
Q 2573 -64 1907 -64 
z
M 1901 410 
Q 2304 410 2553 669 
Q 2803 928 2803 1472 
Q 2803 1907 2582 2163 
Q 2362 2419 1920 2419 
Q 1619 2419 1395 2294 
Q 1171 2170 1046 1978 
Q 922 1786 922 1581 
Q 922 1306 1030 1034 
Q 1139 762 1356 586 
Q 1574 410 1901 410 
z
" transform="scale(0.015625)"/>
       </defs>
       <use xlink:href="#NotoSansMath-Regular-30"/>
       <use xlink:href="#NotoSansMath-Regular-2e" x="57.199997"/>
       <use xlink:href="#NotoSansMath-Regular-36" x="83.999985"/>
      </g>
     </g>
    </g>
    <g id="xtick_6">
     <g id="line2d_6">
      <g>
       <use xlink:href="#md778ce255b" x="208.709286" y="237.7375" style="stroke: #000000; stroke-width: 0.8"/>
      </g>
     </g>
     <g id="text_6">
      <!-- 0.8 -->
      <g transform="translate(201.649129 252.3375) scale(0.1 -0.1)">
       <defs>
        <path id="NotoSansMath-Regular-38" d="M 1843 -64 
Q 1107 -64 710 259 
Q 314 582 314 1165 
Q 314 1478 445 1708 
Q 576 1939 793 2105 
Q 1011 2272 1261 2387 
Q 928 2579 694 2851 
Q 461 3123 461 3546 
Q 461 3898 640 4138 
Q 819 4378 1126 4506 
Q 1434 4634 1824 4634 
Q 2426 4634 2810 4352 
Q 3194 4070 3194 3539 
Q 3194 3264 3075 3059 
Q 2957 2854 2758 2697 
Q 2560 2541 2323 2419 
Q 2605 2285 2835 2115 
Q 3066 1946 3203 1722 
Q 3341 1498 3341 1184 
Q 3341 608 2934 272 
Q 2528 -64 1843 -64 
z
M 1850 2637 
Q 2182 2778 2409 2976 
Q 2637 3174 2637 3520 
Q 2637 3840 2413 4009 
Q 2189 4179 1818 4179 
Q 1466 4179 1238 4009 
Q 1011 3840 1011 3520 
Q 1011 3283 1123 3123 
Q 1235 2963 1427 2851 
Q 1619 2739 1850 2637 
z
M 1830 384 
Q 2298 384 2544 605 
Q 2790 826 2790 1178 
Q 2790 1510 2528 1731 
Q 2266 1952 1830 2118 
L 1728 2157 
Q 1306 1978 1085 1744 
Q 864 1510 864 1158 
Q 864 826 1101 605 
Q 1338 384 1830 384 
z
" transform="scale(0.015625)"/>
       </defs>
       <use xlink:href="#NotoSansMath-Regular-30"/>
       <use xlink:href="#NotoSansMath-Regular-2e" x="57.199997"/>
       <use xlink:href="#NotoSansMath-Regular-38" x="83.999985"/>
      </g>
     </g>
    </g>
    <g id="xtick_7">
     <g id="line2d_7">
      <g>
       <use xlink:href="#md778ce255b" x="239.804643" y="237.7375" style="stroke: #000000; stroke-width: 0.8"/>
      </g>
     </g>
     <g id="text_7">
      <!-- 1.0 -->
      <g transform="translate(232.744487 252.3375) scale(0.1 -0.1)">
       <defs>
        <path id="NotoSansMath-Regular-31" d="M 1722 0 
L 1722 3194 
Q 1722 3469 1728 3635 
Q 1734 3802 1747 3981 
Q 1645 3885 1561 3811 
Q 1478 3738 1350 3629 
L 864 3232 
L 570 3610 
L 1805 4570 
L 2272 4570 
L 2272 0 
L 1722 0 
z
" transform="scale(0.015625)"/>
       </defs>
       <use xlink:href="#NotoSansMath-Regular-31"/>
       <use xlink:href="#NotoSansMath-Regular-2e" x="57.199997"/>
       <use xlink:href="#NotoSansMath-Regular-30" x="83.999985"/>
      </g>
     </g>
    </g>
    <g id="xtick_8">
     <g id="line2d_8">
      <g>
       <use xlink:href="#md778ce255b" x="270.9" y="237.7375" style="stroke: #000000; stroke-width: 0.8"/>
      </g>
     </g>
     <g id="text_8">
      <!-- 1.2 -->
      <g transform="translate(263.839844 252.3375) scale(0.1 -0.1)">
       <use xlink:href="#NotoSansMath-Regular-31"/>
       <use xlink:href="#NotoSansMath-Regular-2e" x="57.199997"/>
       <use xlink:href="#NotoSansMath-Regular-32" x="83.999985"/>
      </g>
     </g>
    </g>
    <g id="text_9">
     <!-- $\xi_0$ -->
     <g transform="translate(157.66625 266.3375) scale(0.1 -0.1)">
      <defs>
       <path id="NotoSans-Italic-3be" d="M 1139 -1293 
Q 1421 -1043 1568 -860 
Q 1715 -678 1715 -474 
Q 1715 -288 1564 -189 
Q 1414 -90 1114 26 
Q 685 192 470 451 
Q 256 710 256 1146 
Q 256 1664 595 2041 
Q 934 2419 1581 2560 
L 1581 2579 
Q 1286 2669 1097 2861 
Q 909 3053 909 3379 
Q 909 3642 1046 3853 
Q 1184 4064 1421 4211 
Q 1658 4358 1939 4429 
Q 1779 4416 1638 4403 
Q 1498 4390 1293 4390 
L 1114 4390 
L 1216 4864 
L 3155 4864 
L 3059 4429 
L 3034 4429 
Q 2758 4429 2480 4365 
Q 2202 4301 1971 4176 
Q 1741 4051 1600 3862 
Q 1459 3674 1459 3424 
Q 1459 3110 1676 2937 
Q 1894 2765 2381 2765 
L 2675 2765 
L 2579 2330 
L 2336 2330 
Q 1958 2330 1612 2211 
Q 1267 2093 1049 1846 
Q 832 1600 832 1216 
Q 832 922 979 755 
Q 1126 589 1510 442 
Q 1702 371 1878 268 
Q 2054 166 2166 9 
Q 2278 -147 2278 -384 
Q 2278 -678 2115 -899 
Q 1952 -1120 1747 -1293 
L 1139 -1293 
z
" transform="scale(0.015625)"/>
      </defs>
      <use xlink:href="#NotoSans-Italic-3be"/>
      <use xlink:href="#NotoSansMath-Regular-30" transform="translate(44.699997 -16.078125) scale(0.7)"/>
     </g>
    </g>
   </g>
   <g id="matplotlib.axis_2">
    <g id="ytick_1">
     <g id="line2d_9">
      <defs>
       <path id="m281a3a3d94" d="M 0 0 
L -3.5 0 
" style="stroke: #000000; stroke-width: 0.8"/>
      </defs>
      <g>
       <use xlink:href="#m281a3a3d94" x="53.2325" y="237.7375" style="stroke: #000000; stroke-width: 0.8"/>
      </g>
     </g>
     <g id="text_10">
      <!-- −0.2 -->
      <g transform="translate(26.391875 241.5375) scale(0.1 -0.1)">
       <use xlink:href="#NotoSansMath-Regular-2212"/>
       <use xlink:href="#NotoSansMath-Regular-30" x="57.199997"/>
       <use xlink:href="#NotoSansMath-Regular-2e" x="114.399994"/>
       <use xlink:href="#NotoSansMath-Regular-32" x="141.199982"/>
      </g>
     </g>
    </g>
    <g id="ytick_2">
     <g id="line2d_10">
      <g>
       <use xlink:href="#m281a3a3d94" x="53.2325" y="206.642143" style="stroke: #000000; stroke-width: 0.8"/>
      </g>
     </g>
     <g id="text_11">
      <!-- 0.0 -->
      <g transform="translate(32.112188 210.442143) scale(0.1 -0.1)">
       <use xlink:href="#NotoSansMath-Regular-30"/>
       <use xlink:href="#NotoSansMath-Regular-2e" x="57.199997"/>
       <use xlink:href="#NotoSansMath-Regular-30" x="83.999985"/>
      </g>
     </g>
    </g>
    <g id="ytick_3">
     <g id="line2d_11">
      <g>
       <use xlink:href="#m281a3a3d94" x="53.2325" y="175.546786" style="stroke: #000000; stroke-width: 0.8"/>
      </g>
     </g>
     <g id="text_12">
      <!-- 0.2 -->
      <g transform="translate(32.112188 179.346786) scale(0.1 -0.1)">
       <use xlink:href="#NotoSansMath-Regular-30"/>
       <use xlink:href="#NotoSansMath-Regular-2e" x="57.199997"/>
       <use xlink:href="#NotoSansMath-Regular-32" x="83.999985"/>
      </g>
     </g>
    </g>
    <g id="ytick_4">
     <g id="line2d_12">
      <g>
       <use xlink:href="#m281a3a3d94" x="53.2325" y="144.451429" style="stroke: #000000; stroke-width: 0.8"/>
      </g>
     </g>
     <g id="text_13">
      <!-- 0.4 -->
      <g transform="translate(32.112188 148.251429) scale(0.1 -0.1)">
       <use xlink:href="#NotoSansMath-Regular-30"/>
       <use xlink:href="#NotoSansMath-Regular-2e" x="57.199997"/>
       <use xlink:href="#NotoSansMath-Regular-34" x="83.999985"/>
      </g>
     </g>
    </g>
    <g id="ytick_5">
     <g id="line2d_13">
      <g>
       <use xlink:href="#m281a3a3d94" x="53.2325" y="113.356071" style="stroke: #000000; stroke-width: 0.8"/>
      </g>
     </g>
     <g id="text_14">
      <!-- 0.6 -->
      <g transform="translate(32.112188 117.156071) scale(0.1 -0.1)">
       <use xlink:href="#NotoSansMath-Regular-30"/>
       <use xlink:href="#NotoSansMath-Regular-2e" x="57.199997"/>
       <use xlink:href="#NotoSansMath-Regular-36" x="83.999985"/>
      </g>
     </g>
    </g>
    <g id="ytick_6">
     <g id="line2d_14">
      <g>
       <use xlink:href="#m281a3a3d94" x="53.2325" y="82.260714" style="stroke: #000000; stroke-width: 0.8"/>
      </g>
     </g>
     <g id="text_15">
      <!-- 0.8 -->
      <g transform="translate(32.112188 86.060714) scale(0.1 -0.1)">
       <use xlink:href="#NotoSansMath-Regular-30"/>
       <use xlink:href="#NotoSansMath-Regular-2e" x="57.199997"/>
       <use xlink:href="#NotoSansMath-Regular-38" x="83.999985"/>
      </g>
     </g>
    </g>
    <g id="ytick_7">
     <g id="line2d_15">
      <g>
       <use xlink:href="#m281a3a3d94" x="53.2325" y="51.165357" style="stroke: #000000; stroke-width: 0.8"/>
      </g>
     </g>
     <g id="text_16">
      <!-- 1.0 -->
      <g transform="translate(32.112188 54.965357) scale(0.1 -0.1)">
       <use xlink:href="#NotoSansMath-Regular-31"/>
       <use xlink:href="#NotoSansMath-Regular-2e" x="57.199997"/>
       <use xlink:href="#NotoSansMath-Regular-30" x="83.999985"/>
      </g>
     </g>
    </g>
    <g id="ytick_8">
     <g id="line2d_16">
      <g>
       <use xlink:href="#m281a3a3d94" x="53.2325" y="20.07" style="stroke: #000000; stroke-width: 0.8"/>
      </g>
     </g>
     <g id="text_17">
      <!-- 1.2 -->
      <g transform="translate(32.112188 23.87) scale(0.1 -0.1)">
       <use xlink:href="#NotoSansMath-Regular-31"/>
       <use xlink:href="#NotoSansMath-Regular-2e" x="57.199997"/>
       <use xlink:href="#NotoSansMath-Regular-32" x="83.999985"/>
      </g>
     </g>
    </g>
    <g id="text_18">
     <!-- $\xi_1$ -->
     <g transform="translate(19.991875 133.30375) rotate(-90) scale(0.1 -0.1)">
      <use xlink:href="#NotoSans-Italic-3be"/>
      <use xlink:href="#NotoSansMath-Regular-31" transform="translate(44.699997 -16.078125) scale(0.7)"/>
     </g>
    </g>
   </g>
   <g id="line2d_17">
    <path d="M 84.327857 206.642143 
L 84.327857 205.07167 
L 84.327857 203.501198 
L 84.327857 201.930725 
L 84.327857 200.360253 
L 84.327857 198.78978 
L 84.327857 197.219307 
L 84.327857 195.648835 
L 84.327857 194.078362 
L 84.327857 192.50789 
L 84.327857 190.937417 
L 84.327857 189.366944 
L 84.327857 187.796472 
L 84.327857 186.225999 
L 84.327857 184.655527 
L 84.327857 183.085054 
L 84.327857 181.514582 
L 84.327857 179.944109 
L 84.327857 178.373636 
L 84.327857 176.803164 
L 84.327857 175.232691 
L 84.327857 173.662219 
L 84.327857 172.091746 
L 84.327857 170.521273 
L 84.327857 168.950801 
L 84.327857 167.380328 
L 84.327857 165.809856 
L 84.327857 164.239383 
L 84.327857 162.668911 
L 84.327857 161.098438 
L 84.327857 159.527965 
L 84.327857 157.957493 
L 84.327857 156.38702 
L 84.327857 154.816548 
L 84.327857 153.246075 
L 84.327857 151.675602 
L 84.327857 150.10513 
L 84.327857 148.534657 
L 84.327857 146.964185 
L 84.327857 145.393712 
L 84.327857 143.82324 
L 84.327857 142.252767 
L 84.327857 140.682294 
L 84.327857 139.111822 
L 84.327857 137.541349 
L 84.327857 135.970877 
L 84.327857 134.400404 
L 84.327857 132.829931 
L 84.327857 131.259459 
L 84.327857 129.688986 
L 84.327857 128.118514 
L 84.327857 126.548041 
L 84.327857 124.977569 
L 84.327857 123.407096 
L 84.327857 121.836623 
L 84.327857 120.266151 
L 84.327857 118.695678 
L 84.327857 117.125206 
L 84.327857 115.554733 
L 84.327857 113.98426 
L 84.327857 112.413788 
L 84.327857 110.843315 
L 84.327857 109.272843 
L 84.327857 107.70237 
L 84.327857 106.131898 
L 84.327857 104.561425 
L 84.327857 102.990952 
L 84.327857 101.42048 
L 84.327857 99.850007 
L 84.327857 98.279535 
L 84.327857 96.709062 
L 84.327857 95.138589 
L 84.327857 93.568117 
L 84.327857 91.997644 
L 84.327857 90.427172 
L 84.327857 88.856699 
L 84.327857 87.286227 
L 84.327857 85.715754 
L 84.327857 84.145281 
L 84.327857 82.574809 
L 84.327857 81.004336 
L 84.327857 79.433864 
L 84.327857 77.863391 
L 84.327857 76.292918 
L 84.327857 74.722446 
L 84.327857 73.151973 
L 84.327857 71.581501 
L 84.327857 70.011028 
L 84.327857 68.440556 
L 84.327857 66.870083 
L 84.327857 65.29961 
L 84.327857 63.729138 
L 84.327857 62.158665 
L 84.327857 60.588193 
L 84.327857 59.01772 
L 84.327857 57.447247 
L 84.327857 55.876775 
L 84.327857 54.306302 
L 84.327857 52.73583 
L 84.327857 51.165357 
" clip-path="url(#p49997d6238)" style="fill: none; stroke: #000000; stroke-width: 1.5; stroke-linecap: square"/>
   </g>
   <g id="line2d_18">
    <path d="M 84.327857 206.642143 
L 85.89833 206.642143 
L 87.468802 206.642143 
L 89.039275 206.642143 
L 90.609747 206.642143 
L 92.18022 206.642143 
L 93.750693 206.642143 
L 95.321165 206.642143 
L 96.891638 206.642143 
L 98.46211 206.642143 
L 100.032583 206.642143 
L 101.603056 206.642143 
L 103.173528 206.642143 
L 104.744001 206.642143 
L 106.314473 206.642143 
L 107.884946 206.642143 
L 109.455418 206.642143 
L 111.025891 206.642143 
L 112.596364 206.642143 
L 114.166836 206.642143 
L 115.737309 206.642143 
L 117.307781 206.642143 
L 118.878254 206.642143 
L 120.448727 206.642143 
L 122.019199 206.642143 
L 123.589672 206.642143 
L 125.160144 206.642143 
L 126.730617 206.642143 
L 128.301089 206.642143 
L 129.871562 206.642143 
L 131.442035 206.642143 
L 133.012507 206.642143 
L 134.58298 206.642143 
L 136.153452 206.642143 
L 137.723925 206.642143 
L 139.294398 206.642143 
L 140.86487 206.642143 
L 142.435343 206.642143 
L 144.005815 206.642143 
L 145.576288 206.642143 
L 147.14676 206.642143 
L 148.717233 206.642143 
L 150.287706 206.642143 
L 151.858178 206.642143 
L 153.428651 206.642143 
L 154.999123 206.642143 
L 156.569596 206.642143 
L 158.140069 206.642143 
L 159.710541 206.642143 
L 161.281014 206.642143 
L 162.851486 206.642143 
L 164.421959 206.642143 
L 165.992431 206.642143 
L 167.562904 206.642143 
L 169.133377 206.642143 
L 170.703849 206.642143 
L 172.274322 206.642143 
L 173.844794 206.642143 
L 175.415267 206.642143 
L 176.98574 206.642143 
L 178.556212 206.642143 
L 180.126685 206.642143 
L 181.697157 206.642143 
L 183.26763 206.642143 
L 184.838102 206.642143 
L 186.408575 206.642143 
L 187.979048 206.642143 
L 189.54952 206.642143 
L 191.119993 206.642143 
L 192.690465 206.642143 
L 194.260938 206.642143 
L 195.831411 206.642143 
L 197.401883 206.642143 
L 198.972356 206.642143 
L 200.542828 206.642143 
L 202.113301 206.642143 
L 203.683773 206.642143 
L 205.254246 206.642143 
L 206.824719 206.642143 
L 208.395191 206.642143 
L 209.965664 206.642143 
L 211.536136 206.642143 
L 213.106609 206.642143 
L 214.677082 206.642143 
L 216.247554 206.642143 
L 217.818027 206.642143 
L 219.388499 206.642143 
L 220.958972 206.642143 
L 222.529444 206.642143 
L 224.099917 206.642143 
L 225.67039 206.642143 
L 227.240862 206.642143 
L 228.811335 206.642143 
L 230.381807 206.642143 
L 231.95228 206.642143 
L 233.522753 206.642143 
L 235.093225 206.642143 
L 236.663698 206.642143 
L 238.23417 206.642143 
L 239.804643 206.642143 
" clip-path="url(#p49997d6238)" style="fill: none; stroke: #000000; stroke-width: 1.5; stroke-linecap: square"/>
   </g>
   <g id="line2d_19">
    <path d="M 239.804643 206.642143 
L 239.804643 205.07167 
L 239.804643 203.501198 
L 239.804643 201.930725 
L 239.804643 200.360253 
L 239.804643 198.78978 
L 239.804643 197.219307 
L 239.804643 195.648835 
L 239.804643 194.078362 
L 239.804643 192.50789 
L 239.804643 190.937417 
L 239.804643 189.366944 
L 239.804643 187.796472 
L 239.804643 186.225999 
L 239.804643 184.655527 
L 239.804643 183.085054 
L 239.804643 181.514582 
L 239.804643 179.944109 
L 239.804643 178.373636 
L 239.804643 176.803164 
L 239.804643 175.232691 
L 239.804643 173.662219 
L 239.804643 172.091746 
L 239.804643 170.521273 
L 239.804643 168.950801 
L 239.804643 167.380328 
L 239.804643 165.809856 
L 239.804643 164.239383 
L 239.804643 162.668911 
L 239.804643 161.098438 
L 239.804643 159.527965 
L 239.804643 157.957493 
L 239.804643 156.38702 
L 239.804643 154.816548 
L 239.804643 153.246075 
L 239.804643 151.675602 
L 239.804643 150.10513 
L 239.804643 148.534657 
L 239.804643 146.964185 
L 239.804643 145.393712 
L 239.804643 143.82324 
L 239.804643 142.252767 
L 239.804643 140.682294 
L 239.804643 139.111822 
L 239.804643 137.541349 
L 239.804643 135.970877 
L 239.804643 134.400404 
L 239.804643 132.829931 
L 239.804643 131.259459 
L 239.804643 129.688986 
L 239.804643 128.118514 
L 239.804643 126.548041 
L 239.804643 124.977569 
L 239.804643 123.407096 
L 239.804643 121.836623 
L 239.804643 120.266151 
L 239.804643 118.695678 
L 239.804643 117.125206 
L 239.804643 115.554733 
L 239.804643 113.98426 
L 239.804643 112.413788 
L 239.804643 110.843315 
L 239.804643 109.272843 
L 239.804643 107.70237 
L 239.804643 106.131898 
L 239.804643 104.561425 
L 239.804643 102.990952 
L 239.804643 101.42048 
L 239.804643 99.850007 
L 239.804643 98.279535 
L 239.804643 96.709062 
L 239.804643 95.138589 
L 239.804643 93.568117 
L 239.804643 91.997644 
L 239.804643 90.427172 
L 239.804643 88.856699 
L 239.804643 87.286227 
L 239.804643 85.715754 
L 239.804643 84.145281 
L 239.804643 82.574809 
L 239.804643 81.004336 
L 239.804643 79.433864 
L 239.804643 77.863391 
L 239.804643 76.292918 
L 239.804643 74.722446 
L 239.804643 73.151973 
L 239.804643 71.581501 
L 239.804643 70.011028 
L 239.804643 68.440556 
L 239.804643 66.870083 
L 239.804643 65.29961 
L 239.804643 63.729138 
L 239.804643 62.158665 
L 239.804643 60.588193 
L 239.804643 59.01772 
L 239.804643 57.447247 
L 239.804643 55.876775 
L 239.804643 54.306302 
L 239.804643 52.73583 
L 239.804643 51.165357 
" clip-path="url(#p49997d6238)" style="fill: none; stroke: #000000; stroke-width: 1.5; stroke-linecap: square"/>
   </g>
   <g id="line2d_20">
    <path d="M 84.327857 51.165357 
L 85.89833 51.165357 
L 87.468802 51.165357 
L 89.039275 51.165357 
L 90.609747 51.165357 
L 92.18022 51.165357 
L 93.750693 51.165357 
L 95.321165 51.165357 
L 96.891638 51.165357 
L 98.46211 51.165357 
L 100.032583 51.165357 
L 101.603056 51.165357 
L 103.173528 51.165357 
L 104.744001 51.165357 
L 106.314473 51.165357 
L 107.884946 51.165357 
L 109.455418 51.165357 
L 111.025891 51.165357 
L 112.596364 51.165357 
L 114.166836 51.165357 
L 115.737309 51.165357 
L 117.307781 51.165357 
L 118.878254 51.165357 
L 120.448727 51.165357 
L 122.019199 51.165357 
L 123.589672 51.165357 
L 125.160144 51.165357 
L 126.730617 51.165357 
L 128.301089 51.165357 
L 129.871562 51.165357 
L 131.442035 51.165357 
L 133.012507 51.165357 
L 134.58298 51.165357 
L 136.153452 51.165357 
L 137.723925 51.165357 
L 139.294398 51.165357 
L 140.86487 51.165357 
L 142.435343 51.165357 
L 144.005815 51.165357 
L 145.576288 51.165357 
L 147.14676 51.165357 
L 148.717233 51.165357 
L 150.287706 51.165357 
L 151.858178 51.165357 
L 153.428651 51.165357 
L 154.999123 51.165357 
L 156.569596 51.165357 
L 158.140069 51.165357 
L 159.710541 51.165357 
L 161.281014 51.165357 
L 162.851486 51.165357 
L 164.421959 51.165357 
L 165.992431 51.165357 
L 167.562904 51.165357 
L 169.133377 51.165357 
L 170.703849 51.165357 
L 172.274322 51.165357 
L 173.844794 51.165357 
L 175.415267 51.165357 
L 176.98574 51.165357 
L 178.556212 51.165357 
L 180.126685 51.165357 
L 181.697157 51.165357 
L 183.26763 51.165357 
L 184.838102 51.165357 
L 186.408575 51.165357 
L 187.979048 51.165357 
L 189.54952 51.165357 
L 191.119993 51.165357 
L 192.690465 51.165357 
L 194.260938 51.165357 
L 195.831411 51.165357 
L 197.401883 51.165357 
L 198.972356 51.165357 
L 200.542828 51.165357 
L 202.113301 51.165357 
L 203.683773 51.165357 
L 205.254246 51.165357 
L 206.824719 51.165357 
L 208.395191 51.165357 
L 209.965664 51.165357 
L 211.536136 51.165357 
L 213.106609 51.165357 
L 214.677082 51.165357 
L 216.247554 51.165357 
L 217.818027 51.165357 
L 219.388499 51.165357 
L 220.958972 51.165357 
L 222.529444 51.165357 
L 224.099917 51.165357 
L 225.67039 51.165357 
L 227.240862 51.165357 
L 228.811335 51.165357 
L 230.381807 51.165357 
L 231.95228 51.165357 
L 233.522753 51.165357 
L 235.093225 51.165357 
L 236.663698 51.165357 
L 238.23417 51.165357 
L 239.804643 51.165357 
" clip-path="url(#p49997d6238)" style="fill: none; stroke: #000000; stroke-width: 1.5; stroke-linecap: square"/>
   </g>
   <g id="PathCollection_2">
    <path d="M 239.804643 149.671157 
L 239.119346 150.10513 
L 238.23417 150.668079 
L 236.663698 151.666859 
L 236.649949 151.675602 
L 235.093225 152.669897 
L 234.191129 153.246075 
L 233.522753 153.674817 
L 231.95228 154.682226 
L 231.742884 154.816548 
L 230.381807 155.693423 
L 229.305214 156.38702 
L 228.811335 156.706589 
L 227.933107 157.274854 
" clip-path="url(#p49997d6238)" style="fill: none; stroke-dasharray: 5.55,2.4; stroke-dashoffset: 0; stroke: #1f77b4; stroke-width: 1.5"/>
    <path d="M 201.966439 174.493001 
L 200.878074 175.232691 
L 200.542828 175.461583 
L 198.972356 176.533837 
L 198.577887 176.803164 
L 197.401883 177.609799 
L 196.288275 178.373636 
L 195.831411 178.68846 
L 194.260938 179.770665 
L 194.009239 179.944109 
L 192.690465 180.857106 
L 191.740779 181.514582 
L 191.119993 181.94637 
L 189.54952 183.038712 
L 189.482894 183.085054 
L 187.979048 184.135977 
L 187.235585 184.655527 
L 186.408575 185.236193 
L 184.998851 186.225999 
L 184.838102 186.339402 
L 183.26763 187.447312 
L 182.772693 187.796472 
L 181.697157 188.558844 
L 180.557111 189.366944 
L 180.126685 189.673507 
L 178.556212 190.792045 
L 178.352104 190.937417 
L 176.98574 191.915273 
L 176.157672 192.50789 
L 175.415267 193.041774 
L 173.973816 194.078362 
L 173.844794 194.171597 
L 172.274322 195.306464 
L 171.800536 195.648835 
L 170.703849 196.445206 
L 169.637831 197.219307 
L 169.133377 197.587423 
L 167.562904 198.733444 
L 167.485702 198.78978 
L 165.992431 199.884845 
L 165.344149 200.360253 
L 164.421959 201.039881 
L 163.213171 201.930725 
L 162.851486 202.198606 
L 161.281014 203.361774 
L 161.092769 203.501198 
L 159.710541 204.530074 
L 158.982942 205.07167 
L 158.140069 205.702233 
L 156.88369 206.642143 
" clip-path="url(#p49997d6238)" style="fill: none; stroke-dasharray: 5.55,2.4; stroke-dashoffset: 0; stroke: #1f77b4; stroke-width: 1.5"/>
   </g>
   <g id="PathCollection_3">
    <path d="M 239.804643 100.408397 
L 238.23417 101.286797 
L 237.995162 101.42048 
L 236.663698 102.168013 
L 235.197923 102.990952 
L 235.093225 103.049957 
L 233.522753 103.935024 
L 232.41126 104.561425 
L 231.95228 104.821076 
L 230.381807 105.709515 
L 229.635172 106.131898 
L 228.872583 106.564955 
" clip-path="url(#p49997d6238)" style="fill: none; stroke: #1f77b4; stroke-width: 1.5"/>
    <path d="M 203.679074 121.117281 
L 202.455949 121.836623 
L 202.113301 122.038943 
L 200.542828 122.96624 
L 199.796193 123.407096 
L 198.972356 123.895478 
L 197.401883 124.826477 
L 197.147012 124.977569 
L 195.831411 125.760602 
L 194.508406 126.548041 
L 194.260938 126.695925 
L 192.690465 127.634416 
L 191.880376 128.118514 
L 191.119993 128.574744 
L 189.54952 129.517027 
L 189.262922 129.688986 
L 187.979048 130.462436 
L 186.656043 131.259459 
L 186.408575 131.40915 
L 184.838102 132.35911 
L 184.05974 132.829931 
L 183.26763 133.311029 
L 181.697157 134.264875 
L 181.474013 134.400404 
L 180.126685 135.22208 
L 178.898861 135.970877 
L 178.556212 136.180705 
L 176.98574 137.142417 
L 176.334284 137.541349 
L 175.415267 138.106459 
L 173.844794 139.072154 
L 173.780283 139.111822 
L 172.274322 140.041698 
L 171.236858 140.682294 
L 170.703849 141.012782 
L 169.133377 141.986541 
L 168.704008 142.252767 
L 167.562904 142.963266 
L 166.181734 143.82324 
L 165.992431 143.941604 
L 164.421959 144.923562 
L 163.670036 145.393712 
L 162.851486 145.907685 
L 161.281014 146.893796 
L 161.168913 146.964185 
L 159.710541 147.883795 
L 158.678365 148.534657 
L 158.140069 148.87554 
L 156.569596 149.870061 
L 156.198393 150.10513 
L 154.999123 150.867835 
L 153.728997 151.675602 
L 153.428651 151.867437 
L 151.858178 152.870513 
L 151.270176 153.246075 
L 150.287706 153.876299 
L 148.821931 154.816548 
L 148.717233 154.884 
L 147.14676 155.895779 
L 146.384262 156.38702 
L 145.576288 156.909827 
L 144.005815 157.926015 
L 143.957168 157.957493 
L 142.435343 158.946512 
L 141.540649 159.527965 
L 140.86487 159.969078 
L 139.294398 160.9942 
L 139.134706 161.098438 
L 137.723925 162.023387 
L 136.739339 162.668911 
L 136.153452 163.054738 
L 134.58298 164.088952 
L 134.354547 164.239383 
L 133.012507 165.127102 
L 131.980331 165.809856 
L 131.442035 166.167516 
L 129.871562 167.210984 
L 129.616691 167.380328 
L 128.301089 168.258381 
L 127.263626 168.950801 
L 126.730617 169.308145 
L 125.160144 170.361036 
L 124.921136 170.521273 
L 123.589672 171.417974 
L 122.589223 172.091746 
L 122.019199 172.477388 
L 120.448727 173.539872 
L 120.267884 173.662219 
L 118.878254 174.606658 
L 117.957122 175.232691 
L 117.307781 175.676034 
L 115.737309 176.748287 
L 115.656934 176.803164 
L 114.166836 177.82524 
L 113.367323 178.373636 
L 112.596364 178.904901 
L 111.088287 179.944109 
L 111.025891 179.987306 
L 109.455418 181.074556 
L 108.819827 181.514582 
L 107.884946 182.164838 
L 106.561942 183.085054 
L 106.314473 183.257991 
L 104.744001 184.355474 
L 104.314632 184.655527 
L 103.173528 185.456728 
L 102.077899 186.225999 
L 101.603056 186.560984 
L 100.032583 187.668894 
L 99.851741 187.796472 
L 98.46211 188.781484 
L 97.636158 189.366944 
L 96.891638 189.897214 
L 95.431151 190.937417 
L 95.321165 191.01613 
L 93.750693 192.140058 
L 93.23672 192.50789 
L 92.18022 193.267649 
L 91.052864 194.078362 
L 90.609747 194.39857 
L 89.039275 195.533438 
L 88.879584 195.648835 
L 87.468802 196.67329 
L 86.716879 197.219307 
L 85.89833 197.816627 
L 84.56475 198.78978 
L 84.327857 198.963501 
" clip-path="url(#p49997d6238)" style="fill: none; stroke: #1f77b4; stroke-width: 1.5"/>
   </g>
   <g id="PathCollection_4">
    <path d="M 239.804643 56.377614 
L 238.23417 57.172214 
L 237.690586 57.447247 
L 236.663698 57.968591 
L 235.093225 58.765908 
L 234.597231 59.01772 
L 233.522753 59.565096 
L 231.95228 60.365148 
L 231.514451 60.588193 
L 230.381807 61.167186 
L 228.811335 61.969992 
L 228.442247 62.158665 
L 227.624083 62.578345 
" clip-path="url(#p49997d6238)" style="fill: none; stroke: #1f77b4; stroke-width: 1.5"/>
    <path d="M 201.77078 76.027851 
L 201.268313 76.292918 
L 200.542828 76.676998 
L 198.972356 77.508425 
L 198.301864 77.863391 
L 197.401883 78.341556 
L 195.831411 79.175958 
L 195.345992 79.433864 
L 194.260938 80.012429 
L 192.690465 80.849827 
L 192.400695 81.004336 
L 191.119993 81.689685 
L 189.54952 82.5301 
L 189.465973 82.574809 
L 187.979048 83.373393 
L 186.541827 84.145281 
L 186.408575 84.217107 
L 184.838102 85.063623 
L 183.628257 85.715754 
L 183.26763 85.910847 
L 181.697157 86.760447 
L 180.725262 87.286227 
L 180.126685 87.611231 
L 178.556212 88.463937 
L 177.832843 88.856699 
L 176.98574 89.318332 
L 175.415267 90.174167 
L 174.950999 90.427172 
L 173.844794 91.032223 
L 172.274322 91.891211 
L 172.079731 91.997644 
L 170.703849 92.752981 
L 169.219039 93.568117 
L 169.133377 93.615318 
L 167.562904 94.480681 
L 166.368922 95.138589 
L 165.992431 95.346816 
L 164.421959 96.215401 
L 163.529381 96.709062 
L 162.851486 97.085388 
L 161.281014 97.957221 
L 160.700415 98.279535 
L 159.710541 98.831115 
L 158.140069 99.706219 
L 157.882025 99.850007 
L 156.569596 100.584077 
L 155.07421 101.42048 
L 154.999123 101.462636 
L 153.428651 102.344357 
L 152.276971 102.990952 
L 151.858178 103.22697 
L 150.287706 104.112037 
L 149.490307 104.561425 
L 148.717233 104.998764 
L 147.14676 105.887203 
L 146.71422 106.131898 
L 145.576288 106.778103 
L 144.005815 107.66994 
L 143.948707 107.70237 
L 142.435343 108.565075 
L 141.19377 109.272843 
L 140.86487 109.461057 
L 139.294398 110.359767 
L 138.449409 110.843315 
L 137.723925 111.260083 
L 136.153452 112.162269 
L 135.715624 112.413788 
L 134.58298 113.066982 
L 133.012507 113.972673 
L 132.992414 113.98426 
L 131.442035 114.881848 
L 130.279779 115.554733 
L 129.871562 115.791994 
L 128.301089 116.704774 
L 127.57772 117.125206 
L 126.730617 117.619488 
L 125.160144 118.535854 
L 124.886237 118.695678 
L 123.589672 119.455205 
L 122.205329 120.266151 
L 122.019199 120.375617 
L 120.448727 121.299242 
L 119.534997 121.836623 
L 118.878254 122.224402 
L 117.307781 123.151699 
L 116.87524 123.407096 
L 115.737309 124.081678 
L 114.226059 124.977569 
L 114.166836 125.012818 
L 112.596364 125.947548 
L 111.587454 126.548041 
L 111.025891 126.883623 
L 109.455418 127.822115 
L 108.959424 128.118514 
L 107.884946 128.763201 
L 106.34197 129.688986 
L 106.314473 129.705551 
L 104.744001 130.651657 
L 103.735091 131.259459 
L 103.173528 131.599142 
L 101.603056 132.549102 
L 101.138788 132.829931 
L 100.032583 133.501798 
L 98.55306 134.400404 
L 98.46211 134.45587 
L 96.891638 135.413633 
L 95.977908 135.970877 
L 95.321165 136.373047 
L 93.750693 137.334759 
L 93.413332 137.541349 
L 92.18022 138.299598 
L 90.859331 139.111822 
L 90.609747 139.265931 
L 89.039275 140.23564 
L 88.315906 140.682294 
L 87.468802 141.207534 
L 85.89833 142.181292 
L 85.783056 142.252767 
L 84.327857 143.158834 
" clip-path="url(#p49997d6238)" style="fill: none; stroke: #1f77b4; stroke-width: 1.5"/>
   </g>
   <g id="PathCollection_5">
    <path d="M 167.24881 51.165357 
L 165.992431 51.794606 
L 164.421959 52.581166 
L 164.113152 52.73583 
L 162.851486 53.369865 
L 161.281014 54.159087 
L 160.98807 54.306302 
L 159.710541 54.950489 
L 158.140069 55.742391 
L 157.873564 55.876775 
L 156.569596 56.536534 
L 155.470906 57.09243 
" clip-path="url(#p49997d6238)" style="fill: none; stroke: #1f77b4; stroke-width: 1.5"/>
    <path d="M 129.43985 70.469869 
L 128.301089 71.064266 
L 127.310158 71.581501 
L 126.730617 71.88507 
L 125.160144 72.707699 
L 124.311983 73.151973 
L 123.589672 73.531666 
L 122.019199 74.357207 
L 121.324384 74.722446 
L 120.448727 75.184382 
L 118.878254 76.012856 
L 118.34736 76.292918 
L 117.307781 76.843284 
L 115.737309 77.67471 
L 115.380912 77.863391 
L 114.166836 78.508437 
L 112.596364 79.342838 
L 112.425039 79.433864 
L 111.025891 80.179909 
L 109.479742 81.004336 
L 109.455418 81.017353 
L 107.884946 81.857768 
L 106.545021 82.574809 
L 106.314473 82.698629 
L 104.744001 83.542084 
L 103.620875 84.145281 
L 103.173528 84.38641 
L 101.603056 85.232926 
L 100.707305 85.715754 
L 100.032583 86.080767 
L 98.46211 86.930367 
L 97.80431 87.286227 
L 96.891638 87.781772 
L 95.321165 88.634479 
L 94.911891 88.856699 
L 93.750693 89.489499 
L 92.18022 90.345334 
L 92.030047 90.427172 
L 90.609747 91.204021 
L 89.158779 91.997644 
L 89.039275 92.06325 
L 87.468802 92.925413 
L 86.298086 93.568117 
L 85.89833 93.788391 
L 84.327857 94.653753 
" clip-path="url(#p49997d6238)" style="fill: none; stroke: #1f77b4; stroke-width: 1.5"/>
   </g>
   <g id="PathCollection_6">
    <path d="M 138.744732 206.642143 
L 137.723925 205.417174 
L 137.43673 205.07167 
L 136.153452 203.513685 
L 136.143193 203.501198 
L 134.864012 201.930725 
L 134.58298 201.58249 
L 133.599079 200.360253 
L 133.012507 199.62474 
L 132.348287 198.78978 
L 131.442035 197.639757 
L 131.111532 197.219307 
L 130.811425 196.83388 
" clip-path="url(#p49997d6238)" style="fill: none; stroke: #ff7f0e; stroke-width: 1.5"/>
    <path d="M 113.727305 172.975431 
L 113.150162 172.091746 
L 112.596364 171.234384 
L 112.136841 170.521273 
L 111.135824 168.950801 
L 111.025891 168.776567 
L 110.147023 167.380328 
L 109.455418 166.269009 
L 109.170352 165.809856 
L 108.205723 164.239383 
L 107.884946 163.711411 
L 107.253053 162.668911 
L 106.314473 161.102148 
L 106.312256 161.098438 
L 105.383249 159.527965 
L 104.744001 158.434311 
L 104.46595 157.957493 
L 103.560275 156.38702 
L 103.173528 155.708628 
L 102.666145 154.816548 
L 101.783477 153.246075 
L 101.603056 152.921467 
L 100.912193 151.675602 
L 100.052214 150.10513 
L 100.032583 150.068888 
L 99.20346 148.534657 
L 98.46211 147.145027 
L 98.365856 146.964185 
L 97.539322 145.393712 
L 96.891638 144.147063 
L 96.723785 143.82324 
L 95.919167 142.252767 
L 95.321165 141.070293 
L 95.125394 140.682294 
L 94.342392 139.111822 
L 93.750693 137.909247 
L 93.570088 137.541349 
L 92.808409 135.970877 
L 92.18022 134.657932 
L 92.057283 134.400404 
L 91.316637 132.829931 
L 90.609747 131.309775 
L 90.586403 131.259459 
L 89.866508 129.688986 
L 89.156884 128.118514 
L 89.039275 127.854927 
L 88.457462 126.548041 
L 87.768174 124.977569 
L 87.468802 124.286237 
L 87.088951 123.407096 
L 86.419727 121.836623 
L 85.89833 120.595202 
L 85.760435 120.266151 
L 85.111009 118.695678 
L 84.471384 117.125206 
L 84.327857 116.767966 
" clip-path="url(#p49997d6238)" style="fill: none; stroke: #ff7f0e; stroke-width: 1.5"/>
   </g>
   <g id="PathCollection_7">
    <path d="M 193.161607 206.642143 
L 192.690465 206.130986 
L 191.716535 205.07167 
L 191.119993 204.417451 
L 190.286616 203.501198 
L 189.54952 202.684027 
L 188.871737 201.930725 
L 187.979048 200.930211 
L 187.471785 200.360253 
L 186.408575 199.155482 
L 186.086648 198.78978 
L 184.898224 197.428185 
" clip-path="url(#p49997d6238)" style="fill: none; stroke: #ff7f0e; stroke-width: 1.5"/>
    <path d="M 166.594318 174.664836 
L 165.992431 173.851899 
L 165.852332 173.662219 
L 164.702991 172.091746 
L 164.421959 171.704052 
L 163.566632 170.521273 
L 162.851486 169.522453 
L 162.443163 168.950801 
L 161.332492 167.380328 
L 161.281014 167.306862 
L 160.234528 165.809856 
L 159.710541 165.052587 
L 159.149181 164.239383 
L 158.140069 162.762378 
L 158.076361 162.668911 
L 157.01598 161.098438 
L 156.569596 160.430434 
L 155.96795 159.527965 
L 154.999123 158.05921 
L 154.932185 157.957493 
L 153.908599 156.38702 
L 153.428651 155.642753 
L 152.897106 154.816548 
L 151.897623 153.246075 
L 151.858178 153.183488 
L 150.910065 151.675602 
L 150.287706 150.674719 
L 149.934349 150.10513 
L 148.970395 148.534657 
L 148.717233 148.117855 
L 148.018119 146.964185 
L 147.14676 145.509685 
L 147.077443 145.393712 
L 146.148286 143.82324 
L 145.576288 142.845235 
L 145.230568 142.252767 
L 144.324212 140.682294 
L 144.005815 140.124463 
L 143.429141 139.111822 
L 142.545276 137.541349 
L 142.435343 137.343918 
L 141.672542 135.970877 
L 140.86487 134.499045 
L 140.810863 134.400404 
L 139.960164 132.829931 
L 139.294398 131.585481 
L 139.120372 131.259459 
L 138.291413 129.688986 
L 137.723925 128.600486 
L 137.473213 128.118514 
L 136.6657 126.548041 
L 136.153452 125.539341 
L 135.868804 124.977569 
L 135.082453 123.407096 
L 134.58298 122.3969 
L 134.306577 121.836623 
L 133.541105 120.266151 
L 133.012507 119.167544 
L 132.78597 118.695678 
L 132.041102 117.125206 
L 131.442035 115.845122 
L 131.306434 115.554733 
L 130.581899 113.98426 
L 129.871562 112.422892 
L 129.867429 112.413788 
L 129.162959 110.843315 
L 128.468424 109.272843 
L 128.301089 108.889647 
L 127.783757 107.70237 
L 127.108896 106.131898 
L 126.730617 105.239547 
L 126.443776 104.561425 
L 125.788333 102.990952 
L 125.160144 101.463461 
L 125.142506 101.42048 
L 124.506232 99.850007 
L 123.879449 98.279535 
L 123.589672 97.543215 
L 123.262097 96.709062 
L 122.654114 95.138589 
L 122.055441 93.568117 
L 122.019199 93.471747 
L 121.466018 91.997644 
L 120.885786 90.427172 
L 120.448727 89.225898 
L 120.314686 88.856699 
L 119.752661 87.286227 
L 119.199653 85.715754 
L 118.878254 84.788792 
L 118.655605 84.145281 
L 118.12046 82.574809 
L 117.594162 81.004336 
L 117.307781 80.136075 
L 117.076655 79.433864 
L 116.567885 77.863391 
L 116.067797 76.292918 
L 115.737309 75.237561 
L 115.576335 74.722446 
L 115.093448 73.151973 
L 114.61908 71.581501 
L 114.166836 70.057154 
L 114.15318 70.011028 
L 113.695694 68.440556 
L 113.246572 66.870083 
L 112.80576 65.29961 
L 112.596364 64.540158 
L 112.373208 63.729138 
L 111.948866 62.158665 
L 111.532682 60.588193 
L 111.124606 59.01772 
L 111.025891 58.630756 
L 110.724591 57.447247 
L 110.332585 55.876775 
L 109.94854 54.306302 
L 109.572409 52.73583 
L 109.455418 52.237611 
L 109.204143 51.165357 
" clip-path="url(#p49997d6238)" style="fill: none; stroke: #ff7f0e; stroke-width: 1.5"/>
   </g>
   <g id="PathCollection_8">
    <path d="M 239.804643 198.768568 
L 238.320898 197.219307 
L 238.23417 197.128039 
L 236.832046 195.648835 
L 236.663698 195.469826 
L 235.35834 194.078362 
L 235.093225 193.793505 
L 233.899666 192.50789 
L 233.522753 192.09864 
L 232.455914 190.937417 
L 232.161326 190.614166 
" clip-path="url(#p49997d6238)" style="fill: none; stroke: #ff7f0e; stroke-width: 1.5"/>
    <path d="M 213.305005 168.383804 
L 213.106609 168.1313 
L 212.517962 167.380328 
L 211.536136 166.116266 
L 211.298705 165.809856 
L 210.092638 164.239383 
L 209.965664 164.072581 
L 208.899668 162.668911 
L 208.395191 161.998383 
L 207.719703 161.098438 
L 206.824719 159.89474 
L 206.552651 159.527965 
L 205.398421 157.957493 
L 205.254246 157.759543 
L 204.256923 156.38702 
L 203.683773 155.590566 
L 203.128068 154.816548 
L 202.113301 153.38922 
L 202.011768 153.246075 
L 200.907936 151.675602 
L 200.542828 151.151065 
L 199.816485 150.10513 
L 198.972356 148.877306 
L 198.737329 148.534657 
L 197.670383 146.964185 
L 197.401883 146.565113 
L 196.615564 145.393712 
L 195.831411 144.213412 
L 195.572787 143.82324 
L 194.54197 142.252767 
L 194.260938 141.820334 
L 193.523031 140.682294 
L 192.690465 139.384559 
L 192.515889 139.111822 
L 191.520463 137.541349 
L 191.119993 136.902918 
L 190.536674 135.970877 
L 189.564443 134.400404 
L 189.54952 134.376065 
L 188.603692 132.829931 
L 187.979048 131.797404 
L 187.654342 131.259459 
L 186.716317 129.688986 
L 186.408575 129.168282 
L 185.789541 128.118514 
L 184.873939 126.548041 
L 184.838102 126.485953 
L 183.969435 124.977569 
L 183.26763 123.744594 
L 183.075955 123.407096 
L 182.193427 121.836623 
L 181.697157 120.943339 
L 181.321776 120.266151 
L 180.460931 118.695678 
L 180.126685 118.079027 
L 179.610821 117.125206 
L 178.771374 115.554733 
L 178.556212 115.147719 
L 177.94252 113.98426 
L 177.124189 112.413788 
L 176.98574 112.145137 
L 176.316313 110.843315 
L 175.518822 109.272843 
L 175.415267 109.066633 
L 174.731649 107.70237 
L 173.954727 106.131898 
L 173.844794 105.907145 
L 173.187989 104.561425 
L 172.431369 102.990952 
L 172.274322 102.661153 
L 171.684801 101.42048 
L 170.94822 99.850007 
L 170.703849 99.322621 
L 170.221562 98.279535 
L 169.504763 96.709062 
L 169.133377 95.884938 
L 168.79776 95.138589 
L 168.100489 93.568117 
L 167.562904 92.34085 
L 167.412889 91.997644 
L 166.734897 90.427172 
L 166.066454 88.856699 
L 165.992431 88.680616 
L 165.407497 87.286227 
L 164.757967 85.715754 
L 164.421959 84.892273 
L 164.117804 84.145281 
L 163.486949 82.574809 
L 162.865343 81.004336 
L 162.851486 80.968874 
L 162.252929 79.433864 
L 161.649648 77.863391 
L 161.281014 76.889872 
L 161.055443 76.292918 
L 160.470257 74.722446 
L 159.894035 73.151973 
L 159.710541 72.644729 
L 159.32672 71.581501 
L 158.768258 70.011028 
L 158.218592 68.440556 
L 158.140069 68.212978 
L 157.67767 66.870083 
L 157.145436 65.29961 
L 156.621838 63.729138 
L 156.569596 63.570127 
L 156.106821 62.158665 
L 155.600335 60.588193 
L 155.102326 59.01772 
L 154.999123 58.687202 
L 154.612742 57.447247 
L 154.131533 55.876775 
L 153.658647 54.306302 
L 153.428651 53.529671 
L 153.194034 52.73583 
L 152.737643 51.165357 
" clip-path="url(#p49997d6238)" style="fill: none; stroke: #ff7f0e; stroke-width: 1.5"/>
   </g>
   <g id="PathCollection_9">
    <path d="M 239.804643 136.55098 
L 239.400807 135.970877 
L 238.318024 134.400404 
L 238.23417 134.277678 
L 237.247219 132.829931 
L 236.663698 131.965384 
L 236.188311 131.259459 
L 235.141222 129.688986 
L 235.093225 129.616339 
L 234.10587 128.118514 
L 233.522753 127.224801 
L 233.377417 127.001555 
" clip-path="url(#p49997d6238)" style="fill: none; stroke: #ff7f0e; stroke-width: 1.5"/>
    <path d="M 218.482068 101.893066 
L 218.227096 101.42048 
L 217.818027 100.653682 
L 217.390208 99.850007 
L 216.563675 98.279535 
L 216.247554 97.672112 
L 215.747429 96.709062 
L 214.941405 95.138589 
L 214.677082 94.617749 
L 214.145537 93.568117 
L 213.35976 91.997644 
L 213.106609 91.485887 
L 212.584009 90.427172 
L 211.818221 88.856699 
L 211.536136 88.271404 
L 211.062333 87.286227 
L 210.316281 85.715754 
L 209.965664 84.968718 
L 209.580003 84.145281 
L 208.853439 82.574809 
L 208.395191 81.571733 
L 208.136525 81.004336 
L 207.429202 79.433864 
L 206.824719 78.073775 
L 206.73141 77.863391 
L 206.043089 76.292918 
L 205.364179 74.722446 
L 205.254246 74.465042 
L 204.694622 73.151973 
L 204.03436 71.581501 
L 203.683773 70.736586 
L 203.383335 70.011028 
L 202.74149 68.440556 
L 202.113301 66.881358 
L 202.108768 66.870083 
L 201.485112 65.29961 
L 200.870467 63.729138 
L 200.542828 62.880414 
L 200.264777 62.158665 
L 199.667988 60.588193 
L 199.080045 59.01772 
L 198.972356 58.726185 
L 198.500894 57.447247 
L 197.930481 55.876775 
L 197.401883 54.399103 
L 197.368753 54.306302 
L 196.815658 52.73583 
L 196.271143 51.165357 
" clip-path="url(#p49997d6238)" style="fill: none; stroke: #ff7f0e; stroke-width: 1.5"/>
   </g>
   <g id="patch_3">
    <path d="M 53.2325 237.7375 
L 53.2325 20.07 
" style="fill: none; stroke: #000000; stroke-width: 0.8; stroke-linejoin: miter; stroke-linecap: square"/>
   </g>
   <g id="patch_4">
    <path d="M 270.9 237.7375 
L 270.9 20.07 
" style="fill: none; stroke: #000000; stroke-width: 0.8; stroke-linejoin: miter; stroke-linecap: square"/>
   </g>
   <g id="patch_5">
    <path d="M 53.2325 237.7375 
L 270.9 237.7375 
" style="fill: none; stroke: #000000; stroke-width: 0.8; stroke-linejoin: miter; stroke-linecap: square"/>
   </g>
   <g id="patch_6">
    <path d="M 53.2325 20.07 
L 270.9 20.07 
" style="fill: none; stroke: #000000; stroke-width: 0.8; stroke-linejoin: miter; stroke-linecap: square"/>
   </g>
   <g id="text_19">
    <g clip-path="url(#p49997d6238)">
     <!-- $x_0$ = -0.14 -->
     <g style="fill: #1f77b4" transform="translate(201.136885 177.534864) rotate(-33.546083) scale(0.0833 -0.0833)">
      <defs>
       <path id="NotoSans-Italic-78" d="M -237 0 
L 1248 1766 
L 506 3430 
L 1075 3430 
L 1606 2163 
L 2611 3430 
L 3264 3430 
L 1837 1741 
L 2624 0 
L 2054 0 
L 1472 1331 
L 416 0 
L -237 0 
z
" transform="scale(0.015625)"/>
       <path id="NotoSansMath-Regular-20" transform="scale(0.015625)"/>
       <path id="NotoSansMath-Regular-3d" d="M 365 2662 
L 365 3117 
L 3296 3117 
L 3296 2662 
L 365 2662 
z
M 365 1389 
L 365 1843 
L 3296 1843 
L 3296 1389 
L 365 1389 
z
" transform="scale(0.015625)"/>
       <path id="NotoSansMath-Regular-2d" d="M 256 1466 
L 256 1965 
L 1805 1965 
L 1805 1466 
L 256 1466 
z
" transform="scale(0.015625)"/>
      </defs>
      <use xlink:href="#NotoSans-Italic-78" transform="translate(0 0.5)"/>
      <use xlink:href="#NotoSansMath-Regular-30" transform="translate(48.299988 -15.578125) scale(0.7)"/>
      <use xlink:href="#NotoSansMath-Regular-20" transform="translate(91.019673 0.5)"/>
      <use xlink:href="#NotoSansMath-Regular-3d" transform="translate(117.019658 0.5)"/>
      <use xlink:href="#NotoSansMath-Regular-20" transform="translate(174.219655 0.5)"/>
      <use xlink:href="#NotoSansMath-Regular-2d" transform="translate(200.21964 0.5)"/>
      <use xlink:href="#NotoSansMath-Regular-30" transform="translate(232.419637 0.5)"/>
      <use xlink:href="#NotoSansMath-Regular-2e" transform="translate(289.619633 0.5)"/>
      <use xlink:href="#NotoSansMath-Regular-31" transform="translate(316.419621 0.5)"/>
      <use xlink:href="#NotoSansMath-Regular-34" transform="translate(373.619618 0.5)"/>
     </g>
    </g>
   </g>
   <g id="text_20">
    <g clip-path="url(#p49997d6238)">
     <!-- $x_0$ = 0.02 -->
     <g style="fill: #1f77b4" transform="translate(202.94055 123.978973) rotate(-30.011303) scale(0.0833 -0.0833)">
      <use xlink:href="#NotoSans-Italic-78" transform="translate(0 0.5)"/>
      <use xlink:href="#NotoSansMath-Regular-30" transform="translate(48.299988 -15.578125) scale(0.7)"/>
      <use xlink:href="#NotoSansMath-Regular-20" transform="translate(91.019673 0.5)"/>
      <use xlink:href="#NotoSansMath-Regular-3d" transform="translate(117.019658 0.5)"/>
      <use xlink:href="#NotoSansMath-Regular-20" transform="translate(174.219655 0.5)"/>
      <use xlink:href="#NotoSansMath-Regular-30" transform="translate(200.21964 0.5)"/>
      <use xlink:href="#NotoSansMath-Regular-2e" transform="translate(257.419637 0.5)"/>
      <use xlink:href="#NotoSansMath-Regular-30" transform="translate(284.219624 0.5)"/>
      <use xlink:href="#NotoSansMath-Regular-32" transform="translate(341.419621 0.5)"/>
     </g>
    </g>
   </g>
   <g id="text_21">
    <g clip-path="url(#p49997d6238)">
     <!-- $x_0$ = 0.18 -->
     <g style="fill: #1f77b4" transform="translate(200.933895 78.854357) rotate(-27.484559) scale(0.0833 -0.0833)">
      <use xlink:href="#NotoSans-Italic-78" transform="translate(0 0.5)"/>
      <use xlink:href="#NotoSansMath-Regular-30" transform="translate(48.299988 -15.578125) scale(0.7)"/>
      <use xlink:href="#NotoSansMath-Regular-20" transform="translate(91.019673 0.5)"/>
      <use xlink:href="#NotoSansMath-Regular-3d" transform="translate(117.019658 0.5)"/>
      <use xlink:href="#NotoSansMath-Regular-20" transform="translate(174.219655 0.5)"/>
      <use xlink:href="#NotoSansMath-Regular-30" transform="translate(200.21964 0.5)"/>
      <use xlink:href="#NotoSansMath-Regular-2e" transform="translate(257.419637 0.5)"/>
      <use xlink:href="#NotoSansMath-Regular-31" transform="translate(284.219624 0.5)"/>
      <use xlink:href="#NotoSansMath-Regular-38" transform="translate(341.419621 0.5)"/>
     </g>
    </g>
   </g>
   <g id="text_22">
    <g clip-path="url(#p49997d6238)">
     <!-- $x_0$ = 0.34 -->
     <g style="fill: #1f77b4" transform="translate(128.644357 73.263683) rotate(-27.197979) scale(0.0833 -0.0833)">
      <defs>
       <path id="NotoSansMath-Regular-33" d="M 1542 -64 
Q 1184 -64 877 -9 
Q 570 45 288 186 
L 288 710 
Q 576 570 909 490 
Q 1242 410 1549 410 
Q 2163 410 2435 650 
Q 2707 890 2707 1312 
Q 2707 1741 2371 1929 
Q 2035 2118 1427 2118 
L 986 2118 
L 986 2598 
L 1434 2598 
Q 1997 2598 2288 2835 
Q 2579 3072 2579 3462 
Q 2579 3795 2355 3977 
Q 2131 4160 1747 4160 
Q 1376 4160 1113 4051 
Q 851 3942 595 3776 
L 314 4160 
Q 557 4352 918 4493 
Q 1280 4634 1741 4634 
Q 2458 4634 2806 4314 
Q 3155 3994 3155 3501 
Q 3155 3040 2899 2768 
Q 2643 2496 2208 2406 
L 2208 2381 
Q 2758 2317 3027 2035 
Q 3296 1754 3296 1299 
Q 3296 902 3110 592 
Q 2925 282 2537 109 
Q 2150 -64 1542 -64 
z
" transform="scale(0.015625)"/>
      </defs>
      <use xlink:href="#NotoSans-Italic-78" transform="translate(0 0.5)"/>
      <use xlink:href="#NotoSansMath-Regular-30" transform="translate(48.299988 -15.578125) scale(0.7)"/>
      <use xlink:href="#NotoSansMath-Regular-20" transform="translate(91.019673 0.5)"/>
      <use xlink:href="#NotoSansMath-Regular-3d" transform="translate(117.019658 0.5)"/>
      <use xlink:href="#NotoSansMath-Regular-20" transform="translate(174.219655 0.5)"/>
      <use xlink:href="#NotoSansMath-Regular-30" transform="translate(200.21964 0.5)"/>
      <use xlink:href="#NotoSansMath-Regular-2e" transform="translate(257.419637 0.5)"/>
      <use xlink:href="#NotoSansMath-Regular-33" transform="translate(284.219624 0.5)"/>
      <use xlink:href="#NotoSansMath-Regular-34" transform="translate(341.419621 0.5)"/>
     </g>
    </g>
   </g>
   <g id="text_23">
    <g clip-path="url(#p49997d6238)">
     <!-- $x_1$ = 0.14 -->
     <g style="fill: #ff7f0e" transform="translate(110.581685 172.836846) rotate(54.387945) scale(0.0833 -0.0833)">
      <use xlink:href="#NotoSans-Italic-78" transform="translate(0 0.5)"/>
      <use xlink:href="#NotoSansMath-Regular-31" transform="translate(48.299988 -15.578125) scale(0.7)"/>
      <use xlink:href="#NotoSansMath-Regular-20" transform="translate(91.019673 0.5)"/>
      <use xlink:href="#NotoSansMath-Regular-3d" transform="translate(117.019658 0.5)"/>
      <use xlink:href="#NotoSansMath-Regular-20" transform="translate(174.219655 0.5)"/>
      <use xlink:href="#NotoSansMath-Regular-30" transform="translate(200.21964 0.5)"/>
      <use xlink:href="#NotoSansMath-Regular-2e" transform="translate(257.419637 0.5)"/>
      <use xlink:href="#NotoSansMath-Regular-31" transform="translate(284.219624 0.5)"/>
      <use xlink:href="#NotoSansMath-Regular-34" transform="translate(341.419621 0.5)"/>
     </g>
    </g>
   </g>
   <g id="text_24">
    <g clip-path="url(#p49997d6238)">
     <!-- $x_1$ = 0.28 -->
     <g style="fill: #ff7f0e" transform="translate(163.423095 174.633609) rotate(51.191371) scale(0.0833 -0.0833)">
      <use xlink:href="#NotoSans-Italic-78" transform="translate(0 0.5)"/>
      <use xlink:href="#NotoSansMath-Regular-31" transform="translate(48.299988 -15.578125) scale(0.7)"/>
      <use xlink:href="#NotoSansMath-Regular-20" transform="translate(91.019673 0.5)"/>
      <use xlink:href="#NotoSansMath-Regular-3d" transform="translate(117.019658 0.5)"/>
      <use xlink:href="#NotoSansMath-Regular-20" transform="translate(174.219655 0.5)"/>
      <use xlink:href="#NotoSansMath-Regular-30" transform="translate(200.21964 0.5)"/>
      <use xlink:href="#NotoSansMath-Regular-2e" transform="translate(257.419637 0.5)"/>
      <use xlink:href="#NotoSansMath-Regular-32" transform="translate(284.219624 0.5)"/>
      <use xlink:href="#NotoSansMath-Regular-38" transform="translate(341.419621 0.5)"/>
     </g>
    </g>
   </g>
   <g id="text_25">
    <g clip-path="url(#p49997d6238)">
     <!-- $x_1$ = 0.42 -->
     <g style="fill: #ff7f0e" transform="translate(210.126771 168.403054) rotate(49.688272) scale(0.0833 -0.0833)">
      <use xlink:href="#NotoSans-Italic-78" transform="translate(0 0.5)"/>
      <use xlink:href="#NotoSansMath-Regular-31" transform="translate(48.299988 -15.578125) scale(0.7)"/>
      <use xlink:href="#NotoSansMath-Regular-20" transform="translate(91.019673 0.5)"/>
      <use xlink:href="#NotoSansMath-Regular-3d" transform="translate(117.019658 0.5)"/>
      <use xlink:href="#NotoSansMath-Regular-20" transform="translate(174.219655 0.5)"/>
      <use xlink:href="#NotoSansMath-Regular-30" transform="translate(200.21964 0.5)"/>
      <use xlink:href="#NotoSansMath-Regular-2e" transform="translate(257.419637 0.5)"/>
      <use xlink:href="#NotoSansMath-Regular-34" transform="translate(284.219624 0.5)"/>
      <use xlink:href="#NotoSansMath-Regular-32" transform="translate(341.419621 0.5)"/>
     </g>
    </g>
   </g>
   <g id="text_26">
    <g clip-path="url(#p49997d6238)">
     <!-- $x_1$ = 0.56 -->
     <g style="fill: #ff7f0e" transform="translate(215.328361 101.415926) rotate(59.320077) scale(0.0833 -0.0833)">
      <defs>
       <path id="NotoSansMath-Regular-35" d="M 1587 -64 
Q 1235 -64 924 0 
Q 614 64 403 186 
L 403 717 
Q 634 576 963 496 
Q 1293 416 1594 416 
Q 2099 416 2409 656 
Q 2720 896 2720 1402 
Q 2720 1850 2445 2090 
Q 2170 2330 1574 2330 
Q 1395 2330 1164 2298 
Q 934 2266 794 2234 
L 512 2413 
L 685 4570 
L 2976 4570 
L 2976 4058 
L 1165 4058 
L 1056 2733 
Q 1165 2752 1350 2777 
Q 1536 2803 1760 2803 
Q 2464 2803 2880 2451 
Q 3296 2099 3296 1459 
Q 3296 749 2845 342 
Q 2394 -64 1587 -64 
z
" transform="scale(0.015625)"/>
      </defs>
      <use xlink:href="#NotoSans-Italic-78" transform="translate(0 0.5)"/>
      <use xlink:href="#NotoSansMath-Regular-31" transform="translate(48.299988 -15.578125) scale(0.7)"/>
      <use xlink:href="#NotoSansMath-Regular-20" transform="translate(91.019673 0.5)"/>
      <use xlink:href="#NotoSansMath-Regular-3d" transform="translate(117.019658 0.5)"/>
      <use xlink:href="#NotoSansMath-Regular-20" transform="translate(174.219655 0.5)"/>
      <use xlink:href="#NotoSansMath-Regular-30" transform="translate(200.21964 0.5)"/>
      <use xlink:href="#NotoSansMath-Regular-2e" transform="translate(257.419637 0.5)"/>
      <use xlink:href="#NotoSansMath-Regular-35" transform="translate(284.219624 0.5)"/>
      <use xlink:href="#NotoSansMath-Regular-36" transform="translate(341.419621 0.5)"/>
     </g>
    </g>
   </g>
   <g id="legend_1">
    <g id="patch_7">
     <path d="M 146.553125 43.07 
L 263.9 43.07 
Q 265.9 43.07 265.9 41.07 
L 265.9 27.07 
Q 265.9 25.07 263.9 25.07 
L 146.553125 25.07 
Q 144.553125 25.07 144.553125 27.07 
L 144.553125 41.07 
Q 144.553125 43.07 146.553125 43.07 
z
" style="fill: #ffffff; opacity: 0.8; stroke: #cccccc; stroke-linejoin: miter"/>
    </g>
    <g id="PathCollection_10">
     <g>
      <use xlink:href="#mc7845b7cee" x="158.553125" y="34.045" style="stroke: #000000"/>
     </g>
    </g>
    <g id="text_27">
     <!-- quadrature points -->
     <g transform="translate(176.553125 36.67) scale(0.1 -0.1)">
      <defs>
       <path id="NotoSansMath-Regular-71" d="M 2829 -1536 
L 2829 -70 
Q 2829 45 2835 198 
Q 2842 352 2861 461 
L 2822 461 
Q 2675 243 2416 89 
Q 2157 -64 1747 -64 
Q 1126 -64 739 381 
Q 352 826 352 1709 
Q 352 2592 745 3043 
Q 1139 3494 1766 3494 
Q 2170 3494 2426 3340 
Q 2682 3187 2835 2963 
L 2861 2963 
L 2944 3430 
L 3392 3430 
L 3392 -1536 
L 2829 -1536 
z
M 1856 403 
Q 2387 403 2608 694 
Q 2829 986 2835 1587 
L 2835 1702 
Q 2835 2355 2617 2691 
Q 2400 3027 1843 3027 
Q 1382 3027 1158 2665 
Q 934 2304 934 1696 
Q 934 1088 1161 745 
Q 1389 403 1856 403 
z
" transform="scale(0.015625)"/>
       <path id="NotoSansMath-Regular-75" d="M 1754 -64 
Q 1133 -64 819 233 
Q 506 531 506 1184 
L 506 3430 
L 1075 3430 
L 1075 1222 
Q 1075 403 1837 403 
Q 2406 403 2627 723 
Q 2848 1043 2848 1645 
L 2848 3430 
L 3411 3430 
L 3411 0 
L 2950 0 
L 2867 454 
L 2842 454 
Q 2675 186 2380 61 
Q 2086 -64 1754 -64 
z
" transform="scale(0.015625)"/>
       <path id="NotoSansMath-Regular-61" d="M 1376 -64 
Q 909 -64 601 182 
Q 294 429 294 954 
Q 294 1466 697 1744 
Q 1101 2022 1939 2048 
L 2522 2067 
L 2522 2272 
Q 2522 2701 2336 2867 
Q 2150 3034 1811 3034 
Q 1542 3034 1299 2954 
Q 1056 2874 845 2771 
L 672 3194 
Q 896 3315 1203 3401 
Q 1510 3488 1843 3488 
Q 2470 3488 2771 3213 
Q 3072 2938 3072 2336 
L 3072 0 
L 2662 0 
L 2554 486 
L 2528 486 
Q 2304 205 2057 70 
Q 1811 -64 1376 -64 
z
M 1504 390 
Q 1939 390 2227 630 
Q 2515 870 2515 1370 
L 2515 1677 
L 2010 1658 
Q 1370 1632 1123 1453 
Q 877 1274 877 947 
Q 877 659 1053 524 
Q 1229 390 1504 390 
z
" transform="scale(0.015625)"/>
       <path id="NotoSansMath-Regular-64" d="M 1760 -64 
Q 1120 -64 736 381 
Q 352 826 352 1709 
Q 352 2592 739 3043 
Q 1126 3494 1766 3494 
Q 2163 3494 2416 3347 
Q 2669 3200 2829 2989 
L 2867 2989 
Q 2861 3072 2845 3235 
Q 2829 3398 2829 3494 
L 2829 4864 
L 3392 4864 
L 3392 0 
L 2938 0 
L 2854 461 
L 2829 461 
Q 2675 243 2419 89 
Q 2163 -64 1760 -64 
z
M 1850 403 
Q 2394 403 2614 700 
Q 2835 998 2835 1600 
L 2835 1702 
Q 2835 2342 2624 2684 
Q 2413 3027 1843 3027 
Q 1389 3027 1161 2665 
Q 934 2304 934 1696 
Q 934 1082 1161 742 
Q 1389 403 1850 403 
z
" transform="scale(0.015625)"/>
       <path id="NotoSansMath-Regular-72" d="M 544 0 
L 544 3430 
L 1005 3430 
L 1069 2803 
L 1094 2803 
Q 1261 3085 1523 3289 
Q 1786 3494 2144 3494 
Q 2240 3494 2352 3484 
Q 2464 3475 2547 3456 
L 2477 2938 
Q 2394 2957 2294 2969 
Q 2195 2982 2106 2982 
Q 1843 2982 1612 2838 
Q 1382 2694 1244 2435 
Q 1107 2176 1107 1830 
L 1107 0 
L 544 0 
z
" transform="scale(0.015625)"/>
       <path id="NotoSansMath-Regular-74" d="M 1594 -64 
Q 1325 -64 1097 29 
Q 870 122 729 352 
Q 589 582 589 998 
L 589 2995 
L 102 2995 
L 102 3264 
L 595 3488 
L 819 4218 
L 1152 4218 
L 1152 3430 
L 2144 3430 
L 2144 2995 
L 1152 2995 
L 1152 1011 
Q 1152 698 1302 547 
Q 1453 397 1690 397 
Q 1818 397 1952 419 
Q 2086 442 2170 467 
L 2170 38 
Q 2080 -6 1913 -35 
Q 1747 -64 1594 -64 
z
" transform="scale(0.015625)"/>
       <path id="NotoSansMath-Regular-65" d="M 2003 -64 
Q 1517 -64 1142 134 
Q 768 333 560 726 
Q 352 1120 352 1690 
Q 352 2253 541 2656 
Q 730 3059 1072 3276 
Q 1414 3494 1869 3494 
Q 2310 3494 2627 3302 
Q 2944 3110 3113 2761 
Q 3283 2413 3283 1946 
L 3283 1606 
L 934 1606 
Q 947 1024 1232 720 
Q 1517 416 2029 416 
Q 2355 416 2608 477 
Q 2861 538 3130 653 
L 3130 160 
Q 2867 45 2611 -9 
Q 2355 -64 2003 -64 
z
M 947 2054 
L 2694 2054 
Q 2694 2490 2492 2762 
Q 2291 3034 1862 3034 
Q 1459 3034 1225 2774 
Q 992 2515 947 2054 
z
" transform="scale(0.015625)"/>
       <path id="NotoSansMath-Regular-70" d="M 544 -1536 
L 544 3430 
L 1005 3430 
L 1082 2963 
L 1107 2963 
Q 1261 3187 1510 3340 
Q 1760 3494 2176 3494 
Q 2810 3494 3197 3052 
Q 3584 2611 3584 1722 
Q 3584 845 3197 390 
Q 2810 -64 2170 -64 
Q 1773 -64 1513 86 
Q 1254 237 1107 435 
L 1069 435 
Q 1082 326 1094 160 
Q 1107 -6 1107 -128 
L 1107 -1536 
L 544 -1536 
z
M 2086 403 
Q 2400 403 2601 576 
Q 2803 749 2902 1046 
Q 3002 1344 3002 1728 
Q 3002 2317 2774 2669 
Q 2547 3021 2074 3021 
Q 1549 3021 1334 2726 
Q 1120 2432 1107 1830 
L 1107 1722 
Q 1107 1088 1315 745 
Q 1523 403 2086 403 
z
" transform="scale(0.015625)"/>
       <path id="NotoSansMath-Regular-6f" d="M 1926 -64 
Q 1472 -64 1117 144 
Q 762 352 557 752 
Q 352 1152 352 1722 
Q 352 2573 781 3033 
Q 1210 3494 1946 3494 
Q 2413 3494 2768 3286 
Q 3123 3078 3324 2684 
Q 3526 2291 3526 1722 
Q 3526 870 3094 403 
Q 2662 -64 1926 -64 
z
M 1939 403 
Q 2458 403 2701 758 
Q 2944 1114 2944 1722 
Q 2944 2330 2701 2675 
Q 2458 3021 1933 3021 
Q 1408 3021 1171 2675 
Q 934 2330 934 1722 
Q 934 1114 1174 758 
Q 1414 403 1939 403 
z
" transform="scale(0.015625)"/>
       <path id="NotoSansMath-Regular-69" d="M 832 4000 
Q 691 4000 595 4089 
Q 499 4179 499 4358 
Q 499 4544 595 4630 
Q 691 4717 832 4717 
Q 960 4717 1059 4630 
Q 1158 4544 1158 4358 
Q 1158 4179 1059 4089 
Q 960 4000 832 4000 
z
M 544 0 
L 544 3430 
L 1107 3430 
L 1107 0 
L 544 0 
z
" transform="scale(0.015625)"/>
       <path id="NotoSansMath-Regular-6e" d="M 544 0 
L 544 3430 
L 998 3430 
L 1082 2963 
L 1114 2963 
Q 1280 3232 1574 3363 
Q 1869 3494 2195 3494 
Q 2810 3494 3123 3196 
Q 3437 2899 3437 2234 
L 3437 0 
L 2880 0 
L 2880 2195 
Q 2880 3021 2112 3021 
Q 1542 3021 1324 2701 
Q 1107 2381 1107 1779 
L 1107 0 
L 544 0 
z
" transform="scale(0.015625)"/>
       <path id="NotoSansMath-Regular-73" d="M 1408 -64 
Q 1050 -64 790 -6 
Q 531 51 333 154 
L 333 666 
Q 538 563 829 476 
Q 1120 390 1421 390 
Q 1850 390 2042 528 
Q 2234 666 2234 896 
Q 2234 1024 2163 1126 
Q 2093 1229 1910 1331 
Q 1728 1434 1389 1562 
Q 1056 1690 819 1818 
Q 582 1946 454 2125 
Q 326 2304 326 2586 
Q 326 3021 681 3257 
Q 1037 3494 1613 3494 
Q 1926 3494 2198 3433 
Q 2470 3373 2707 3264 
L 2515 2816 
Q 2298 2906 2061 2970 
Q 1824 3034 1574 3034 
Q 1229 3034 1046 2922 
Q 864 2810 864 2618 
Q 864 2477 947 2377 
Q 1030 2278 1225 2185 
Q 1421 2093 1747 1965 
Q 2074 1843 2304 1712 
Q 2534 1581 2656 1401 
Q 2778 1222 2778 947 
Q 2778 448 2406 192 
Q 2035 -64 1408 -64 
z
" transform="scale(0.015625)"/>
      </defs>
      <use xlink:href="#NotoSansMath-Regular-71"/>
      <use xlink:href="#NotoSansMath-Regular-75" x="61.499985"/>
      <use xlink:href="#NotoSansMath-Regular-61" x="123.299973"/>
      <use xlink:href="#NotoSansMath-Regular-64" x="179.399963"/>
      <use xlink:href="#NotoSansMath-Regular-72" x="240.899948"/>
      <use xlink:href="#NotoSansMath-Regular-61" x="282.199936"/>
      <use xlink:href="#NotoSansMath-Regular-74" x="338.299927"/>
      <use xlink:href="#NotoSansMath-Regular-75" x="374.399918"/>
      <use xlink:href="#NotoSansMath-Regular-72" x="436.199905"/>
      <use xlink:href="#NotoSansMath-Regular-65" x="477.499893"/>
      <use xlink:href="#NotoSansMath-Regular-20" x="533.899887"/>
      <use xlink:href="#NotoSansMath-Regular-70" x="559.899872"/>
      <use xlink:href="#NotoSansMath-Regular-6f" x="621.399857"/>
      <use xlink:href="#NotoSansMath-Regular-69" x="681.899841"/>
      <use xlink:href="#NotoSansMath-Regular-6e" x="707.699829"/>
      <use xlink:href="#NotoSansMath-Regular-74" x="769.499817"/>
      <use xlink:href="#NotoSansMath-Regular-73" x="805.599808"/>
     </g>
    </g>
   </g>
  </g>
 </g>
 <defs>
  <clipPath id="p49997d6238">
   <rect x="53.2325" y="20.07" width="217.6675" height="217.6675"/>
  </clipPath>
 </defs>
</svg>
