                                                                        S0000001
,,31HOpen CASCADE IGES processor 7.7,13HFilename.iges,                  G0000001
16HOpen CASCADE 7.7,31HOpen CASCADE IGES processor 7.7,32,308,15,308,15,G0000002
,1.,2,2HMM,1,0.01,15H20251113.133557,1E-07,63.5,20HMicaiah Smith-Pierce,G0000003
31HGeorgia Institute of Technology,11,0,15H20251113.133557,;            G0000004
     402       1       0       0       0       0       0       000000000D0000001
     402       0       0       1       1                               0D0000002
     144       2       0       0       0       0       0       000020000D0000003
     144       0       0       1       0                               0D0000004
     120       3       0       0       0       0       7       000010000D0000005
     120       0       0       1       0                               0D0000006
     124       4       0       0       0       0       0       000000000D0000007
     124       0       0       1       0                               0D0000008
     110       5       0       0       0       0       0       000010000D0000009
     110       0       0       1       0                               0D0000010
     100       6       0       0       0       0      13       000010000D0000011
     100       0       0       1       0                               0D0000012
     124       7       0       0       0       0       0       000000000D0000013
     124       0       0       1       0                               0D0000014
     142       8       0       0       0       0       0       000010500D0000015
     142       0       0       1       0                               0D0000016
     102       9       0       0       0       0       0       000010000D0000017
     102       0       0       1       0                               0D0000018
     100      10       0       0       0       0      21       000010000D0000019
     100       0       0       1       0                               0D0000020
     124      11       0       0       0       0       0       000000000D0000021
     124       0       0       2       0                               0D0000022
     100      13       0       0       0       0      25       000010000D0000023
     100       0       0       1       0                               0D0000024
     124      14       0       0       0       0       0       000000000D0000025
     124       0       0       1       0                               0D0000026
     100      15       0       0       0       0       0       000010000D0000027
     100       0       0       1       0                               0D0000028
     144      16       0       0       0       0       0       000020000D0000029
     144       0       0       1       0                               0D0000030
     108      17       0       0       0       0       0       000010000D0000031
     108       0       0       1       0                               0D0000032
     142      18       0       0       0       0       0       000010500D0000033
     142       0       0       1       0                               0D0000034
     102      19       0       0       0       0       0       000010000D0000035
     102       0       0       1       0                               0D0000036
     100      20       0       0       0       0      39       000010000D0000037
     100       0       0       1       0                               0D0000038
     124      21       0       0       0       0       0       000000000D0000039
     124       0       0       1       0                               0D0000040
     110      22       0       0       0       0       0       000010000D0000041
     110       0       0       1       0                               0D0000042
     110      23       0       0       0       0       0       000010000D0000043
     110       0       0       1       0                               0D0000044
     144      24       0       0       0       0       0       000020000D0000045
     144       0       0       1       0                               0D0000046
     108      25       0       0       0       0       0       000010000D0000047
     108       0       0       1       0                               0D0000048
     142      26       0       0       0       0       0       000010500D0000049
     142       0       0       1       0                               0D0000050
     102      27       0       0       0       0       0       000010000D0000051
     102       0       0       1       0                               0D0000052
     110      28       0       0       0       0       0       000010000D0000053
     110       0       0       1       0                               0D0000054
     110      29       0       0       0       0       0       000010000D0000055
     110       0       0       1       0                               0D0000056
     100      30       0       0       0       0      59       000010000D0000057
     100       0       0       1       0                               0D0000058
     124      31       0       0       0       0       0       000000000D0000059
     124       0       0       1       0                               0D0000060
     144      32       0       0       0       0       0       000020000D0000061
     144       0       0       1       0                               0D0000062
     108      33       0       0       0       0       0       000010000D0000063
     108       0       0       2       0                               0D0000064
     142      35       0       0       0       0       0       000010500D0000065
     142       0       0       1       0                               0D0000066
     102      36       0       0       0       0       0       000010000D0000067
     102       0       0       1       0                               0D0000068
     100      37       0       0       0       0      71       000010000D0000069
     100       0       0       1       0                               0D0000070
     124      38       0       0       0       0       0       000000000D0000071
     124       0       0       2       0                               0D0000072
     110      40       0       0       0       0       0       000010000D0000073
     110       0       0       1       0                               0D0000074
     110      41       0       0       0       0       0       000010000D0000075
     110       0       0       1       0                               0D0000076
402,4,3,29,45,61;                                                0000001P0000001
144,5,1,0,15;                                                    0000003P0000002
120,9,11,6.283185307,7.853981634;                                0000005P0000003
124,0.,0.,-1.,0.,1.,0.,0.,0.,0.,-1.,-0.,0.;                      0000007P0000004
110,0.,0.,1.,0.,0.,0.;                                           0000009P0000005
100,0.,0.,0.,63.5,-1.944126789E-15,3.888253587E-15,63.5;         0000011P0000006
124,1.,0.,0.,0.,0.,0.,-1.,0.,0.,1.,-0.,0.;                       0000013P0000007
142,0,5,0,17,2;                                                  0000015P0000008
102,3,19,23,27;                                                  0000017P0000009
100,0.,0.,0.,-63.5,7.776507175E-15,-1.166476076E-14,-63.5;       0000019P0000010
124,1.,0.,0.,0.,0.,-1.110223025E-16,1.,0.,0.,-1.,                0000021P0000011
-1.110223025E-16,0.;                                             0000021P0000012
100,0.,0.,0.,-1.166476076E-14,-63.5,63.5,-1.555301435E-14;       0000023P0000013
124,0.,0.,-1.,1.944126789E-15,1.,0.,0.,0.,0.,-1.,-0.,0.;         0000025P0000014
100,0.,0.,0.,3.888253587E-15,63.5,-63.5,7.776507175E-15;         0000027P0000015
144,31,1,0,33;                                                   0000029P0000016
108,1.,0.,0.,0.,0,0.,0.,0.,0.;                                   0000031P0000017
142,0,31,0,35,2;                                                 0000033P0000018
102,3,37,41,43;                                                  0000035P0000019
100,0.,0.,0.,63.5,0.,3.888253587E-15,63.5;                       0000037P0000020
124,0.,0.,1.,1.944126789E-15,1.,0.,0.,0.,0.,1.,0.,0.;            0000039P0000021
110,0.,7.049916206E-15,63.5,0.,0.,0.;                            0000041P0000022
110,0.,0.,0.,0.,63.5,0.;                                         0000043P0000023
144,47,1,0,49;                                                   0000045P0000024
108,-0.,-0.,-1.,0.,0,-26.199982009,26.199982009,0.,0.;           0000047P0000025
142,0,47,0,51,2;                                                 0000049P0000026
102,3,53,55,57;                                                  0000051P0000027
110,0.,63.5,0.,0.,0.,0.;                                         0000053P0000028
110,0.,0.,0.,-63.5,7.776507175E-15,0.;                           0000055P0000029
100,0.,0.,0.,-63.5,7.776507175E-15,-1.166476076E-14,-63.5;       0000057P0000030
124,1.,0.,0.,0.,0.,-1.,0.,0.,0.,0.,-1.,0.;                       0000059P0000031
144,63,1,0,65;                                                   0000061P0000032
108,0.,-1.,1.110223025E-16,0.,0,-26.199982009,2.908782327E-15,   0000063P0000033
26.199982009,0.;                                                 0000063P0000034
142,0,63,0,67,2;                                                 0000065P0000035
102,3,69,73,75;                                                  0000067P0000036
100,0.,0.,0.,3.888253587E-15,63.5,-63.5,7.776507175E-15;         0000069P0000037
124,1.,0.,0.,0.,0.,1.110223025E-16,-1.,0.,0.,1.,1.110223025E-16, 0000071P0000038
0.;                                                              0000071P0000039
110,-63.5,7.776507175E-15,0.,0.,0.,0.;                           0000073P0000040
110,0.,0.,0.,0.,7.049916206E-15,63.5;                            0000075P0000041
S      1G      4D     76P     41                                        T0000001
