<?xml version="1.0" encoding="utf-8" standalone="no"?>
<!DOCTYPE svg PUBLIC "-//W3C//DTD SVG 1.1//EN"
  "http://www.w3.org/Graphics/SVG/1.1/DTD/svg11.dtd">
<svg xmlns:xlink="http://www.w3.org/1999/xlink" width="1296pt" height="432pt" viewBox="0 0 1296 432" xmlns="http://www.w3.org/2000/svg" version="1.1">
 <metadata>
  <rdf:RDF xmlns:dc="http://purl.org/dc/elements/1.1/" xmlns:cc="http://creativecommons.org/ns#" xmlns:rdf="http://www.w3.org/1999/02/22-rdf-syntax-ns#">
   <cc:Work>
    <dc:type rdf:resource="http://purl.org/dc/dcmitype/StillImage"/>
    <dc:date>2024-03-01T00:56:47.597064</dc:date>
    <dc:format>image/svg+xml</dc:format>
    <dc:creator>
     <cc:Agent>
      <dc:title>Matplotlib v3.7.1, https://matplotlib.org/</dc:title>
     </cc:Agent>
    </dc:creator>
   </cc:Work>
  </rdf:RDF>
 </metadata>
 <defs>
  <style type="text/css">*{stroke-linejoin: round; stroke-linecap: butt}</style>
 </defs>
 <g id="figure_1">
  <g id="patch_1">
   <path d="M 0 432 
L 1296 432 
L 1296 0 
L 0 0 
z
" style="fill: #ffffff"/>
  </g>
  <g id="axes_1">
   <g id="patch_2">
    <path d="M 427.870588 218.16 
C 427.870588 206.023097 426.000685 193.958324 422.326771 182.390836 
C 418.652858 170.823349 413.218604 159.890638 406.215509 149.977966 
L 309.705882 218.16 
z
" style="fill: #1f77b4"/>
   </g>
   <g id="patch_3">
    <path d="M 406.215509 149.977966 
C 394.776289 133.786093 379.444035 120.730434 361.636071 112.017863 
C 343.828107 103.305292 324.110606 99.212809 304.306268 100.118728 
C 284.50193 101.024647 265.2404 106.900164 248.302227 117.202143 
C 231.364054 127.504123 217.287758 141.90503 207.374561 159.073636 
L 309.705882 218.16 
z
" style="fill: #ff7f0e"/>
   </g>
   <g id="patch_4">
    <path d="M 207.374561 159.073636 
C 193.360523 183.344466 188.428285 211.826877 193.465186 239.396717 
C 198.502087 266.966557 213.186802 291.865028 234.877464 309.61275 
C 256.568126 327.360472 283.880996 336.825241 311.902329 336.30429 
C 339.923661 335.78334 366.865856 325.309903 387.881854 306.768212 
L 309.705882 218.16 
z
" style="fill: #2ca02c"/>
   </g>
   <g id="patch_5">
    <path d="M 387.881854 306.768212 
C 393.481454 301.827877 398.600162 296.367846 403.169254 290.461423 
C 407.738347 284.555 411.737284 278.228737 415.112378 271.567568 
L 309.705882 218.16 
z
" style="fill: #d62728"/>
   </g>
   <g id="text_1">
    <!-- boundary conditions -->
    <g transform="translate(433.58886 181.41392) scale(0.1 -0.1)">
     <defs>
      <path id="NotoSansMath-Regular-62" d="M 2170 -64 
Q 1766 -64 1510 83 
Q 1254 230 1107 435 
L 1062 435 
L 947 0 
L 544 0 
L 544 4864 
L 1107 4864 
L 1107 3680 
Q 1107 3462 1097 3273 
Q 1088 3085 1075 2976 
L 1107 2976 
Q 1254 3194 1510 3341 
Q 1766 3488 2170 3488 
Q 2810 3488 3197 3043 
Q 3584 2598 3584 1715 
Q 3584 832 3193 384 
Q 2803 -64 2170 -64 
z
M 2086 403 
Q 2547 403 2774 742 
Q 3002 1082 3002 1722 
Q 3002 3021 2074 3021 
Q 1530 3021 1318 2707 
Q 1107 2394 1107 1734 
L 1107 1709 
Q 1107 1075 1315 739 
Q 1523 403 2086 403 
z
" transform="scale(0.015625)"/>
      <path id="NotoSansMath-Regular-6f" d="M 1926 -64 
Q 1472 -64 1117 144 
Q 762 352 557 752 
Q 352 1152 352 1722 
Q 352 2573 781 3033 
Q 1210 3494 1946 3494 
Q 2413 3494 2768 3286 
Q 3123 3078 3324 2684 
Q 3526 2291 3526 1722 
Q 3526 870 3094 403 
Q 2662 -64 1926 -64 
z
M 1939 403 
Q 2458 403 2701 758 
Q 2944 1114 2944 1722 
Q 2944 2330 2701 2675 
Q 2458 3021 1933 3021 
Q 1408 3021 1171 2675 
Q 934 2330 934 1722 
Q 934 1114 1174 758 
Q 1414 403 1939 403 
z
" transform="scale(0.015625)"/>
      <path id="NotoSansMath-Regular-75" d="M 1754 -64 
Q 1133 -64 819 233 
Q 506 531 506 1184 
L 506 3430 
L 1075 3430 
L 1075 1222 
Q 1075 403 1837 403 
Q 2406 403 2627 723 
Q 2848 1043 2848 1645 
L 2848 3430 
L 3411 3430 
L 3411 0 
L 2950 0 
L 2867 454 
L 2842 454 
Q 2675 186 2380 61 
Q 2086 -64 1754 -64 
z
" transform="scale(0.015625)"/>
      <path id="NotoSansMath-Regular-6e" d="M 544 0 
L 544 3430 
L 998 3430 
L 1082 2963 
L 1114 2963 
Q 1280 3232 1574 3363 
Q 1869 3494 2195 3494 
Q 2810 3494 3123 3196 
Q 3437 2899 3437 2234 
L 3437 0 
L 2880 0 
L 2880 2195 
Q 2880 3021 2112 3021 
Q 1542 3021 1324 2701 
Q 1107 2381 1107 1779 
L 1107 0 
L 544 0 
z
" transform="scale(0.015625)"/>
      <path id="NotoSansMath-Regular-64" d="M 1760 -64 
Q 1120 -64 736 381 
Q 352 826 352 1709 
Q 352 2592 739 3043 
Q 1126 3494 1766 3494 
Q 2163 3494 2416 3347 
Q 2669 3200 2829 2989 
L 2867 2989 
Q 2861 3072 2845 3235 
Q 2829 3398 2829 3494 
L 2829 4864 
L 3392 4864 
L 3392 0 
L 2938 0 
L 2854 461 
L 2829 461 
Q 2675 243 2419 89 
Q 2163 -64 1760 -64 
z
M 1850 403 
Q 2394 403 2614 700 
Q 2835 998 2835 1600 
L 2835 1702 
Q 2835 2342 2624 2684 
Q 2413 3027 1843 3027 
Q 1389 3027 1161 2665 
Q 934 2304 934 1696 
Q 934 1082 1161 742 
Q 1389 403 1850 403 
z
" transform="scale(0.015625)"/>
      <path id="NotoSansMath-Regular-61" d="M 1376 -64 
Q 909 -64 601 182 
Q 294 429 294 954 
Q 294 1466 697 1744 
Q 1101 2022 1939 2048 
L 2522 2067 
L 2522 2272 
Q 2522 2701 2336 2867 
Q 2150 3034 1811 3034 
Q 1542 3034 1299 2954 
Q 1056 2874 845 2771 
L 672 3194 
Q 896 3315 1203 3401 
Q 1510 3488 1843 3488 
Q 2470 3488 2771 3213 
Q 3072 2938 3072 2336 
L 3072 0 
L 2662 0 
L 2554 486 
L 2528 486 
Q 2304 205 2057 70 
Q 1811 -64 1376 -64 
z
M 1504 390 
Q 1939 390 2227 630 
Q 2515 870 2515 1370 
L 2515 1677 
L 2010 1658 
Q 1370 1632 1123 1453 
Q 877 1274 877 947 
Q 877 659 1053 524 
Q 1229 390 1504 390 
z
" transform="scale(0.015625)"/>
      <path id="NotoSansMath-Regular-72" d="M 544 0 
L 544 3430 
L 1005 3430 
L 1069 2803 
L 1094 2803 
Q 1261 3085 1523 3289 
Q 1786 3494 2144 3494 
Q 2240 3494 2352 3484 
Q 2464 3475 2547 3456 
L 2477 2938 
Q 2394 2957 2294 2969 
Q 2195 2982 2106 2982 
Q 1843 2982 1612 2838 
Q 1382 2694 1244 2435 
Q 1107 2176 1107 1830 
L 1107 0 
L 544 0 
z
" transform="scale(0.015625)"/>
      <path id="NotoSansMath-Regular-79" d="M 538 -1536 
Q 384 -1536 269 -1520 
Q 154 -1504 70 -1485 
L 70 -1037 
Q 141 -1050 240 -1062 
Q 339 -1075 448 -1075 
Q 742 -1075 921 -908 
Q 1101 -742 1210 -467 
L 1389 -13 
L 6 3430 
L 608 3430 
L 1350 1478 
Q 1446 1222 1523 988 
Q 1600 755 1638 544 
L 1664 544 
Q 1702 704 1782 963 
Q 1862 1222 1958 1485 
L 2656 3430 
L 3264 3430 
L 1786 -474 
Q 1606 -960 1321 -1248 
Q 1037 -1536 538 -1536 
z
" transform="scale(0.015625)"/>
      <path id="NotoSansMath-Regular-20" transform="scale(0.015625)"/>
      <path id="NotoSansMath-Regular-63" d="M 1920 -64 
Q 1466 -64 1110 121 
Q 755 307 553 697 
Q 352 1088 352 1696 
Q 352 2330 563 2726 
Q 774 3123 1136 3308 
Q 1498 3494 1958 3494 
Q 2221 3494 2464 3440 
Q 2707 3386 2861 3309 
L 2688 2842 
Q 2534 2899 2329 2950 
Q 2125 3002 1946 3002 
Q 934 3002 934 1702 
Q 934 1082 1180 752 
Q 1427 422 1914 422 
Q 2195 422 2409 480 
Q 2624 538 2803 621 
L 2803 122 
Q 2630 32 2422 -16 
Q 2214 -64 1920 -64 
z
" transform="scale(0.015625)"/>
      <path id="NotoSansMath-Regular-69" d="M 832 4000 
Q 691 4000 595 4089 
Q 499 4179 499 4358 
Q 499 4544 595 4630 
Q 691 4717 832 4717 
Q 960 4717 1059 4630 
Q 1158 4544 1158 4358 
Q 1158 4179 1059 4089 
Q 960 4000 832 4000 
z
M 544 0 
L 544 3430 
L 1107 3430 
L 1107 0 
L 544 0 
z
" transform="scale(0.015625)"/>
      <path id="NotoSansMath-Regular-74" d="M 1594 -64 
Q 1325 -64 1097 29 
Q 870 122 729 352 
Q 589 582 589 998 
L 589 2995 
L 102 2995 
L 102 3264 
L 595 3488 
L 819 4218 
L 1152 4218 
L 1152 3430 
L 2144 3430 
L 2144 2995 
L 1152 2995 
L 1152 1011 
Q 1152 698 1302 547 
Q 1453 397 1690 397 
Q 1818 397 1952 419 
Q 2086 442 2170 467 
L 2170 38 
Q 2080 -6 1913 -35 
Q 1747 -64 1594 -64 
z
" transform="scale(0.015625)"/>
      <path id="NotoSansMath-Regular-73" d="M 1408 -64 
Q 1050 -64 790 -6 
Q 531 51 333 154 
L 333 666 
Q 538 563 829 476 
Q 1120 390 1421 390 
Q 1850 390 2042 528 
Q 2234 666 2234 896 
Q 2234 1024 2163 1126 
Q 2093 1229 1910 1331 
Q 1728 1434 1389 1562 
Q 1056 1690 819 1818 
Q 582 1946 454 2125 
Q 326 2304 326 2586 
Q 326 3021 681 3257 
Q 1037 3494 1613 3494 
Q 1926 3494 2198 3433 
Q 2470 3373 2707 3264 
L 2515 2816 
Q 2298 2906 2061 2970 
Q 1824 3034 1574 3034 
Q 1229 3034 1046 2922 
Q 864 2810 864 2618 
Q 864 2477 947 2377 
Q 1030 2278 1225 2185 
Q 1421 2093 1747 1965 
Q 2074 1843 2304 1712 
Q 2534 1581 2656 1401 
Q 2778 1222 2778 947 
Q 2778 448 2406 192 
Q 2035 -64 1408 -64 
z
" transform="scale(0.015625)"/>
     </defs>
     <use xlink:href="#NotoSansMath-Regular-62"/>
     <use xlink:href="#NotoSansMath-Regular-6f" x="61.499985"/>
     <use xlink:href="#NotoSansMath-Regular-75" x="121.999969"/>
     <use xlink:href="#NotoSansMath-Regular-6e" x="183.799957"/>
     <use xlink:href="#NotoSansMath-Regular-64" x="245.599945"/>
     <use xlink:href="#NotoSansMath-Regular-61" x="307.09993"/>
     <use xlink:href="#NotoSansMath-Regular-72" x="363.199921"/>
     <use xlink:href="#NotoSansMath-Regular-79" x="404.499908"/>
     <use xlink:href="#NotoSansMath-Regular-20" x="455.499893"/>
     <use xlink:href="#NotoSansMath-Regular-63" x="481.499878"/>
     <use xlink:href="#NotoSansMath-Regular-6f" x="529.499863"/>
     <use xlink:href="#NotoSansMath-Regular-6e" x="589.999847"/>
     <use xlink:href="#NotoSansMath-Regular-64" x="651.799835"/>
     <use xlink:href="#NotoSansMath-Regular-69" x="713.29982"/>
     <use xlink:href="#NotoSansMath-Regular-74" x="739.099808"/>
     <use xlink:href="#NotoSansMath-Regular-69" x="775.199799"/>
     <use xlink:href="#NotoSansMath-Regular-6f" x="800.999786"/>
     <use xlink:href="#NotoSansMath-Regular-6e" x="861.499771"/>
     <use xlink:href="#NotoSansMath-Regular-73" x="923.299759"/>
    </g>
   </g>
   <g id="text_2">
    <!-- 9.8% -->
    <g transform="translate(366.063572 199.298502) scale(0.1 -0.1)">
     <defs>
      <path id="NotoSansMath-Regular-39" d="M 1229 -64 
Q 1101 -64 931 -48 
Q 762 -32 653 0 
L 653 480 
Q 902 397 1216 397 
Q 1664 397 1955 544 
Q 2246 691 2419 944 
Q 2592 1197 2669 1533 
Q 2746 1869 2758 2240 
L 2720 2240 
Q 2579 2022 2313 1865 
Q 2048 1709 1632 1709 
Q 1043 1709 681 2070 
Q 320 2432 320 3091 
Q 320 3571 502 3916 
Q 685 4262 1011 4448 
Q 1338 4634 1779 4634 
Q 2214 4634 2566 4413 
Q 2918 4192 3123 3747 
Q 3328 3302 3328 2618 
Q 3328 2125 3241 1648 
Q 3155 1171 2928 784 
Q 2701 397 2288 166 
Q 1875 -64 1229 -64 
z
M 1754 2150 
Q 2061 2150 2285 2275 
Q 2509 2400 2633 2592 
Q 2758 2784 2758 2989 
Q 2758 3264 2649 3533 
Q 2541 3802 2323 3981 
Q 2106 4160 1779 4160 
Q 1382 4160 1129 3897 
Q 877 3635 877 3098 
Q 877 2656 1091 2403 
Q 1306 2150 1754 2150 
z
" transform="scale(0.015625)"/>
      <path id="NotoSansMath-Regular-2e" d="M 851 -90 
Q 691 -90 576 12 
Q 461 115 461 346 
Q 461 582 576 678 
Q 691 774 851 774 
Q 1018 774 1136 678 
Q 1254 582 1254 346 
Q 1254 115 1136 12 
Q 1018 -90 851 -90 
z
" transform="scale(0.015625)"/>
      <path id="NotoSansMath-Regular-38" d="M 1843 -64 
Q 1107 -64 710 259 
Q 314 582 314 1165 
Q 314 1478 445 1708 
Q 576 1939 793 2105 
Q 1011 2272 1261 2387 
Q 928 2579 694 2851 
Q 461 3123 461 3546 
Q 461 3898 640 4138 
Q 819 4378 1126 4506 
Q 1434 4634 1824 4634 
Q 2426 4634 2810 4352 
Q 3194 4070 3194 3539 
Q 3194 3264 3075 3059 
Q 2957 2854 2758 2697 
Q 2560 2541 2323 2419 
Q 2605 2285 2835 2115 
Q 3066 1946 3203 1722 
Q 3341 1498 3341 1184 
Q 3341 608 2934 272 
Q 2528 -64 1843 -64 
z
M 1850 2637 
Q 2182 2778 2409 2976 
Q 2637 3174 2637 3520 
Q 2637 3840 2413 4009 
Q 2189 4179 1818 4179 
Q 1466 4179 1238 4009 
Q 1011 3840 1011 3520 
Q 1011 3283 1123 3123 
Q 1235 2963 1427 2851 
Q 1619 2739 1850 2637 
z
M 1830 384 
Q 2298 384 2544 605 
Q 2790 826 2790 1178 
Q 2790 1510 2528 1731 
Q 2266 1952 1830 2118 
L 1728 2157 
Q 1306 1978 1085 1744 
Q 864 1510 864 1158 
Q 864 826 1101 605 
Q 1338 384 1830 384 
z
" transform="scale(0.015625)"/>
      <path id="NotoSansMath-Regular-25" d="M 1248 1766 
Q 794 1766 554 2147 
Q 314 2528 314 3206 
Q 314 3885 538 4259 
Q 762 4634 1248 4634 
Q 1722 4634 1965 4259 
Q 2208 3885 2208 3206 
Q 2208 2528 1974 2147 
Q 1741 1766 1248 1766 
z
M 1146 0 
L 3680 4570 
L 4173 4570 
L 1638 0 
L 1146 0 
z
M 1248 2170 
Q 1741 2170 1741 3206 
Q 1741 4237 1248 4237 
Q 1005 4237 893 3977 
Q 781 3718 781 3206 
Q 781 2694 893 2432 
Q 1005 2170 1248 2170 
z
M 4045 -64 
Q 3590 -64 3350 317 
Q 3110 698 3110 1376 
Q 3110 2054 3334 2428 
Q 3558 2803 4045 2803 
Q 4512 2803 4758 2428 
Q 5005 2054 5005 1376 
Q 5005 698 4771 317 
Q 4538 -64 4045 -64 
z
M 4045 339 
Q 4538 339 4538 1376 
Q 4538 2400 4045 2400 
Q 3802 2400 3690 2144 
Q 3578 1888 3578 1376 
Q 3578 858 3690 598 
Q 3802 339 4045 339 
z
" transform="scale(0.015625)"/>
     </defs>
     <use xlink:href="#NotoSansMath-Regular-39"/>
     <use xlink:href="#NotoSansMath-Regular-2e" x="57.199997"/>
     <use xlink:href="#NotoSansMath-Regular-38" x="83.999985"/>
     <use xlink:href="#NotoSansMath-Regular-25" x="141.199982"/>
    </g>
   </g>
   <g id="text_3">
    <!-- cartesian -->
    <g transform="translate(260.817869 90.914601) scale(0.1 -0.1)">
     <defs>
      <path id="NotoSansMath-Regular-65" d="M 2003 -64 
Q 1517 -64 1142 134 
Q 768 333 560 726 
Q 352 1120 352 1690 
Q 352 2253 541 2656 
Q 730 3059 1072 3276 
Q 1414 3494 1869 3494 
Q 2310 3494 2627 3302 
Q 2944 3110 3113 2761 
Q 3283 2413 3283 1946 
L 3283 1606 
L 934 1606 
Q 947 1024 1232 720 
Q 1517 416 2029 416 
Q 2355 416 2608 477 
Q 2861 538 3130 653 
L 3130 160 
Q 2867 45 2611 -9 
Q 2355 -64 2003 -64 
z
M 947 2054 
L 2694 2054 
Q 2694 2490 2492 2762 
Q 2291 3034 1862 3034 
Q 1459 3034 1225 2774 
Q 992 2515 947 2054 
z
" transform="scale(0.015625)"/>
     </defs>
     <use xlink:href="#NotoSansMath-Regular-63"/>
     <use xlink:href="#NotoSansMath-Regular-61" x="47.999985"/>
     <use xlink:href="#NotoSansMath-Regular-72" x="104.099976"/>
     <use xlink:href="#NotoSansMath-Regular-74" x="145.399963"/>
     <use xlink:href="#NotoSansMath-Regular-65" x="181.499954"/>
     <use xlink:href="#NotoSansMath-Regular-73" x="237.899948"/>
     <use xlink:href="#NotoSansMath-Regular-69" x="285.799942"/>
     <use xlink:href="#NotoSansMath-Regular-61" x="311.59993"/>
     <use xlink:href="#NotoSansMath-Regular-6e" x="367.699921"/>
    </g>
   </g>
   <g id="text_4">
    <!-- 31.9% -->
    <g transform="translate(292.391114 149.935237) scale(0.1 -0.1)">
     <defs>
      <path id="NotoSansMath-Regular-33" d="M 1542 -64 
Q 1184 -64 877 -9 
Q 570 45 288 186 
L 288 710 
Q 576 570 909 490 
Q 1242 410 1549 410 
Q 2163 410 2435 650 
Q 2707 890 2707 1312 
Q 2707 1741 2371 1929 
Q 2035 2118 1427 2118 
L 986 2118 
L 986 2598 
L 1434 2598 
Q 1997 2598 2288 2835 
Q 2579 3072 2579 3462 
Q 2579 3795 2355 3977 
Q 2131 4160 1747 4160 
Q 1376 4160 1113 4051 
Q 851 3942 595 3776 
L 314 4160 
Q 557 4352 918 4493 
Q 1280 4634 1741 4634 
Q 2458 4634 2806 4314 
Q 3155 3994 3155 3501 
Q 3155 3040 2899 2768 
Q 2643 2496 2208 2406 
L 2208 2381 
Q 2758 2317 3027 2035 
Q 3296 1754 3296 1299 
Q 3296 902 3110 592 
Q 2925 282 2537 109 
Q 2150 -64 1542 -64 
z
" transform="scale(0.015625)"/>
      <path id="NotoSansMath-Regular-31" d="M 1722 0 
L 1722 3194 
Q 1722 3469 1728 3635 
Q 1734 3802 1747 3981 
Q 1645 3885 1561 3811 
Q 1478 3738 1350 3629 
L 864 3232 
L 570 3610 
L 1805 4570 
L 2272 4570 
L 2272 0 
L 1722 0 
z
" transform="scale(0.015625)"/>
     </defs>
     <use xlink:href="#NotoSansMath-Regular-33"/>
     <use xlink:href="#NotoSansMath-Regular-31" x="57.199997"/>
     <use xlink:href="#NotoSansMath-Regular-2e" x="114.399994"/>
     <use xlink:href="#NotoSansMath-Regular-39" x="141.199982"/>
     <use xlink:href="#NotoSansMath-Regular-25" x="198.399979"/>
    </g>
   </g>
   <g id="text_5">
    <!-- deformed -->
    <g transform="translate(180.84306 321.358025) scale(0.1 -0.1)">
     <defs>
      <path id="NotoSansMath-Regular-66" d="M 698 0 
L 698 2995 
L 96 2995 
L 96 3258 
L 698 3450 
L 698 3648 
Q 698 4314 992 4605 
Q 1286 4896 1811 4896 
Q 2016 4896 2185 4861 
Q 2355 4826 2477 4781 
L 2330 4339 
Q 2227 4371 2092 4403 
Q 1958 4435 1818 4435 
Q 1536 4435 1398 4246 
Q 1261 4058 1261 3654 
L 1261 3430 
L 2125 3430 
L 2125 2995 
L 1261 2995 
L 1261 0 
L 698 0 
z
" transform="scale(0.015625)"/>
      <path id="NotoSansMath-Regular-6d" d="M 544 0 
L 544 3430 
L 998 3430 
L 1082 2963 
L 1114 2963 
Q 1274 3232 1546 3363 
Q 1818 3494 2125 3494 
Q 2931 3494 3174 2918 
L 3206 2918 
Q 3379 3213 3676 3353 
Q 3974 3494 4307 3494 
Q 4890 3494 5178 3196 
Q 5466 2899 5466 2234 
L 5466 0 
L 4909 0 
L 4909 2208 
Q 4909 3021 4211 3021 
Q 3712 3021 3497 2733 
Q 3283 2445 3283 1894 
L 3283 0 
L 2726 0 
L 2726 2208 
Q 2726 3021 2022 3021 
Q 1504 3021 1305 2701 
Q 1107 2381 1107 1779 
L 1107 0 
L 544 0 
z
" transform="scale(0.015625)"/>
     </defs>
     <use xlink:href="#NotoSansMath-Regular-64"/>
     <use xlink:href="#NotoSansMath-Regular-65" x="61.499985"/>
     <use xlink:href="#NotoSansMath-Regular-66" x="117.899979"/>
     <use xlink:href="#NotoSansMath-Regular-6f" x="152.299973"/>
     <use xlink:href="#NotoSansMath-Regular-72" x="212.799957"/>
     <use xlink:href="#NotoSansMath-Regular-6d" x="254.099945"/>
     <use xlink:href="#NotoSansMath-Regular-65" x="347.59993"/>
     <use xlink:href="#NotoSansMath-Regular-64" x="403.999924"/>
    </g>
   </g>
   <g id="text_6">
    <!-- 44.8% -->
    <g transform="translate(250.733831 275.63165) scale(0.1 -0.1)">
     <defs>
      <path id="NotoSansMath-Regular-34" d="M 2323 0 
L 2323 1037 
L 134 1037 
L 134 1517 
L 2285 4595 
L 2867 4595 
L 2867 1542 
L 3533 1542 
L 3533 1037 
L 2867 1037 
L 2867 0 
L 2323 0 
z
M 685 1542 
L 2323 1542 
L 2323 2982 
Q 2323 3315 2332 3548 
Q 2342 3782 2355 3994 
L 2330 3994 
Q 2278 3872 2201 3731 
Q 2125 3590 2054 3494 
L 685 1542 
z
" transform="scale(0.015625)"/>
     </defs>
     <use xlink:href="#NotoSansMath-Regular-34"/>
     <use xlink:href="#NotoSansMath-Regular-34" x="57.199997"/>
     <use xlink:href="#NotoSansMath-Regular-2e" x="114.399994"/>
     <use xlink:href="#NotoSansMath-Regular-38" x="141.199982"/>
     <use xlink:href="#NotoSansMath-Regular-25" x="198.399979"/>
    </g>
   </g>
   <g id="text_7">
    <!-- prolong/restrict -->
    <g transform="translate(412.515592 300.291566) scale(0.1 -0.1)">
     <defs>
      <path id="NotoSansMath-Regular-70" d="M 544 -1536 
L 544 3430 
L 1005 3430 
L 1082 2963 
L 1107 2963 
Q 1261 3187 1510 3340 
Q 1760 3494 2176 3494 
Q 2810 3494 3197 3052 
Q 3584 2611 3584 1722 
Q 3584 845 3197 390 
Q 2810 -64 2170 -64 
Q 1773 -64 1513 86 
Q 1254 237 1107 435 
L 1069 435 
Q 1082 326 1094 160 
Q 1107 -6 1107 -128 
L 1107 -1536 
L 544 -1536 
z
M 2086 403 
Q 2400 403 2601 576 
Q 2803 749 2902 1046 
Q 3002 1344 3002 1728 
Q 3002 2317 2774 2669 
Q 2547 3021 2074 3021 
Q 1549 3021 1334 2726 
Q 1120 2432 1107 1830 
L 1107 1722 
Q 1107 1088 1315 745 
Q 1523 403 2086 403 
z
" transform="scale(0.015625)"/>
      <path id="NotoSansMath-Regular-6c" d="M 544 0 
L 544 4864 
L 1107 4864 
L 1107 0 
L 544 0 
z
" transform="scale(0.015625)"/>
      <path id="NotoSansMath-Regular-67" d="M 1856 -1536 
Q 1101 -1536 621 -1318 
L 621 -800 
Q 1126 -1069 1888 -1069 
Q 2330 -1069 2582 -809 
Q 2835 -550 2835 -102 
L 2835 32 
Q 2835 109 2841 253 
Q 2848 397 2854 454 
L 2829 454 
Q 2483 -64 1766 -64 
Q 1101 -64 726 403 
Q 352 870 352 1709 
Q 352 2528 726 3011 
Q 1101 3494 1760 3494 
Q 2099 3494 2371 3366 
Q 2643 3238 2835 2976 
L 2867 2976 
L 2944 3430 
L 3392 3430 
L 3392 -58 
Q 3392 -794 3017 -1165 
Q 2643 -1536 1856 -1536 
z
M 1850 397 
Q 2368 397 2605 675 
Q 2842 954 2842 1574 
L 2842 1709 
Q 2842 2413 2598 2717 
Q 2355 3021 1837 3021 
Q 1408 3021 1171 2678 
Q 934 2336 934 1702 
Q 934 1069 1168 733 
Q 1402 397 1850 397 
z
" transform="scale(0.015625)"/>
      <path id="NotoSansMath-Regular-2f" d="M 64 0 
L 1766 4570 
L 2317 4570 
L 614 0 
L 64 0 
z
" transform="scale(0.015625)"/>
     </defs>
     <use xlink:href="#NotoSansMath-Regular-70"/>
     <use xlink:href="#NotoSansMath-Regular-72" x="61.499985"/>
     <use xlink:href="#NotoSansMath-Regular-6f" x="102.799973"/>
     <use xlink:href="#NotoSansMath-Regular-6c" x="163.299957"/>
     <use xlink:href="#NotoSansMath-Regular-6f" x="189.099945"/>
     <use xlink:href="#NotoSansMath-Regular-6e" x="249.59993"/>
     <use xlink:href="#NotoSansMath-Regular-67" x="311.399918"/>
     <use xlink:href="#NotoSansMath-Regular-2f" x="372.899902"/>
     <use xlink:href="#NotoSansMath-Regular-72" x="410.099899"/>
     <use xlink:href="#NotoSansMath-Regular-65" x="451.399887"/>
     <use xlink:href="#NotoSansMath-Regular-73" x="507.799881"/>
     <use xlink:href="#NotoSansMath-Regular-74" x="555.699875"/>
     <use xlink:href="#NotoSansMath-Regular-72" x="591.799866"/>
     <use xlink:href="#NotoSansMath-Regular-69" x="633.099854"/>
     <use xlink:href="#NotoSansMath-Regular-63" x="658.899841"/>
     <use xlink:href="#NotoSansMath-Regular-74" x="706.899826"/>
    </g>
   </g>
   <g id="text_8">
    <!-- 6.0% -->
    <g transform="translate(354.569062 264.140854) scale(0.1 -0.1)">
     <defs>
      <path id="NotoSansMath-Regular-36" d="M 1907 -64 
Q 1472 -64 1120 153 
Q 768 371 560 819 
Q 352 1267 352 1952 
Q 352 2445 438 2921 
Q 525 3398 752 3785 
Q 979 4173 1388 4403 
Q 1798 4634 2445 4634 
Q 2579 4634 2742 4621 
Q 2906 4608 3008 4576 
L 3008 4096 
Q 2893 4134 2749 4153 
Q 2605 4173 2458 4173 
Q 2016 4173 1721 4025 
Q 1427 3878 1257 3622 
Q 1088 3366 1011 3033 
Q 934 2701 915 2323 
L 954 2323 
Q 1101 2547 1363 2704 
Q 1626 2861 2035 2861 
Q 2630 2861 2995 2499 
Q 3360 2138 3360 1472 
Q 3360 755 2966 345 
Q 2573 -64 1907 -64 
z
M 1901 410 
Q 2304 410 2553 669 
Q 2803 928 2803 1472 
Q 2803 1907 2582 2163 
Q 2362 2419 1920 2419 
Q 1619 2419 1395 2294 
Q 1171 2170 1046 1978 
Q 922 1786 922 1581 
Q 922 1306 1030 1034 
Q 1139 762 1356 586 
Q 1574 410 1901 410 
z
" transform="scale(0.015625)"/>
      <path id="NotoSansMath-Regular-30" d="M 1824 -64 
Q 1050 -64 682 560 
Q 314 1184 314 2291 
Q 314 3034 464 3558 
Q 614 4083 947 4361 
Q 1280 4640 1824 4640 
Q 2592 4640 2969 4022 
Q 3347 3405 3347 2291 
Q 3347 1555 3193 1027 
Q 3040 499 2707 217 
Q 2374 -64 1824 -64 
z
M 1824 416 
Q 2336 416 2557 880 
Q 2778 1344 2778 2291 
Q 2778 3226 2557 3693 
Q 2336 4160 1824 4160 
Q 1306 4160 1091 3693 
Q 877 3226 877 2291 
Q 877 1350 1091 883 
Q 1306 416 1824 416 
z
" transform="scale(0.015625)"/>
     </defs>
     <use xlink:href="#NotoSansMath-Regular-36"/>
     <use xlink:href="#NotoSansMath-Regular-2e" x="57.199997"/>
     <use xlink:href="#NotoSansMath-Regular-30" x="83.999985"/>
     <use xlink:href="#NotoSansMath-Regular-25" x="141.199982"/>
    </g>
   </g>
   <g id="text_9">
    <!-- kernel: -->
    <g transform="translate(290.391507 36.806118) scale(0.12 -0.12)">
     <defs>
      <path id="NotoSansMath-Regular-6b" d="M 544 0 
L 544 4864 
L 1101 4864 
L 1101 2323 
Q 1101 2221 1094 2054 
Q 1088 1888 1075 1766 
L 1101 1766 
Q 1139 1818 1216 1914 
Q 1293 2010 1373 2109 
Q 1453 2208 1510 2272 
L 2605 3430 
L 3264 3430 
L 1875 1965 
L 3360 0 
L 2682 0 
L 1491 1600 
L 1101 1261 
L 1101 0 
L 544 0 
z
" transform="scale(0.015625)"/>
      <path id="NotoSansMath-Regular-3a" d="M 851 2650 
Q 691 2650 576 2752 
Q 461 2854 461 3085 
Q 461 3328 576 3424 
Q 691 3520 851 3520 
Q 1018 3520 1136 3424 
Q 1254 3328 1254 3085 
Q 1254 2854 1136 2752 
Q 1018 2650 851 2650 
z
M 851 -90 
Q 691 -90 576 12 
Q 461 115 461 346 
Q 461 582 576 678 
Q 691 774 851 774 
Q 1018 774 1136 678 
Q 1254 582 1254 346 
Q 1254 115 1136 12 
Q 1018 -90 851 -90 
z
" transform="scale(0.015625)"/>
     </defs>
     <use xlink:href="#NotoSansMath-Regular-6b"/>
     <use xlink:href="#NotoSansMath-Regular-65" x="53.399994"/>
     <use xlink:href="#NotoSansMath-Regular-72" x="109.799988"/>
     <use xlink:href="#NotoSansMath-Regular-6e" x="151.099976"/>
     <use xlink:href="#NotoSansMath-Regular-65" x="212.899963"/>
     <use xlink:href="#NotoSansMath-Regular-6c" x="269.299957"/>
     <use xlink:href="#NotoSansMath-Regular-3a" x="295.099945"/>
    </g>
    <!-- 41051500 (element*iteration)s in 48.1 s -->
    <g transform="translate(199.017132 50.630118) scale(0.12 -0.12)">
     <defs>
      <path id="NotoSansMath-Regular-35" d="M 1587 -64 
Q 1235 -64 924 0 
Q 614 64 403 186 
L 403 717 
Q 634 576 963 496 
Q 1293 416 1594 416 
Q 2099 416 2409 656 
Q 2720 896 2720 1402 
Q 2720 1850 2445 2090 
Q 2170 2330 1574 2330 
Q 1395 2330 1164 2298 
Q 934 2266 794 2234 
L 512 2413 
L 685 4570 
L 2976 4570 
L 2976 4058 
L 1165 4058 
L 1056 2733 
Q 1165 2752 1350 2777 
Q 1536 2803 1760 2803 
Q 2464 2803 2880 2451 
Q 3296 2099 3296 1459 
Q 3296 749 2845 342 
Q 2394 -64 1587 -64 
z
" transform="scale(0.015625)"/>
      <path id="NotoSansMath-Regular-28" d="M 1197 -1011 
Q 710 -448 483 265 
Q 256 979 256 1754 
Q 256 2534 483 3260 
Q 710 3987 1197 4570 
L 1728 4570 
Q 1280 3968 1053 3245 
Q 826 2522 826 1760 
Q 826 1018 1053 304 
Q 1280 -410 1722 -1011 
L 1197 -1011 
z
" transform="scale(0.015625)"/>
      <path id="NotoSansMath-Regular-2a" d="M 1248 1984 
L 678 2285 
L 1427 3296 
L 262 3392 
L 352 3981 
L 1568 3635 
L 1434 4864 
L 2061 4864 
L 1933 3635 
L 3162 3981 
L 3251 3392 
L 2074 3296 
L 2835 2285 
L 2285 1984 
L 1741 3104 
L 1248 1984 
z
" transform="scale(0.015625)"/>
      <path id="NotoSansMath-Regular-29" d="M 198 -1011 
Q 640 -410 867 304 
Q 1094 1018 1094 1760 
Q 1094 2522 867 3245 
Q 640 3968 192 4570 
L 723 4570 
Q 1210 3987 1437 3260 
Q 1664 2534 1664 1754 
Q 1664 979 1437 265 
Q 1210 -448 723 -1011 
L 198 -1011 
z
" transform="scale(0.015625)"/>
     </defs>
     <use xlink:href="#NotoSansMath-Regular-34"/>
     <use xlink:href="#NotoSansMath-Regular-31" x="57.199997"/>
     <use xlink:href="#NotoSansMath-Regular-30" x="114.399994"/>
     <use xlink:href="#NotoSansMath-Regular-35" x="171.599991"/>
     <use xlink:href="#NotoSansMath-Regular-31" x="228.799988"/>
     <use xlink:href="#NotoSansMath-Regular-35" x="285.999985"/>
     <use xlink:href="#NotoSansMath-Regular-30" x="343.199982"/>
     <use xlink:href="#NotoSansMath-Regular-30" x="400.399979"/>
     <use xlink:href="#NotoSansMath-Regular-20" x="457.599976"/>
     <use xlink:href="#NotoSansMath-Regular-28" x="483.59996"/>
     <use xlink:href="#NotoSansMath-Regular-65" x="513.599945"/>
     <use xlink:href="#NotoSansMath-Regular-6c" x="569.999939"/>
     <use xlink:href="#NotoSansMath-Regular-65" x="595.799927"/>
     <use xlink:href="#NotoSansMath-Regular-6d" x="652.199921"/>
     <use xlink:href="#NotoSansMath-Regular-65" x="745.699905"/>
     <use xlink:href="#NotoSansMath-Regular-6e" x="802.099899"/>
     <use xlink:href="#NotoSansMath-Regular-74" x="863.899887"/>
     <use xlink:href="#NotoSansMath-Regular-2a" x="899.999878"/>
     <use xlink:href="#NotoSansMath-Regular-69" x="955.099869"/>
     <use xlink:href="#NotoSansMath-Regular-74" x="980.899857"/>
     <use xlink:href="#NotoSansMath-Regular-65" x="1016.999847"/>
     <use xlink:href="#NotoSansMath-Regular-72" x="1073.399841"/>
     <use xlink:href="#NotoSansMath-Regular-61" x="1114.699829"/>
     <use xlink:href="#NotoSansMath-Regular-74" x="1170.79982"/>
     <use xlink:href="#NotoSansMath-Regular-69" x="1206.899811"/>
     <use xlink:href="#NotoSansMath-Regular-6f" x="1232.699799"/>
     <use xlink:href="#NotoSansMath-Regular-6e" x="1293.199783"/>
     <use xlink:href="#NotoSansMath-Regular-29" x="1354.999771"/>
     <use xlink:href="#NotoSansMath-Regular-73" x="1384.999756"/>
     <use xlink:href="#NotoSansMath-Regular-20" x="1432.89975"/>
     <use xlink:href="#NotoSansMath-Regular-69" x="1458.899734"/>
     <use xlink:href="#NotoSansMath-Regular-6e" x="1484.699722"/>
     <use xlink:href="#NotoSansMath-Regular-20" x="1546.49971"/>
     <use xlink:href="#NotoSansMath-Regular-34" x="1572.499695"/>
     <use xlink:href="#NotoSansMath-Regular-38" x="1629.699692"/>
     <use xlink:href="#NotoSansMath-Regular-2e" x="1686.899689"/>
     <use xlink:href="#NotoSansMath-Regular-31" x="1713.699677"/>
     <use xlink:href="#NotoSansMath-Regular-20" x="1770.899673"/>
     <use xlink:href="#NotoSansMath-Regular-73" x="1796.899658"/>
    </g>
    <!-- at 1.17e-06 per (element*iteration) -->
    <g transform="translate(211.774632 64.454118) scale(0.12 -0.12)">
     <defs>
      <path id="NotoSansMath-Regular-37" d="M 870 0 
L 2746 4058 
L 282 4058 
L 282 4570 
L 3347 4570 
L 3347 4134 
L 1491 0 
L 870 0 
z
" transform="scale(0.015625)"/>
      <path id="NotoSansMath-Regular-2d" d="M 256 1466 
L 256 1965 
L 1805 1965 
L 1805 1466 
L 256 1466 
z
" transform="scale(0.015625)"/>
     </defs>
     <use xlink:href="#NotoSansMath-Regular-61"/>
     <use xlink:href="#NotoSansMath-Regular-74" x="56.099991"/>
     <use xlink:href="#NotoSansMath-Regular-20" x="92.199982"/>
     <use xlink:href="#NotoSansMath-Regular-31" x="118.199966"/>
     <use xlink:href="#NotoSansMath-Regular-2e" x="175.399963"/>
     <use xlink:href="#NotoSansMath-Regular-31" x="202.199951"/>
     <use xlink:href="#NotoSansMath-Regular-37" x="259.399948"/>
     <use xlink:href="#NotoSansMath-Regular-65" x="316.599945"/>
     <use xlink:href="#NotoSansMath-Regular-2d" x="372.999939"/>
     <use xlink:href="#NotoSansMath-Regular-30" x="405.199936"/>
     <use xlink:href="#NotoSansMath-Regular-36" x="462.399933"/>
     <use xlink:href="#NotoSansMath-Regular-20" x="519.59993"/>
     <use xlink:href="#NotoSansMath-Regular-70" x="545.599915"/>
     <use xlink:href="#NotoSansMath-Regular-65" x="607.099899"/>
     <use xlink:href="#NotoSansMath-Regular-72" x="663.499893"/>
     <use xlink:href="#NotoSansMath-Regular-20" x="704.799881"/>
     <use xlink:href="#NotoSansMath-Regular-28" x="730.799866"/>
     <use xlink:href="#NotoSansMath-Regular-65" x="760.79985"/>
     <use xlink:href="#NotoSansMath-Regular-6c" x="817.199844"/>
     <use xlink:href="#NotoSansMath-Regular-65" x="842.999832"/>
     <use xlink:href="#NotoSansMath-Regular-6d" x="899.399826"/>
     <use xlink:href="#NotoSansMath-Regular-65" x="992.899811"/>
     <use xlink:href="#NotoSansMath-Regular-6e" x="1049.299805"/>
     <use xlink:href="#NotoSansMath-Regular-74" x="1111.099792"/>
     <use xlink:href="#NotoSansMath-Regular-2a" x="1147.199783"/>
     <use xlink:href="#NotoSansMath-Regular-69" x="1202.299774"/>
     <use xlink:href="#NotoSansMath-Regular-74" x="1228.099762"/>
     <use xlink:href="#NotoSansMath-Regular-65" x="1264.199753"/>
     <use xlink:href="#NotoSansMath-Regular-72" x="1320.599747"/>
     <use xlink:href="#NotoSansMath-Regular-61" x="1361.899734"/>
     <use xlink:href="#NotoSansMath-Regular-74" x="1417.999725"/>
     <use xlink:href="#NotoSansMath-Regular-69" x="1454.099716"/>
     <use xlink:href="#NotoSansMath-Regular-6f" x="1479.899704"/>
     <use xlink:href="#NotoSansMath-Regular-6e" x="1540.399689"/>
     <use xlink:href="#NotoSansMath-Regular-29" x="1602.199677"/>
    </g>
   </g>
  </g>
  <g id="axes_2">
   <g id="patch_6">
    <path d="M 782.364706 218.16 
C 782.364706 199.232744 777.817142 180.579635 769.106098 163.776102 
C 760.395053 146.972568 747.772876 132.505384 732.305623 121.596437 
L 664.2 218.16 
z
" style="fill: #1f77b4"/>
   </g>
   <g id="patch_7">
    <path d="M 732.305623 121.596437 
C 717.376906 111.067314 700.207872 104.142195 682.151666 101.366869 
C 664.095459 98.591543 645.63923 100.040888 628.23757 105.600676 
C 610.835909 111.160465 594.958309 120.680695 581.856129 133.411049 
C 568.753949 146.141404 558.780684 161.738421 552.722355 178.972855 
C 546.664026 196.207288 544.684086 214.614156 546.938579 232.742761 
C 549.193073 250.871365 555.621174 268.2326 565.716266 283.458176 
C 575.811358 298.683752 589.301077 311.362886 605.122259 320.4963 
C 620.943441 329.629713 638.669235 334.970987 656.902618 336.099162 
L 664.2 218.16 
z
" style="fill: #ff7f0e"/>
   </g>
   <g id="patch_8">
    <path d="M 656.902618 336.099162 
C 679.478686 337.496036 701.988099 332.381659 721.744023 321.366507 
C 741.499947 310.351355 757.683756 293.891863 768.363671 273.952718 
L 664.2 218.16 
z
" style="fill: #2ca02c"/>
   </g>
   <g id="patch_9">
    <path d="M 768.363671 273.952718 
C 772.80508 265.660714 776.240508 256.867953 778.596937 247.761325 
C 780.953366 238.654696 782.213981 229.299181 782.351988 219.89363 
L 664.2 218.16 
z
" style="fill: #d62728"/>
   </g>
   <g id="text_10">
    <!-- compute time step -->
    <g transform="translate(779.596707 160.937712) scale(0.1 -0.1)">
     <use xlink:href="#NotoSansMath-Regular-63"/>
     <use xlink:href="#NotoSansMath-Regular-6f" x="47.999985"/>
     <use xlink:href="#NotoSansMath-Regular-6d" x="108.499969"/>
     <use xlink:href="#NotoSansMath-Regular-70" x="201.999954"/>
     <use xlink:href="#NotoSansMath-Regular-75" x="263.499939"/>
     <use xlink:href="#NotoSansMath-Regular-74" x="325.299927"/>
     <use xlink:href="#NotoSansMath-Regular-65" x="361.399918"/>
     <use xlink:href="#NotoSansMath-Regular-20" x="417.799911"/>
     <use xlink:href="#NotoSansMath-Regular-74" x="443.799896"/>
     <use xlink:href="#NotoSansMath-Regular-69" x="479.899887"/>
     <use xlink:href="#NotoSansMath-Regular-6d" x="505.699875"/>
     <use xlink:href="#NotoSansMath-Regular-65" x="599.19986"/>
     <use xlink:href="#NotoSansMath-Regular-20" x="655.599854"/>
     <use xlink:href="#NotoSansMath-Regular-73" x="681.599838"/>
     <use xlink:href="#NotoSansMath-Regular-74" x="729.499832"/>
     <use xlink:href="#NotoSansMath-Regular-65" x="765.599823"/>
     <use xlink:href="#NotoSansMath-Regular-70" x="821.999817"/>
    </g>
   </g>
   <g id="text_11">
    <!-- 15.2% -->
    <g transform="translate(713.068659 188.129661) scale(0.1 -0.1)">
     <defs>
      <path id="NotoSansMath-Regular-32" d="M 307 0 
L 307 467 
L 1504 1677 
Q 1850 2022 2086 2291 
Q 2323 2560 2444 2819 
Q 2566 3078 2566 3386 
Q 2566 3763 2342 3958 
Q 2118 4154 1760 4154 
Q 1427 4154 1174 4038 
Q 922 3923 659 3718 
L 358 4096 
Q 627 4320 976 4477 
Q 1325 4634 1760 4634 
Q 2400 4634 2771 4310 
Q 3142 3987 3142 3418 
Q 3142 3059 2995 2748 
Q 2848 2438 2585 2131 
Q 2323 1824 1971 1478 
L 1018 538 
L 1018 512 
L 3328 512 
L 3328 0 
L 307 0 
z
" transform="scale(0.015625)"/>
     </defs>
     <use xlink:href="#NotoSansMath-Regular-31"/>
     <use xlink:href="#NotoSansMath-Regular-35" x="57.199997"/>
     <use xlink:href="#NotoSansMath-Regular-2e" x="114.399994"/>
     <use xlink:href="#NotoSansMath-Regular-32" x="141.199982"/>
     <use xlink:href="#NotoSansMath-Regular-25" x="198.399979"/>
    </g>
   </g>
   <g id="text_12">
    <!-- local -->
    <g transform="translate(519.95584 177.65414) scale(0.1 -0.1)">
     <use xlink:href="#NotoSansMath-Regular-6c"/>
     <use xlink:href="#NotoSansMath-Regular-6f" x="25.799988"/>
     <use xlink:href="#NotoSansMath-Regular-63" x="86.299973"/>
     <use xlink:href="#NotoSansMath-Regular-61" x="134.299957"/>
     <use xlink:href="#NotoSansMath-Regular-6c" x="190.399948"/>
    </g>
   </g>
   <g id="text_13">
    <!-- 58.8% -->
    <g transform="translate(583.238413 197.247713) scale(0.1 -0.1)">
     <use xlink:href="#NotoSansMath-Regular-35"/>
     <use xlink:href="#NotoSansMath-Regular-38" x="57.199997"/>
     <use xlink:href="#NotoSansMath-Regular-2e" x="114.399994"/>
     <use xlink:href="#NotoSansMath-Regular-38" x="141.199982"/>
     <use xlink:href="#NotoSansMath-Regular-25" x="198.399979"/>
    </g>
   </g>
   <g id="text_14">
    <!-- neighbor -->
    <g transform="translate(727.498426 334.287158) scale(0.1 -0.1)">
     <defs>
      <path id="NotoSansMath-Regular-68" d="M 544 0 
L 544 4864 
L 1107 4864 
L 1107 3437 
Q 1107 3181 1075 2957 
L 1114 2957 
Q 1280 3219 1565 3353 
Q 1850 3488 2182 3488 
Q 2810 3488 3123 3190 
Q 3437 2893 3437 2234 
L 3437 0 
L 2880 0 
L 2880 2195 
Q 2880 3021 2112 3021 
Q 1536 3021 1321 2697 
Q 1107 2374 1107 1773 
L 1107 0 
L 544 0 
z
" transform="scale(0.015625)"/>
     </defs>
     <use xlink:href="#NotoSansMath-Regular-6e"/>
     <use xlink:href="#NotoSansMath-Regular-65" x="61.799988"/>
     <use xlink:href="#NotoSansMath-Regular-69" x="118.199982"/>
     <use xlink:href="#NotoSansMath-Regular-67" x="143.999969"/>
     <use xlink:href="#NotoSansMath-Regular-68" x="205.499954"/>
     <use xlink:href="#NotoSansMath-Regular-62" x="267.299942"/>
     <use xlink:href="#NotoSansMath-Regular-6f" x="328.799927"/>
     <use xlink:href="#NotoSansMath-Regular-72" x="389.299911"/>
    </g>
   </g>
   <g id="text_15">
    <!-- 18.2% -->
    <g transform="translate(684.651414 282.683904) scale(0.1 -0.1)">
     <use xlink:href="#NotoSansMath-Regular-31"/>
     <use xlink:href="#NotoSansMath-Regular-38" x="57.199997"/>
     <use xlink:href="#NotoSansMath-Regular-2e" x="114.399994"/>
     <use xlink:href="#NotoSansMath-Regular-32" x="141.199982"/>
     <use xlink:href="#NotoSansMath-Regular-25" x="198.399979"/>
    </g>
   </g>
   <g id="text_16">
    <!-- reconcile LDG flux -->
    <g transform="translate(790.036631 253.321457) scale(0.1 -0.1)">
     <defs>
      <path id="NotoSansMath-Regular-4c" d="M 621 0 
L 621 4570 
L 1197 4570 
L 1197 512 
L 3194 512 
L 3194 0 
L 621 0 
z
" transform="scale(0.015625)"/>
      <path id="NotoSansMath-Regular-44" d="M 621 0 
L 621 4570 
L 2029 4570 
Q 2720 4570 3225 4314 
Q 3731 4058 4006 3562 
Q 4282 3066 4282 2330 
Q 4282 1171 3651 585 
Q 3021 0 1894 0 
L 621 0 
z
M 1197 493 
L 1818 493 
Q 3674 493 3674 2310 
Q 3674 3226 3222 3651 
Q 2771 4077 1946 4077 
L 1197 4077 
L 1197 493 
z
" transform="scale(0.015625)"/>
      <path id="NotoSansMath-Regular-47" d="M 2579 -64 
Q 1869 -64 1382 221 
Q 896 506 643 1034 
Q 390 1562 390 2285 
Q 390 3002 672 3526 
Q 954 4051 1482 4342 
Q 2010 4634 2758 4634 
Q 3142 4634 3484 4563 
Q 3827 4493 4122 4365 
L 3904 3866 
Q 3661 3974 3357 4051 
Q 3053 4128 2726 4128 
Q 1907 4128 1449 3635 
Q 992 3142 992 2285 
Q 992 1741 1168 1321 
Q 1344 902 1721 668 
Q 2099 435 2714 435 
Q 3014 435 3225 467 
Q 3437 499 3610 544 
L 3610 1901 
L 2605 1901 
L 2605 2413 
L 4186 2413 
L 4186 173 
Q 3814 51 3436 -6 
Q 3059 -64 2579 -64 
z
" transform="scale(0.015625)"/>
      <path id="NotoSansMath-Regular-78" d="M 115 0 
L 1357 1754 
L 173 3430 
L 813 3430 
L 1696 2138 
L 2573 3430 
L 3206 3430 
L 2022 1754 
L 3270 0 
L 2630 0 
L 1696 1370 
L 749 0 
L 115 0 
z
" transform="scale(0.015625)"/>
     </defs>
     <use xlink:href="#NotoSansMath-Regular-72"/>
     <use xlink:href="#NotoSansMath-Regular-65" x="41.299988"/>
     <use xlink:href="#NotoSansMath-Regular-63" x="97.699982"/>
     <use xlink:href="#NotoSansMath-Regular-6f" x="145.699966"/>
     <use xlink:href="#NotoSansMath-Regular-6e" x="206.199951"/>
     <use xlink:href="#NotoSansMath-Regular-63" x="267.999939"/>
     <use xlink:href="#NotoSansMath-Regular-69" x="315.999924"/>
     <use xlink:href="#NotoSansMath-Regular-6c" x="341.799911"/>
     <use xlink:href="#NotoSansMath-Regular-65" x="367.599899"/>
     <use xlink:href="#NotoSansMath-Regular-20" x="423.999893"/>
     <use xlink:href="#NotoSansMath-Regular-4c" x="449.999878"/>
     <use xlink:href="#NotoSansMath-Regular-44" x="502.399872"/>
     <use xlink:href="#NotoSansMath-Regular-47" x="575.399857"/>
     <use xlink:href="#NotoSansMath-Regular-20" x="648.199844"/>
     <use xlink:href="#NotoSansMath-Regular-66" x="674.199829"/>
     <use xlink:href="#NotoSansMath-Regular-6c" x="708.599823"/>
     <use xlink:href="#NotoSansMath-Regular-75" x="734.399811"/>
     <use xlink:href="#NotoSansMath-Regular-78" x="796.199799"/>
    </g>
   </g>
   <g id="text_17">
    <!-- 7.6% -->
    <g transform="translate(721.623319 238.520795) scale(0.1 -0.1)">
     <use xlink:href="#NotoSansMath-Regular-37"/>
     <use xlink:href="#NotoSansMath-Regular-2e" x="57.199997"/>
     <use xlink:href="#NotoSansMath-Regular-36" x="83.999985"/>
     <use xlink:href="#NotoSansMath-Regular-25" x="141.199982"/>
    </g>
   </g>
   <g id="text_18">
    <!-- cartesian: -->
    <g transform="translate(636.823125 36.806118) scale(0.12 -0.12)">
     <use xlink:href="#NotoSansMath-Regular-63"/>
     <use xlink:href="#NotoSansMath-Regular-61" x="47.999985"/>
     <use xlink:href="#NotoSansMath-Regular-72" x="104.099976"/>
     <use xlink:href="#NotoSansMath-Regular-74" x="145.399963"/>
     <use xlink:href="#NotoSansMath-Regular-65" x="181.499954"/>
     <use xlink:href="#NotoSansMath-Regular-73" x="237.899948"/>
     <use xlink:href="#NotoSansMath-Regular-69" x="285.799942"/>
     <use xlink:href="#NotoSansMath-Regular-61" x="311.59993"/>
     <use xlink:href="#NotoSansMath-Regular-6e" x="367.699921"/>
     <use xlink:href="#NotoSansMath-Regular-3a" x="429.499908"/>
    </g>
    <!-- 17871000 (element*iteration)s in 15.3 s -->
    <g transform="translate(553.51125 50.630118) scale(0.12 -0.12)">
     <use xlink:href="#NotoSansMath-Regular-31"/>
     <use xlink:href="#NotoSansMath-Regular-37" x="57.199997"/>
     <use xlink:href="#NotoSansMath-Regular-38" x="114.399994"/>
     <use xlink:href="#NotoSansMath-Regular-37" x="171.599991"/>
     <use xlink:href="#NotoSansMath-Regular-31" x="228.799988"/>
     <use xlink:href="#NotoSansMath-Regular-30" x="285.999985"/>
     <use xlink:href="#NotoSansMath-Regular-30" x="343.199982"/>
     <use xlink:href="#NotoSansMath-Regular-30" x="400.399979"/>
     <use xlink:href="#NotoSansMath-Regular-20" x="457.599976"/>
     <use xlink:href="#NotoSansMath-Regular-28" x="483.59996"/>
     <use xlink:href="#NotoSansMath-Regular-65" x="513.599945"/>
     <use xlink:href="#NotoSansMath-Regular-6c" x="569.999939"/>
     <use xlink:href="#NotoSansMath-Regular-65" x="595.799927"/>
     <use xlink:href="#NotoSansMath-Regular-6d" x="652.199921"/>
     <use xlink:href="#NotoSansMath-Regular-65" x="745.699905"/>
     <use xlink:href="#NotoSansMath-Regular-6e" x="802.099899"/>
     <use xlink:href="#NotoSansMath-Regular-74" x="863.899887"/>
     <use xlink:href="#NotoSansMath-Regular-2a" x="899.999878"/>
     <use xlink:href="#NotoSansMath-Regular-69" x="955.099869"/>
     <use xlink:href="#NotoSansMath-Regular-74" x="980.899857"/>
     <use xlink:href="#NotoSansMath-Regular-65" x="1016.999847"/>
     <use xlink:href="#NotoSansMath-Regular-72" x="1073.399841"/>
     <use xlink:href="#NotoSansMath-Regular-61" x="1114.699829"/>
     <use xlink:href="#NotoSansMath-Regular-74" x="1170.79982"/>
     <use xlink:href="#NotoSansMath-Regular-69" x="1206.899811"/>
     <use xlink:href="#NotoSansMath-Regular-6f" x="1232.699799"/>
     <use xlink:href="#NotoSansMath-Regular-6e" x="1293.199783"/>
     <use xlink:href="#NotoSansMath-Regular-29" x="1354.999771"/>
     <use xlink:href="#NotoSansMath-Regular-73" x="1384.999756"/>
     <use xlink:href="#NotoSansMath-Regular-20" x="1432.89975"/>
     <use xlink:href="#NotoSansMath-Regular-69" x="1458.899734"/>
     <use xlink:href="#NotoSansMath-Regular-6e" x="1484.699722"/>
     <use xlink:href="#NotoSansMath-Regular-20" x="1546.49971"/>
     <use xlink:href="#NotoSansMath-Regular-31" x="1572.499695"/>
     <use xlink:href="#NotoSansMath-Regular-35" x="1629.699692"/>
     <use xlink:href="#NotoSansMath-Regular-2e" x="1686.899689"/>
     <use xlink:href="#NotoSansMath-Regular-33" x="1713.699677"/>
     <use xlink:href="#NotoSansMath-Regular-20" x="1770.899673"/>
     <use xlink:href="#NotoSansMath-Regular-73" x="1796.899658"/>
    </g>
    <!-- at 8.58e-07 per (element*iteration) -->
    <g transform="translate(566.26875 64.454118) scale(0.12 -0.12)">
     <use xlink:href="#NotoSansMath-Regular-61"/>
     <use xlink:href="#NotoSansMath-Regular-74" x="56.099991"/>
     <use xlink:href="#NotoSansMath-Regular-20" x="92.199982"/>
     <use xlink:href="#NotoSansMath-Regular-38" x="118.199966"/>
     <use xlink:href="#NotoSansMath-Regular-2e" x="175.399963"/>
     <use xlink:href="#NotoSansMath-Regular-35" x="202.199951"/>
     <use xlink:href="#NotoSansMath-Regular-38" x="259.399948"/>
     <use xlink:href="#NotoSansMath-Regular-65" x="316.599945"/>
     <use xlink:href="#NotoSansMath-Regular-2d" x="372.999939"/>
     <use xlink:href="#NotoSansMath-Regular-30" x="405.199936"/>
     <use xlink:href="#NotoSansMath-Regular-37" x="462.399933"/>
     <use xlink:href="#NotoSansMath-Regular-20" x="519.59993"/>
     <use xlink:href="#NotoSansMath-Regular-70" x="545.599915"/>
     <use xlink:href="#NotoSansMath-Regular-65" x="607.099899"/>
     <use xlink:href="#NotoSansMath-Regular-72" x="663.499893"/>
     <use xlink:href="#NotoSansMath-Regular-20" x="704.799881"/>
     <use xlink:href="#NotoSansMath-Regular-28" x="730.799866"/>
     <use xlink:href="#NotoSansMath-Regular-65" x="760.79985"/>
     <use xlink:href="#NotoSansMath-Regular-6c" x="817.199844"/>
     <use xlink:href="#NotoSansMath-Regular-65" x="842.999832"/>
     <use xlink:href="#NotoSansMath-Regular-6d" x="899.399826"/>
     <use xlink:href="#NotoSansMath-Regular-65" x="992.899811"/>
     <use xlink:href="#NotoSansMath-Regular-6e" x="1049.299805"/>
     <use xlink:href="#NotoSansMath-Regular-74" x="1111.099792"/>
     <use xlink:href="#NotoSansMath-Regular-2a" x="1147.199783"/>
     <use xlink:href="#NotoSansMath-Regular-69" x="1202.299774"/>
     <use xlink:href="#NotoSansMath-Regular-74" x="1228.099762"/>
     <use xlink:href="#NotoSansMath-Regular-65" x="1264.199753"/>
     <use xlink:href="#NotoSansMath-Regular-72" x="1320.599747"/>
     <use xlink:href="#NotoSansMath-Regular-61" x="1361.899734"/>
     <use xlink:href="#NotoSansMath-Regular-74" x="1417.999725"/>
     <use xlink:href="#NotoSansMath-Regular-69" x="1454.099716"/>
     <use xlink:href="#NotoSansMath-Regular-6f" x="1479.899704"/>
     <use xlink:href="#NotoSansMath-Regular-6e" x="1540.399689"/>
     <use xlink:href="#NotoSansMath-Regular-29" x="1602.199677"/>
    </g>
   </g>
  </g>
  <g id="axes_3">
   <g id="patch_10">
    <path d="M 1136.858824 218.16 
C 1136.858824 201.528297 1133.347451 185.082448 1126.55499 169.901012 
C 1119.762529 154.719575 1109.840787 141.141847 1097.440455 130.058286 
L 1018.694118 218.16 
z
" style="fill: #1f77b4"/>
   </g>
   <g id="patch_11">
    <path d="M 1097.440455 130.058286 
C 1082.681596 116.866645 1064.84183 107.592692 1045.565424 103.091192 
C 1026.289018 98.589692 1006.186969 99.003329 987.112055 104.293978 
C 968.03714 109.584627 950.593971 119.584592 936.390259 133.372191 
C 922.186547 147.15979 911.672502 164.298002 905.817189 183.207223 
C 899.961875 202.116444 898.950888 222.197315 902.877407 241.59901 
C 906.803926 261.000705 915.543494 279.108256 928.290598 294.252716 
C 941.037702 309.397176 957.388302 321.098516 975.835385 328.27824 
C 994.282469 335.457964 1014.241325 337.8885 1033.872376 335.345828 
L 1018.694118 218.16 
z
" style="fill: #ff7f0e"/>
   </g>
   <g id="patch_12">
    <path d="M 1033.872376 335.345828 
C 1053.472157 332.807206 1072.125415 325.39148 1088.118233 313.780029 
C 1104.111051 302.168578 1116.93813 286.728271 1125.420879 268.87781 
L 1018.694118 218.16 
z
" style="fill: #2ca02c"/>
   </g>
   <g id="patch_13">
    <path d="M 1125.420879 268.87781 
C 1129.086125 261.164939 1131.904512 253.077427 1133.826616 244.757095 
C 1135.74872 236.436764 1136.76324 227.932535 1136.852385 219.393539 
L 1018.694118 218.16 
z
" style="fill: #d62728"/>
   </g>
   <g id="text_19">
    <!-- compute time step -->
    <g transform="translate(1137.341077 167.675113) scale(0.1 -0.1)">
     <use xlink:href="#NotoSansMath-Regular-63"/>
     <use xlink:href="#NotoSansMath-Regular-6f" x="47.999985"/>
     <use xlink:href="#NotoSansMath-Regular-6d" x="108.499969"/>
     <use xlink:href="#NotoSansMath-Regular-70" x="201.999954"/>
     <use xlink:href="#NotoSansMath-Regular-75" x="263.499939"/>
     <use xlink:href="#NotoSansMath-Regular-74" x="325.299927"/>
     <use xlink:href="#NotoSansMath-Regular-65" x="361.399918"/>
     <use xlink:href="#NotoSansMath-Regular-20" x="417.799911"/>
     <use xlink:href="#NotoSansMath-Regular-74" x="443.799896"/>
     <use xlink:href="#NotoSansMath-Regular-69" x="479.899887"/>
     <use xlink:href="#NotoSansMath-Regular-6d" x="505.699875"/>
     <use xlink:href="#NotoSansMath-Regular-65" x="599.19986"/>
     <use xlink:href="#NotoSansMath-Regular-20" x="655.599854"/>
     <use xlink:href="#NotoSansMath-Regular-73" x="681.599838"/>
     <use xlink:href="#NotoSansMath-Regular-74" x="729.499832"/>
     <use xlink:href="#NotoSansMath-Regular-65" x="765.599823"/>
     <use xlink:href="#NotoSansMath-Regular-70" x="821.999817"/>
    </g>
   </g>
   <g id="text_20">
    <!-- 13.4% -->
    <g transform="translate(1069.335641 191.804607) scale(0.1 -0.1)">
     <use xlink:href="#NotoSansMath-Regular-31"/>
     <use xlink:href="#NotoSansMath-Regular-33" x="57.199997"/>
     <use xlink:href="#NotoSansMath-Regular-2e" x="114.399994"/>
     <use xlink:href="#NotoSansMath-Regular-34" x="141.199982"/>
     <use xlink:href="#NotoSansMath-Regular-25" x="198.399979"/>
    </g>
   </g>
   <g id="text_21">
    <!-- local -->
    <g transform="translate(872.910746 182.311946) scale(0.1 -0.1)">
     <use xlink:href="#NotoSansMath-Regular-6c"/>
     <use xlink:href="#NotoSansMath-Regular-6f" x="25.799988"/>
     <use xlink:href="#NotoSansMath-Regular-63" x="86.299973"/>
     <use xlink:href="#NotoSansMath-Regular-61" x="134.299957"/>
     <use xlink:href="#NotoSansMath-Regular-6c" x="190.399948"/>
    </g>
   </g>
   <g id="text_22">
    <!-- 63.7% -->
    <g transform="translate(936.89296 199.788334) scale(0.1 -0.1)">
     <use xlink:href="#NotoSansMath-Regular-36"/>
     <use xlink:href="#NotoSansMath-Regular-33" x="57.199997"/>
     <use xlink:href="#NotoSansMath-Regular-2e" x="114.399994"/>
     <use xlink:href="#NotoSansMath-Regular-37" x="141.199982"/>
     <use xlink:href="#NotoSansMath-Regular-25" x="198.399979"/>
    </g>
   </g>
   <g id="text_23">
    <!-- neighbor -->
    <g transform="translate(1095.060644 325.942032) scale(0.1 -0.1)">
     <use xlink:href="#NotoSansMath-Regular-6e"/>
     <use xlink:href="#NotoSansMath-Regular-65" x="61.799988"/>
     <use xlink:href="#NotoSansMath-Regular-69" x="118.199982"/>
     <use xlink:href="#NotoSansMath-Regular-67" x="143.999969"/>
     <use xlink:href="#NotoSansMath-Regular-68" x="205.499954"/>
     <use xlink:href="#NotoSansMath-Regular-62" x="267.299942"/>
     <use xlink:href="#NotoSansMath-Regular-6f" x="328.799927"/>
     <use xlink:href="#NotoSansMath-Regular-72" x="389.299911"/>
    </g>
   </g>
   <g id="text_24">
    <!-- 15.9% -->
    <g transform="translate(1046.273587 278.132017) scale(0.1 -0.1)">
     <use xlink:href="#NotoSansMath-Regular-31"/>
     <use xlink:href="#NotoSansMath-Regular-35" x="57.199997"/>
     <use xlink:href="#NotoSansMath-Regular-2e" x="114.399994"/>
     <use xlink:href="#NotoSansMath-Regular-39" x="141.199982"/>
     <use xlink:href="#NotoSansMath-Regular-25" x="198.399979"/>
    </g>
   </g>
   <g id="text_25">
    <!-- reconcile LDG flux -->
    <g transform="translate(1145.339866 250.016805) scale(0.1 -0.1)">
     <use xlink:href="#NotoSansMath-Regular-72"/>
     <use xlink:href="#NotoSansMath-Regular-65" x="41.299988"/>
     <use xlink:href="#NotoSansMath-Regular-63" x="97.699982"/>
     <use xlink:href="#NotoSansMath-Regular-6f" x="145.699966"/>
     <use xlink:href="#NotoSansMath-Regular-6e" x="206.199951"/>
     <use xlink:href="#NotoSansMath-Regular-63" x="267.999939"/>
     <use xlink:href="#NotoSansMath-Regular-69" x="315.999924"/>
     <use xlink:href="#NotoSansMath-Regular-6c" x="341.799911"/>
     <use xlink:href="#NotoSansMath-Regular-65" x="367.599899"/>
     <use xlink:href="#NotoSansMath-Regular-20" x="423.999893"/>
     <use xlink:href="#NotoSansMath-Regular-4c" x="449.999878"/>
     <use xlink:href="#NotoSansMath-Regular-44" x="502.399872"/>
     <use xlink:href="#NotoSansMath-Regular-47" x="575.399857"/>
     <use xlink:href="#NotoSansMath-Regular-20" x="648.199844"/>
     <use xlink:href="#NotoSansMath-Regular-66" x="674.199829"/>
     <use xlink:href="#NotoSansMath-Regular-6c" x="708.599823"/>
     <use xlink:href="#NotoSansMath-Regular-75" x="734.399811"/>
     <use xlink:href="#NotoSansMath-Regular-78" x="796.199799"/>
    </g>
   </g>
   <g id="text_26">
    <!-- 6.9% -->
    <g transform="translate(1076.558773 236.718257) scale(0.1 -0.1)">
     <use xlink:href="#NotoSansMath-Regular-36"/>
     <use xlink:href="#NotoSansMath-Regular-2e" x="57.199997"/>
     <use xlink:href="#NotoSansMath-Regular-39" x="83.999985"/>
     <use xlink:href="#NotoSansMath-Regular-25" x="141.199982"/>
    </g>
   </g>
   <g id="text_27">
    <!-- deformed: -->
    <g transform="translate(989.155368 36.806118) scale(0.12 -0.12)">
     <use xlink:href="#NotoSansMath-Regular-64"/>
     <use xlink:href="#NotoSansMath-Regular-65" x="61.499985"/>
     <use xlink:href="#NotoSansMath-Regular-66" x="117.899979"/>
     <use xlink:href="#NotoSansMath-Regular-6f" x="152.299973"/>
     <use xlink:href="#NotoSansMath-Regular-72" x="212.799957"/>
     <use xlink:href="#NotoSansMath-Regular-6d" x="254.099945"/>
     <use xlink:href="#NotoSansMath-Regular-65" x="347.59993"/>
     <use xlink:href="#NotoSansMath-Regular-64" x="403.999924"/>
     <use xlink:href="#NotoSansMath-Regular-3a" x="465.499908"/>
    </g>
    <!-- 23180500 (element*iteration)s in 21.6 s -->
    <g transform="translate(908.005368 50.630118) scale(0.12 -0.12)">
     <use xlink:href="#NotoSansMath-Regular-32"/>
     <use xlink:href="#NotoSansMath-Regular-33" x="57.199997"/>
     <use xlink:href="#NotoSansMath-Regular-31" x="114.399994"/>
     <use xlink:href="#NotoSansMath-Regular-38" x="171.599991"/>
     <use xlink:href="#NotoSansMath-Regular-30" x="228.799988"/>
     <use xlink:href="#NotoSansMath-Regular-35" x="285.999985"/>
     <use xlink:href="#NotoSansMath-Regular-30" x="343.199982"/>
     <use xlink:href="#NotoSansMath-Regular-30" x="400.399979"/>
     <use xlink:href="#NotoSansMath-Regular-20" x="457.599976"/>
     <use xlink:href="#NotoSansMath-Regular-28" x="483.59996"/>
     <use xlink:href="#NotoSansMath-Regular-65" x="513.599945"/>
     <use xlink:href="#NotoSansMath-Regular-6c" x="569.999939"/>
     <use xlink:href="#NotoSansMath-Regular-65" x="595.799927"/>
     <use xlink:href="#NotoSansMath-Regular-6d" x="652.199921"/>
     <use xlink:href="#NotoSansMath-Regular-65" x="745.699905"/>
     <use xlink:href="#NotoSansMath-Regular-6e" x="802.099899"/>
     <use xlink:href="#NotoSansMath-Regular-74" x="863.899887"/>
     <use xlink:href="#NotoSansMath-Regular-2a" x="899.999878"/>
     <use xlink:href="#NotoSansMath-Regular-69" x="955.099869"/>
     <use xlink:href="#NotoSansMath-Regular-74" x="980.899857"/>
     <use xlink:href="#NotoSansMath-Regular-65" x="1016.999847"/>
     <use xlink:href="#NotoSansMath-Regular-72" x="1073.399841"/>
     <use xlink:href="#NotoSansMath-Regular-61" x="1114.699829"/>
     <use xlink:href="#NotoSansMath-Regular-74" x="1170.79982"/>
     <use xlink:href="#NotoSansMath-Regular-69" x="1206.899811"/>
     <use xlink:href="#NotoSansMath-Regular-6f" x="1232.699799"/>
     <use xlink:href="#NotoSansMath-Regular-6e" x="1293.199783"/>
     <use xlink:href="#NotoSansMath-Regular-29" x="1354.999771"/>
     <use xlink:href="#NotoSansMath-Regular-73" x="1384.999756"/>
     <use xlink:href="#NotoSansMath-Regular-20" x="1432.89975"/>
     <use xlink:href="#NotoSansMath-Regular-69" x="1458.899734"/>
     <use xlink:href="#NotoSansMath-Regular-6e" x="1484.699722"/>
     <use xlink:href="#NotoSansMath-Regular-20" x="1546.49971"/>
     <use xlink:href="#NotoSansMath-Regular-32" x="1572.499695"/>
     <use xlink:href="#NotoSansMath-Regular-31" x="1629.699692"/>
     <use xlink:href="#NotoSansMath-Regular-2e" x="1686.899689"/>
     <use xlink:href="#NotoSansMath-Regular-36" x="1713.699677"/>
     <use xlink:href="#NotoSansMath-Regular-20" x="1770.899673"/>
     <use xlink:href="#NotoSansMath-Regular-73" x="1796.899658"/>
    </g>
    <!-- at 9.3e-07 per (element*iteration) -->
    <g transform="translate(924.195055 64.454118) scale(0.12 -0.12)">
     <use xlink:href="#NotoSansMath-Regular-61"/>
     <use xlink:href="#NotoSansMath-Regular-74" x="56.099991"/>
     <use xlink:href="#NotoSansMath-Regular-20" x="92.199982"/>
     <use xlink:href="#NotoSansMath-Regular-39" x="118.199966"/>
     <use xlink:href="#NotoSansMath-Regular-2e" x="175.399963"/>
     <use xlink:href="#NotoSansMath-Regular-33" x="202.199951"/>
     <use xlink:href="#NotoSansMath-Regular-65" x="259.399948"/>
     <use xlink:href="#NotoSansMath-Regular-2d" x="315.799942"/>
     <use xlink:href="#NotoSansMath-Regular-30" x="347.999939"/>
     <use xlink:href="#NotoSansMath-Regular-37" x="405.199936"/>
     <use xlink:href="#NotoSansMath-Regular-20" x="462.399933"/>
     <use xlink:href="#NotoSansMath-Regular-70" x="488.399918"/>
     <use xlink:href="#NotoSansMath-Regular-65" x="549.899902"/>
     <use xlink:href="#NotoSansMath-Regular-72" x="606.299896"/>
     <use xlink:href="#NotoSansMath-Regular-20" x="647.599884"/>
     <use xlink:href="#NotoSansMath-Regular-28" x="673.599869"/>
     <use xlink:href="#NotoSansMath-Regular-65" x="703.599854"/>
     <use xlink:href="#NotoSansMath-Regular-6c" x="759.999847"/>
     <use xlink:href="#NotoSansMath-Regular-65" x="785.799835"/>
     <use xlink:href="#NotoSansMath-Regular-6d" x="842.199829"/>
     <use xlink:href="#NotoSansMath-Regular-65" x="935.699814"/>
     <use xlink:href="#NotoSansMath-Regular-6e" x="992.099808"/>
     <use xlink:href="#NotoSansMath-Regular-74" x="1053.899796"/>
     <use xlink:href="#NotoSansMath-Regular-2a" x="1089.999786"/>
     <use xlink:href="#NotoSansMath-Regular-69" x="1145.099777"/>
     <use xlink:href="#NotoSansMath-Regular-74" x="1170.899765"/>
     <use xlink:href="#NotoSansMath-Regular-65" x="1206.999756"/>
     <use xlink:href="#NotoSansMath-Regular-72" x="1263.39975"/>
     <use xlink:href="#NotoSansMath-Regular-61" x="1304.699738"/>
     <use xlink:href="#NotoSansMath-Regular-74" x="1360.799728"/>
     <use xlink:href="#NotoSansMath-Regular-69" x="1396.899719"/>
     <use xlink:href="#NotoSansMath-Regular-6f" x="1422.699707"/>
     <use xlink:href="#NotoSansMath-Regular-6e" x="1483.199692"/>
     <use xlink:href="#NotoSansMath-Regular-29" x="1544.99968"/>
    </g>
   </g>
  </g>
 </g>
</svg>
