<?xml version="1.0" encoding="utf-8" standalone="no"?>
<!DOCTYPE svg PUBLIC "-//W3C//DTD SVG 1.1//EN"
  "http://www.w3.org/Graphics/SVG/1.1/DTD/svg11.dtd">
<svg xmlns:xlink="http://www.w3.org/1999/xlink" width="1296pt" height="432pt" viewBox="0 0 1296 432" xmlns="http://www.w3.org/2000/svg" version="1.1">
 <metadata>
  <rdf:RDF xmlns:dc="http://purl.org/dc/elements/1.1/" xmlns:cc="http://creativecommons.org/ns#" xmlns:rdf="http://www.w3.org/1999/02/22-rdf-syntax-ns#">
   <cc:Work>
    <dc:type rdf:resource="http://purl.org/dc/dcmitype/StillImage"/>
    <dc:date>2023-12-20T23:17:35.700417</dc:date>
    <dc:format>image/svg+xml</dc:format>
    <dc:creator>
     <cc:Agent>
      <dc:title>Matplotlib v3.7.1, https://matplotlib.org/</dc:title>
     </cc:Agent>
    </dc:creator>
   </cc:Work>
  </rdf:RDF>
 </metadata>
 <defs>
  <style type="text/css">*{stroke-linejoin: round; stroke-linecap: butt}</style>
 </defs>
 <g id="figure_1">
  <g id="patch_1">
   <path d="M 0 432 
L 1296 432 
L 1296 0 
L 0 0 
z
" style="fill: #ffffff"/>
  </g>
  <g id="axes_1">
   <g id="patch_2">
    <path d="M 427.870588 218.16 
C 427.870588 190.11698 417.887773 162.969537 399.720156 141.607219 
C 381.552538 120.244901 356.360514 106.032153 328.681439 101.528847 
L 309.705882 218.16 
z
" style="fill: #1f77b4"/>
   </g>
   <g id="patch_3">
    <path d="M 328.681439 101.528847 
C 304.310123 97.563703 279.298282 101.335521 257.180083 112.311343 
C 235.061885 123.287166 216.930587 140.92448 205.348138 162.731136 
C 193.76569 184.537793 189.304588 209.435933 192.595185 233.907455 
C 195.885783 258.378976 206.765432 281.2143 223.696841 299.186801 
L 309.705882 218.16 
z
" style="fill: #ff7f0e"/>
   </g>
   <g id="patch_4">
    <path d="M 223.696841 299.186801 
C 235.552778 311.771746 250.027668 321.602508 266.097156 327.983389 
C 282.166644 334.364269 299.442507 337.141112 316.702174 336.117406 
C 333.961841 335.0937 350.788335 330.294178 365.990885 322.05849 
C 381.193435 313.822802 394.404761 302.349914 404.689931 288.451736 
L 309.705882 218.16 
z
" style="fill: #2ca02c"/>
   </g>
   <g id="patch_5">
    <path d="M 404.689931 288.451736 
C 409.490244 281.965154 413.61349 275.003871 416.995066 267.676955 
C 420.376642 260.35004 422.998794 252.69596 424.82044 244.83464 
L 309.705882 218.16 
z
" style="fill: #d62728"/>
   </g>
   <g id="matplotlib.axis_1"/>
   <g id="matplotlib.axis_2"/>
   <g id="text_1">
    <!-- boundary conditions -->
    <g transform="translate(408.721583 136.711316) scale(0.1 -0.1)">
     <defs>
      <path id="DejaVuSans-62" d="M 3116 1747 
Q 3116 2381 2855 2742 
Q 2594 3103 2138 3103 
Q 1681 3103 1420 2742 
Q 1159 2381 1159 1747 
Q 1159 1113 1420 752 
Q 1681 391 2138 391 
Q 2594 391 2855 752 
Q 3116 1113 3116 1747 
z
M 1159 2969 
Q 1341 3281 1617 3432 
Q 1894 3584 2278 3584 
Q 2916 3584 3314 3078 
Q 3713 2572 3713 1747 
Q 3713 922 3314 415 
Q 2916 -91 2278 -91 
Q 1894 -91 1617 61 
Q 1341 213 1159 525 
L 1159 0 
L 581 0 
L 581 4863 
L 1159 4863 
L 1159 2969 
z
" transform="scale(0.015625)"/>
      <path id="DejaVuSans-6f" d="M 1959 3097 
Q 1497 3097 1228 2736 
Q 959 2375 959 1747 
Q 959 1119 1226 758 
Q 1494 397 1959 397 
Q 2419 397 2687 759 
Q 2956 1122 2956 1747 
Q 2956 2369 2687 2733 
Q 2419 3097 1959 3097 
z
M 1959 3584 
Q 2709 3584 3137 3096 
Q 3566 2609 3566 1747 
Q 3566 888 3137 398 
Q 2709 -91 1959 -91 
Q 1206 -91 779 398 
Q 353 888 353 1747 
Q 353 2609 779 3096 
Q 1206 3584 1959 3584 
z
" transform="scale(0.015625)"/>
      <path id="DejaVuSans-75" d="M 544 1381 
L 544 3500 
L 1119 3500 
L 1119 1403 
Q 1119 906 1312 657 
Q 1506 409 1894 409 
Q 2359 409 2629 706 
Q 2900 1003 2900 1516 
L 2900 3500 
L 3475 3500 
L 3475 0 
L 2900 0 
L 2900 538 
Q 2691 219 2414 64 
Q 2138 -91 1772 -91 
Q 1169 -91 856 284 
Q 544 659 544 1381 
z
M 1991 3584 
L 1991 3584 
z
" transform="scale(0.015625)"/>
      <path id="DejaVuSans-6e" d="M 3513 2113 
L 3513 0 
L 2938 0 
L 2938 2094 
Q 2938 2591 2744 2837 
Q 2550 3084 2163 3084 
Q 1697 3084 1428 2787 
Q 1159 2491 1159 1978 
L 1159 0 
L 581 0 
L 581 3500 
L 1159 3500 
L 1159 2956 
Q 1366 3272 1645 3428 
Q 1925 3584 2291 3584 
Q 2894 3584 3203 3211 
Q 3513 2838 3513 2113 
z
" transform="scale(0.015625)"/>
      <path id="DejaVuSans-64" d="M 2906 2969 
L 2906 4863 
L 3481 4863 
L 3481 0 
L 2906 0 
L 2906 525 
Q 2725 213 2448 61 
Q 2172 -91 1784 -91 
Q 1150 -91 751 415 
Q 353 922 353 1747 
Q 353 2572 751 3078 
Q 1150 3584 1784 3584 
Q 2172 3584 2448 3432 
Q 2725 3281 2906 2969 
z
M 947 1747 
Q 947 1113 1208 752 
Q 1469 391 1925 391 
Q 2381 391 2643 752 
Q 2906 1113 2906 1747 
Q 2906 2381 2643 2742 
Q 2381 3103 1925 3103 
Q 1469 3103 1208 2742 
Q 947 2381 947 1747 
z
" transform="scale(0.015625)"/>
      <path id="DejaVuSans-61" d="M 2194 1759 
Q 1497 1759 1228 1600 
Q 959 1441 959 1056 
Q 959 750 1161 570 
Q 1363 391 1709 391 
Q 2188 391 2477 730 
Q 2766 1069 2766 1631 
L 2766 1759 
L 2194 1759 
z
M 3341 1997 
L 3341 0 
L 2766 0 
L 2766 531 
Q 2569 213 2275 61 
Q 1981 -91 1556 -91 
Q 1019 -91 701 211 
Q 384 513 384 1019 
Q 384 1609 779 1909 
Q 1175 2209 1959 2209 
L 2766 2209 
L 2766 2266 
Q 2766 2663 2505 2880 
Q 2244 3097 1772 3097 
Q 1472 3097 1187 3025 
Q 903 2953 641 2809 
L 641 3341 
Q 956 3463 1253 3523 
Q 1550 3584 1831 3584 
Q 2591 3584 2966 3190 
Q 3341 2797 3341 1997 
z
" transform="scale(0.015625)"/>
      <path id="DejaVuSans-72" d="M 2631 2963 
Q 2534 3019 2420 3045 
Q 2306 3072 2169 3072 
Q 1681 3072 1420 2755 
Q 1159 2438 1159 1844 
L 1159 0 
L 581 0 
L 581 3500 
L 1159 3500 
L 1159 2956 
Q 1341 3275 1631 3429 
Q 1922 3584 2338 3584 
Q 2397 3584 2469 3576 
Q 2541 3569 2628 3553 
L 2631 2963 
z
" transform="scale(0.015625)"/>
      <path id="DejaVuSans-79" d="M 2059 -325 
Q 1816 -950 1584 -1140 
Q 1353 -1331 966 -1331 
L 506 -1331 
L 506 -850 
L 844 -850 
Q 1081 -850 1212 -737 
Q 1344 -625 1503 -206 
L 1606 56 
L 191 3500 
L 800 3500 
L 1894 763 
L 2988 3500 
L 3597 3500 
L 2059 -325 
z
" transform="scale(0.015625)"/>
      <path id="DejaVuSans-20" transform="scale(0.015625)"/>
      <path id="DejaVuSans-63" d="M 3122 3366 
L 3122 2828 
Q 2878 2963 2633 3030 
Q 2388 3097 2138 3097 
Q 1578 3097 1268 2742 
Q 959 2388 959 1747 
Q 959 1106 1268 751 
Q 1578 397 2138 397 
Q 2388 397 2633 464 
Q 2878 531 3122 666 
L 3122 134 
Q 2881 22 2623 -34 
Q 2366 -91 2075 -91 
Q 1284 -91 818 406 
Q 353 903 353 1747 
Q 353 2603 823 3093 
Q 1294 3584 2113 3584 
Q 2378 3584 2631 3529 
Q 2884 3475 3122 3366 
z
" transform="scale(0.015625)"/>
      <path id="DejaVuSans-69" d="M 603 3500 
L 1178 3500 
L 1178 0 
L 603 0 
L 603 3500 
z
M 603 4863 
L 1178 4863 
L 1178 4134 
L 603 4134 
L 603 4863 
z
" transform="scale(0.015625)"/>
      <path id="DejaVuSans-74" d="M 1172 4494 
L 1172 3500 
L 2356 3500 
L 2356 3053 
L 1172 3053 
L 1172 1153 
Q 1172 725 1289 603 
Q 1406 481 1766 481 
L 2356 481 
L 2356 0 
L 1766 0 
Q 1100 0 847 248 
Q 594 497 594 1153 
L 594 3053 
L 172 3053 
L 172 3500 
L 594 3500 
L 594 4494 
L 1172 4494 
z
" transform="scale(0.015625)"/>
      <path id="DejaVuSans-73" d="M 2834 3397 
L 2834 2853 
Q 2591 2978 2328 3040 
Q 2066 3103 1784 3103 
Q 1356 3103 1142 2972 
Q 928 2841 928 2578 
Q 928 2378 1081 2264 
Q 1234 2150 1697 2047 
L 1894 2003 
Q 2506 1872 2764 1633 
Q 3022 1394 3022 966 
Q 3022 478 2636 193 
Q 2250 -91 1575 -91 
Q 1294 -91 989 -36 
Q 684 19 347 128 
L 347 722 
Q 666 556 975 473 
Q 1284 391 1588 391 
Q 1994 391 2212 530 
Q 2431 669 2431 922 
Q 2431 1156 2273 1281 
Q 2116 1406 1581 1522 
L 1381 1569 
Q 847 1681 609 1914 
Q 372 2147 372 2553 
Q 372 3047 722 3315 
Q 1072 3584 1716 3584 
Q 2034 3584 2315 3537 
Q 2597 3491 2834 3397 
z
" transform="scale(0.015625)"/>
     </defs>
     <use xlink:href="#DejaVuSans-62"/>
     <use xlink:href="#DejaVuSans-6f" x="63.476562"/>
     <use xlink:href="#DejaVuSans-75" x="124.658203"/>
     <use xlink:href="#DejaVuSans-6e" x="188.037109"/>
     <use xlink:href="#DejaVuSans-64" x="251.416016"/>
     <use xlink:href="#DejaVuSans-61" x="314.892578"/>
     <use xlink:href="#DejaVuSans-72" x="376.171875"/>
     <use xlink:href="#DejaVuSans-79" x="417.285156"/>
     <use xlink:href="#DejaVuSans-20" x="476.464844"/>
     <use xlink:href="#DejaVuSans-63" x="508.251953"/>
     <use xlink:href="#DejaVuSans-6f" x="563.232422"/>
     <use xlink:href="#DejaVuSans-6e" x="624.414062"/>
     <use xlink:href="#DejaVuSans-64" x="687.792969"/>
     <use xlink:href="#DejaVuSans-69" x="751.269531"/>
     <use xlink:href="#DejaVuSans-74" x="779.052734"/>
     <use xlink:href="#DejaVuSans-69" x="818.261719"/>
     <use xlink:href="#DejaVuSans-6f" x="846.044922"/>
     <use xlink:href="#DejaVuSans-6e" x="907.226562"/>
     <use xlink:href="#DejaVuSans-73" x="970.605469"/>
    </g>
   </g>
   <g id="text_2">
    <!-- 22.4% -->
    <g transform="translate(347.830853 174.987706) scale(0.1 -0.1)">
     <defs>
      <path id="DejaVuSans-32" d="M 1228 531 
L 3431 531 
L 3431 0 
L 469 0 
L 469 531 
Q 828 903 1448 1529 
Q 2069 2156 2228 2338 
Q 2531 2678 2651 2914 
Q 2772 3150 2772 3378 
Q 2772 3750 2511 3984 
Q 2250 4219 1831 4219 
Q 1534 4219 1204 4116 
Q 875 4013 500 3803 
L 500 4441 
Q 881 4594 1212 4672 
Q 1544 4750 1819 4750 
Q 2544 4750 2975 4387 
Q 3406 4025 3406 3419 
Q 3406 3131 3298 2873 
Q 3191 2616 2906 2266 
Q 2828 2175 2409 1742 
Q 1991 1309 1228 531 
z
" transform="scale(0.015625)"/>
      <path id="DejaVuSans-2e" d="M 684 794 
L 1344 794 
L 1344 0 
L 684 0 
L 684 794 
z
" transform="scale(0.015625)"/>
      <path id="DejaVuSans-34" d="M 2419 4116 
L 825 1625 
L 2419 1625 
L 2419 4116 
z
M 2253 4666 
L 3047 4666 
L 3047 1625 
L 3713 1625 
L 3713 1100 
L 3047 1100 
L 3047 0 
L 2419 0 
L 2419 1100 
L 313 1100 
L 313 1709 
L 2253 4666 
z
" transform="scale(0.015625)"/>
      <path id="DejaVuSans-25" d="M 4653 2053 
Q 4381 2053 4226 1822 
Q 4072 1591 4072 1178 
Q 4072 772 4226 539 
Q 4381 306 4653 306 
Q 4919 306 5073 539 
Q 5228 772 5228 1178 
Q 5228 1588 5073 1820 
Q 4919 2053 4653 2053 
z
M 4653 2450 
Q 5147 2450 5437 2106 
Q 5728 1763 5728 1178 
Q 5728 594 5436 251 
Q 5144 -91 4653 -91 
Q 4153 -91 3862 251 
Q 3572 594 3572 1178 
Q 3572 1766 3864 2108 
Q 4156 2450 4653 2450 
z
M 1428 4353 
Q 1159 4353 1004 4120 
Q 850 3888 850 3481 
Q 850 3069 1003 2837 
Q 1156 2606 1428 2606 
Q 1700 2606 1854 2837 
Q 2009 3069 2009 3481 
Q 2009 3884 1853 4118 
Q 1697 4353 1428 4353 
z
M 4250 4750 
L 4750 4750 
L 1831 -91 
L 1331 -91 
L 4250 4750 
z
M 1428 4750 
Q 1922 4750 2215 4408 
Q 2509 4066 2509 3481 
Q 2509 2891 2217 2550 
Q 1925 2209 1428 2209 
Q 931 2209 642 2551 
Q 353 2894 353 3481 
Q 353 4063 643 4406 
Q 934 4750 1428 4750 
z
" transform="scale(0.015625)"/>
     </defs>
     <use xlink:href="#DejaVuSans-32"/>
     <use xlink:href="#DejaVuSans-32" x="63.623047"/>
     <use xlink:href="#DejaVuSans-2e" x="127.246094"/>
     <use xlink:href="#DejaVuSans-34" x="159.033203"/>
     <use xlink:href="#DejaVuSans-25" x="222.65625"/>
    </g>
   </g>
   <g id="text_3">
    <!-- cartesian -->
    <g transform="translate(148.648301 159.947625) scale(0.1 -0.1)">
     <defs>
      <path id="DejaVuSans-65" d="M 3597 1894 
L 3597 1613 
L 953 1613 
Q 991 1019 1311 708 
Q 1631 397 2203 397 
Q 2534 397 2845 478 
Q 3156 559 3463 722 
L 3463 178 
Q 3153 47 2828 -22 
Q 2503 -91 2169 -91 
Q 1331 -91 842 396 
Q 353 884 353 1716 
Q 353 2575 817 3079 
Q 1281 3584 2069 3584 
Q 2775 3584 3186 3129 
Q 3597 2675 3597 1894 
z
M 3022 2063 
Q 3016 2534 2758 2815 
Q 2500 3097 2075 3097 
Q 1594 3097 1305 2825 
Q 1016 2553 972 2059 
L 3022 2063 
z
" transform="scale(0.015625)"/>
     </defs>
     <use xlink:href="#DejaVuSans-63"/>
     <use xlink:href="#DejaVuSans-61" x="54.980469"/>
     <use xlink:href="#DejaVuSans-72" x="116.259766"/>
     <use xlink:href="#DejaVuSans-74" x="157.373047"/>
     <use xlink:href="#DejaVuSans-65" x="196.582031"/>
     <use xlink:href="#DejaVuSans-73" x="258.105469"/>
     <use xlink:href="#DejaVuSans-69" x="310.205078"/>
     <use xlink:href="#DejaVuSans-61" x="337.988281"/>
     <use xlink:href="#DejaVuSans-6e" x="399.267578"/>
    </g>
   </g>
   <g id="text_4">
    <!-- 39.6% -->
    <g transform="translate(231.207642 187.662057) scale(0.1 -0.1)">
     <defs>
      <path id="DejaVuSans-33" d="M 2597 2516 
Q 3050 2419 3304 2112 
Q 3559 1806 3559 1356 
Q 3559 666 3084 287 
Q 2609 -91 1734 -91 
Q 1441 -91 1130 -33 
Q 819 25 488 141 
L 488 750 
Q 750 597 1062 519 
Q 1375 441 1716 441 
Q 2309 441 2620 675 
Q 2931 909 2931 1356 
Q 2931 1769 2642 2001 
Q 2353 2234 1838 2234 
L 1294 2234 
L 1294 2753 
L 1863 2753 
Q 2328 2753 2575 2939 
Q 2822 3125 2822 3475 
Q 2822 3834 2567 4026 
Q 2313 4219 1838 4219 
Q 1578 4219 1281 4162 
Q 984 4106 628 3988 
L 628 4550 
Q 988 4650 1302 4700 
Q 1616 4750 1894 4750 
Q 2613 4750 3031 4423 
Q 3450 4097 3450 3541 
Q 3450 3153 3228 2886 
Q 3006 2619 2597 2516 
z
" transform="scale(0.015625)"/>
      <path id="DejaVuSans-39" d="M 703 97 
L 703 672 
Q 941 559 1184 500 
Q 1428 441 1663 441 
Q 2288 441 2617 861 
Q 2947 1281 2994 2138 
Q 2813 1869 2534 1725 
Q 2256 1581 1919 1581 
Q 1219 1581 811 2004 
Q 403 2428 403 3163 
Q 403 3881 828 4315 
Q 1253 4750 1959 4750 
Q 2769 4750 3195 4129 
Q 3622 3509 3622 2328 
Q 3622 1225 3098 567 
Q 2575 -91 1691 -91 
Q 1453 -91 1209 -44 
Q 966 3 703 97 
z
M 1959 2075 
Q 2384 2075 2632 2365 
Q 2881 2656 2881 3163 
Q 2881 3666 2632 3958 
Q 2384 4250 1959 4250 
Q 1534 4250 1286 3958 
Q 1038 3666 1038 3163 
Q 1038 2656 1286 2365 
Q 1534 2075 1959 2075 
z
" transform="scale(0.015625)"/>
      <path id="DejaVuSans-36" d="M 2113 2584 
Q 1688 2584 1439 2293 
Q 1191 2003 1191 1497 
Q 1191 994 1439 701 
Q 1688 409 2113 409 
Q 2538 409 2786 701 
Q 3034 994 3034 1497 
Q 3034 2003 2786 2293 
Q 2538 2584 2113 2584 
z
M 3366 4563 
L 3366 3988 
Q 3128 4100 2886 4159 
Q 2644 4219 2406 4219 
Q 1781 4219 1451 3797 
Q 1122 3375 1075 2522 
Q 1259 2794 1537 2939 
Q 1816 3084 2150 3084 
Q 2853 3084 3261 2657 
Q 3669 2231 3669 1497 
Q 3669 778 3244 343 
Q 2819 -91 2113 -91 
Q 1303 -91 875 529 
Q 447 1150 447 2328 
Q 447 3434 972 4092 
Q 1497 4750 2381 4750 
Q 2619 4750 2861 4703 
Q 3103 4656 3366 4563 
z
" transform="scale(0.015625)"/>
     </defs>
     <use xlink:href="#DejaVuSans-33"/>
     <use xlink:href="#DejaVuSans-39" x="63.623047"/>
     <use xlink:href="#DejaVuSans-2e" x="127.246094"/>
     <use xlink:href="#DejaVuSans-36" x="159.033203"/>
     <use xlink:href="#DejaVuSans-25" x="222.65625"/>
    </g>
   </g>
   <g id="text_5">
    <!-- deformed -->
    <g transform="translate(317.401803 350.672522) scale(0.1 -0.1)">
     <defs>
      <path id="DejaVuSans-66" d="M 2375 4863 
L 2375 4384 
L 1825 4384 
Q 1516 4384 1395 4259 
Q 1275 4134 1275 3809 
L 1275 3500 
L 2222 3500 
L 2222 3053 
L 1275 3053 
L 1275 0 
L 697 0 
L 697 3053 
L 147 3053 
L 147 3500 
L 697 3500 
L 697 3744 
Q 697 4328 969 4595 
Q 1241 4863 1831 4863 
L 2375 4863 
z
" transform="scale(0.015625)"/>
      <path id="DejaVuSans-6d" d="M 3328 2828 
Q 3544 3216 3844 3400 
Q 4144 3584 4550 3584 
Q 5097 3584 5394 3201 
Q 5691 2819 5691 2113 
L 5691 0 
L 5113 0 
L 5113 2094 
Q 5113 2597 4934 2840 
Q 4756 3084 4391 3084 
Q 3944 3084 3684 2787 
Q 3425 2491 3425 1978 
L 3425 0 
L 2847 0 
L 2847 2094 
Q 2847 2600 2669 2842 
Q 2491 3084 2119 3084 
Q 1678 3084 1418 2786 
Q 1159 2488 1159 1978 
L 1159 0 
L 581 0 
L 581 3500 
L 1159 3500 
L 1159 2956 
Q 1356 3278 1631 3431 
Q 1906 3584 2284 3584 
Q 2666 3584 2933 3390 
Q 3200 3197 3328 2828 
z
" transform="scale(0.015625)"/>
     </defs>
     <use xlink:href="#DejaVuSans-64"/>
     <use xlink:href="#DejaVuSans-65" x="63.476562"/>
     <use xlink:href="#DejaVuSans-66" x="125"/>
     <use xlink:href="#DejaVuSans-6f" x="160.205078"/>
     <use xlink:href="#DejaVuSans-72" x="221.386719"/>
     <use xlink:href="#DejaVuSans-6d" x="260.75"/>
     <use xlink:href="#DejaVuSans-65" x="358.162109"/>
     <use xlink:href="#DejaVuSans-64" x="419.685547"/>
    </g>
   </g>
   <g id="text_6">
    <!-- 27.8% -->
    <g transform="translate(298.020064 291.693819) scale(0.1 -0.1)">
     <defs>
      <path id="DejaVuSans-37" d="M 525 4666 
L 3525 4666 
L 3525 4397 
L 1831 0 
L 1172 0 
L 2766 4134 
L 525 4134 
L 525 4666 
z
" transform="scale(0.015625)"/>
      <path id="DejaVuSans-38" d="M 2034 2216 
Q 1584 2216 1326 1975 
Q 1069 1734 1069 1313 
Q 1069 891 1326 650 
Q 1584 409 2034 409 
Q 2484 409 2743 651 
Q 3003 894 3003 1313 
Q 3003 1734 2745 1975 
Q 2488 2216 2034 2216 
z
M 1403 2484 
Q 997 2584 770 2862 
Q 544 3141 544 3541 
Q 544 4100 942 4425 
Q 1341 4750 2034 4750 
Q 2731 4750 3128 4425 
Q 3525 4100 3525 3541 
Q 3525 3141 3298 2862 
Q 3072 2584 2669 2484 
Q 3125 2378 3379 2068 
Q 3634 1759 3634 1313 
Q 3634 634 3220 271 
Q 2806 -91 2034 -91 
Q 1263 -91 848 271 
Q 434 634 434 1313 
Q 434 1759 690 2068 
Q 947 2378 1403 2484 
z
M 1172 3481 
Q 1172 3119 1398 2916 
Q 1625 2713 2034 2713 
Q 2441 2713 2670 2916 
Q 2900 3119 2900 3481 
Q 2900 3844 2670 4047 
Q 2441 4250 2034 4250 
Q 1625 4250 1398 4047 
Q 1172 3844 1172 3481 
z
" transform="scale(0.015625)"/>
     </defs>
     <use xlink:href="#DejaVuSans-32"/>
     <use xlink:href="#DejaVuSans-37" x="63.623047"/>
     <use xlink:href="#DejaVuSans-2e" x="127.246094"/>
     <use xlink:href="#DejaVuSans-38" x="159.033203"/>
     <use xlink:href="#DejaVuSans-25" x="222.65625"/>
    </g>
   </g>
   <g id="text_7">
    <!-- prolong/restrict -->
    <g transform="translate(427.723984 275.388026) scale(0.1 -0.1)">
     <defs>
      <path id="DejaVuSans-70" d="M 1159 525 
L 1159 -1331 
L 581 -1331 
L 581 3500 
L 1159 3500 
L 1159 2969 
Q 1341 3281 1617 3432 
Q 1894 3584 2278 3584 
Q 2916 3584 3314 3078 
Q 3713 2572 3713 1747 
Q 3713 922 3314 415 
Q 2916 -91 2278 -91 
Q 1894 -91 1617 61 
Q 1341 213 1159 525 
z
M 3116 1747 
Q 3116 2381 2855 2742 
Q 2594 3103 2138 3103 
Q 1681 3103 1420 2742 
Q 1159 2381 1159 1747 
Q 1159 1113 1420 752 
Q 1681 391 2138 391 
Q 2594 391 2855 752 
Q 3116 1113 3116 1747 
z
" transform="scale(0.015625)"/>
      <path id="DejaVuSans-6c" d="M 603 4863 
L 1178 4863 
L 1178 0 
L 603 0 
L 603 4863 
z
" transform="scale(0.015625)"/>
      <path id="DejaVuSans-67" d="M 2906 1791 
Q 2906 2416 2648 2759 
Q 2391 3103 1925 3103 
Q 1463 3103 1205 2759 
Q 947 2416 947 1791 
Q 947 1169 1205 825 
Q 1463 481 1925 481 
Q 2391 481 2648 825 
Q 2906 1169 2906 1791 
z
M 3481 434 
Q 3481 -459 3084 -895 
Q 2688 -1331 1869 -1331 
Q 1566 -1331 1297 -1286 
Q 1028 -1241 775 -1147 
L 775 -588 
Q 1028 -725 1275 -790 
Q 1522 -856 1778 -856 
Q 2344 -856 2625 -561 
Q 2906 -266 2906 331 
L 2906 616 
Q 2728 306 2450 153 
Q 2172 0 1784 0 
Q 1141 0 747 490 
Q 353 981 353 1791 
Q 353 2603 747 3093 
Q 1141 3584 1784 3584 
Q 2172 3584 2450 3431 
Q 2728 3278 2906 2969 
L 2906 3500 
L 3481 3500 
L 3481 434 
z
" transform="scale(0.015625)"/>
      <path id="DejaVuSans-2f" d="M 1625 4666 
L 2156 4666 
L 531 -594 
L 0 -594 
L 1625 4666 
z
" transform="scale(0.015625)"/>
     </defs>
     <use xlink:href="#DejaVuSans-70"/>
     <use xlink:href="#DejaVuSans-72" x="63.476562"/>
     <use xlink:href="#DejaVuSans-6f" x="102.339844"/>
     <use xlink:href="#DejaVuSans-6c" x="163.521484"/>
     <use xlink:href="#DejaVuSans-6f" x="191.304688"/>
     <use xlink:href="#DejaVuSans-6e" x="252.486328"/>
     <use xlink:href="#DejaVuSans-67" x="315.865234"/>
     <use xlink:href="#DejaVuSans-2f" x="379.341797"/>
     <use xlink:href="#DejaVuSans-72" x="413.033203"/>
     <use xlink:href="#DejaVuSans-65" x="451.896484"/>
     <use xlink:href="#DejaVuSans-73" x="513.419922"/>
     <use xlink:href="#DejaVuSans-74" x="565.519531"/>
     <use xlink:href="#DejaVuSans-72" x="604.728516"/>
     <use xlink:href="#DejaVuSans-69" x="645.841797"/>
     <use xlink:href="#DejaVuSans-63" x="673.625"/>
     <use xlink:href="#DejaVuSans-74" x="728.605469"/>
    </g>
   </g>
   <g id="text_8">
    <!-- 6.5% -->
    <g transform="translate(361.377049 250.629548) scale(0.1 -0.1)">
     <defs>
      <path id="DejaVuSans-35" d="M 691 4666 
L 3169 4666 
L 3169 4134 
L 1269 4134 
L 1269 2991 
Q 1406 3038 1543 3061 
Q 1681 3084 1819 3084 
Q 2600 3084 3056 2656 
Q 3513 2228 3513 1497 
Q 3513 744 3044 326 
Q 2575 -91 1722 -91 
Q 1428 -91 1123 -41 
Q 819 9 494 109 
L 494 744 
Q 775 591 1075 516 
Q 1375 441 1709 441 
Q 2250 441 2565 725 
Q 2881 1009 2881 1497 
Q 2881 1984 2565 2268 
Q 2250 2553 1709 2553 
Q 1456 2553 1204 2497 
Q 953 2441 691 2322 
L 691 4666 
z
" transform="scale(0.015625)"/>
     </defs>
     <use xlink:href="#DejaVuSans-36"/>
     <use xlink:href="#DejaVuSans-2e" x="63.623047"/>
     <use xlink:href="#DejaVuSans-35" x="95.410156"/>
     <use xlink:href="#DejaVuSans-25" x="159.033203"/>
    </g>
   </g>
   <g id="text_9">
    <!-- kernel: -->
    <g transform="translate(289.21307 37.579368) scale(0.12 -0.12)">
     <defs>
      <path id="DejaVuSans-6b" d="M 581 4863 
L 1159 4863 
L 1159 1991 
L 2875 3500 
L 3609 3500 
L 1753 1863 
L 3688 0 
L 2938 0 
L 1159 1709 
L 1159 0 
L 581 0 
L 581 4863 
z
" transform="scale(0.015625)"/>
      <path id="DejaVuSans-3a" d="M 750 794 
L 1409 794 
L 1409 0 
L 750 0 
L 750 794 
z
M 750 3309 
L 1409 3309 
L 1409 2516 
L 750 2516 
L 750 3309 
z
" transform="scale(0.015625)"/>
     </defs>
     <use xlink:href="#DejaVuSans-6b"/>
     <use xlink:href="#DejaVuSans-65" x="54.285156"/>
     <use xlink:href="#DejaVuSans-72" x="115.808594"/>
     <use xlink:href="#DejaVuSans-6e" x="155.171875"/>
     <use xlink:href="#DejaVuSans-65" x="218.550781"/>
     <use xlink:href="#DejaVuSans-6c" x="280.074219"/>
     <use xlink:href="#DejaVuSans-3a" x="307.857422"/>
    </g>
    <!-- 26722000 (element*iteration)s in 15.1 s -->
    <g transform="translate(188.687757 51.016743) scale(0.12 -0.12)">
     <defs>
      <path id="DejaVuSans-30" d="M 2034 4250 
Q 1547 4250 1301 3770 
Q 1056 3291 1056 2328 
Q 1056 1369 1301 889 
Q 1547 409 2034 409 
Q 2525 409 2770 889 
Q 3016 1369 3016 2328 
Q 3016 3291 2770 3770 
Q 2525 4250 2034 4250 
z
M 2034 4750 
Q 2819 4750 3233 4129 
Q 3647 3509 3647 2328 
Q 3647 1150 3233 529 
Q 2819 -91 2034 -91 
Q 1250 -91 836 529 
Q 422 1150 422 2328 
Q 422 3509 836 4129 
Q 1250 4750 2034 4750 
z
" transform="scale(0.015625)"/>
      <path id="DejaVuSans-28" d="M 1984 4856 
Q 1566 4138 1362 3434 
Q 1159 2731 1159 2009 
Q 1159 1288 1364 580 
Q 1569 -128 1984 -844 
L 1484 -844 
Q 1016 -109 783 600 
Q 550 1309 550 2009 
Q 550 2706 781 3412 
Q 1013 4119 1484 4856 
L 1984 4856 
z
" transform="scale(0.015625)"/>
      <path id="DejaVuSans-2a" d="M 3009 3897 
L 1888 3291 
L 3009 2681 
L 2828 2375 
L 1778 3009 
L 1778 1831 
L 1422 1831 
L 1422 3009 
L 372 2375 
L 191 2681 
L 1313 3291 
L 191 3897 
L 372 4206 
L 1422 3572 
L 1422 4750 
L 1778 4750 
L 1778 3572 
L 2828 4206 
L 3009 3897 
z
" transform="scale(0.015625)"/>
      <path id="DejaVuSans-29" d="M 513 4856 
L 1013 4856 
Q 1481 4119 1714 3412 
Q 1947 2706 1947 2009 
Q 1947 1309 1714 600 
Q 1481 -109 1013 -844 
L 513 -844 
Q 928 -128 1133 580 
Q 1338 1288 1338 2009 
Q 1338 2731 1133 3434 
Q 928 4138 513 4856 
z
" transform="scale(0.015625)"/>
      <path id="DejaVuSans-31" d="M 794 531 
L 1825 531 
L 1825 4091 
L 703 3866 
L 703 4441 
L 1819 4666 
L 2450 4666 
L 2450 531 
L 3481 531 
L 3481 0 
L 794 0 
L 794 531 
z
" transform="scale(0.015625)"/>
     </defs>
     <use xlink:href="#DejaVuSans-32"/>
     <use xlink:href="#DejaVuSans-36" x="63.623047"/>
     <use xlink:href="#DejaVuSans-37" x="127.246094"/>
     <use xlink:href="#DejaVuSans-32" x="190.869141"/>
     <use xlink:href="#DejaVuSans-32" x="254.492188"/>
     <use xlink:href="#DejaVuSans-30" x="318.115234"/>
     <use xlink:href="#DejaVuSans-30" x="381.738281"/>
     <use xlink:href="#DejaVuSans-30" x="445.361328"/>
     <use xlink:href="#DejaVuSans-20" x="508.984375"/>
     <use xlink:href="#DejaVuSans-28" x="540.771484"/>
     <use xlink:href="#DejaVuSans-65" x="579.785156"/>
     <use xlink:href="#DejaVuSans-6c" x="641.308594"/>
     <use xlink:href="#DejaVuSans-65" x="669.091797"/>
     <use xlink:href="#DejaVuSans-6d" x="730.615234"/>
     <use xlink:href="#DejaVuSans-65" x="828.027344"/>
     <use xlink:href="#DejaVuSans-6e" x="889.550781"/>
     <use xlink:href="#DejaVuSans-74" x="952.929688"/>
     <use xlink:href="#DejaVuSans-2a" x="992.138672"/>
     <use xlink:href="#DejaVuSans-69" x="1042.138672"/>
     <use xlink:href="#DejaVuSans-74" x="1069.921875"/>
     <use xlink:href="#DejaVuSans-65" x="1109.130859"/>
     <use xlink:href="#DejaVuSans-72" x="1170.654297"/>
     <use xlink:href="#DejaVuSans-61" x="1211.767578"/>
     <use xlink:href="#DejaVuSans-74" x="1273.046875"/>
     <use xlink:href="#DejaVuSans-69" x="1312.255859"/>
     <use xlink:href="#DejaVuSans-6f" x="1340.039062"/>
     <use xlink:href="#DejaVuSans-6e" x="1401.220703"/>
     <use xlink:href="#DejaVuSans-29" x="1464.599609"/>
     <use xlink:href="#DejaVuSans-73" x="1503.613281"/>
     <use xlink:href="#DejaVuSans-20" x="1555.712891"/>
     <use xlink:href="#DejaVuSans-69" x="1587.5"/>
     <use xlink:href="#DejaVuSans-6e" x="1615.283203"/>
     <use xlink:href="#DejaVuSans-20" x="1678.662109"/>
     <use xlink:href="#DejaVuSans-31" x="1710.449219"/>
     <use xlink:href="#DejaVuSans-35" x="1774.072266"/>
     <use xlink:href="#DejaVuSans-2e" x="1837.695312"/>
     <use xlink:href="#DejaVuSans-31" x="1869.482422"/>
     <use xlink:href="#DejaVuSans-20" x="1933.105469"/>
     <use xlink:href="#DejaVuSans-73" x="1964.892578"/>
    </g>
    <!-- at 5.63e-07 per (element*iteration) -->
    <g transform="translate(203.367132 64.454118) scale(0.12 -0.12)">
     <defs>
      <path id="DejaVuSans-2d" d="M 313 2009 
L 1997 2009 
L 1997 1497 
L 313 1497 
L 313 2009 
z
" transform="scale(0.015625)"/>
     </defs>
     <use xlink:href="#DejaVuSans-61"/>
     <use xlink:href="#DejaVuSans-74" x="61.279297"/>
     <use xlink:href="#DejaVuSans-20" x="100.488281"/>
     <use xlink:href="#DejaVuSans-35" x="132.275391"/>
     <use xlink:href="#DejaVuSans-2e" x="195.898438"/>
     <use xlink:href="#DejaVuSans-36" x="227.685547"/>
     <use xlink:href="#DejaVuSans-33" x="291.308594"/>
     <use xlink:href="#DejaVuSans-65" x="354.931641"/>
     <use xlink:href="#DejaVuSans-2d" x="416.455078"/>
     <use xlink:href="#DejaVuSans-30" x="452.539062"/>
     <use xlink:href="#DejaVuSans-37" x="516.162109"/>
     <use xlink:href="#DejaVuSans-20" x="579.785156"/>
     <use xlink:href="#DejaVuSans-70" x="611.572266"/>
     <use xlink:href="#DejaVuSans-65" x="675.048828"/>
     <use xlink:href="#DejaVuSans-72" x="736.572266"/>
     <use xlink:href="#DejaVuSans-20" x="777.685547"/>
     <use xlink:href="#DejaVuSans-28" x="809.472656"/>
     <use xlink:href="#DejaVuSans-65" x="848.486328"/>
     <use xlink:href="#DejaVuSans-6c" x="910.009766"/>
     <use xlink:href="#DejaVuSans-65" x="937.792969"/>
     <use xlink:href="#DejaVuSans-6d" x="999.316406"/>
     <use xlink:href="#DejaVuSans-65" x="1096.728516"/>
     <use xlink:href="#DejaVuSans-6e" x="1158.251953"/>
     <use xlink:href="#DejaVuSans-74" x="1221.630859"/>
     <use xlink:href="#DejaVuSans-2a" x="1260.839844"/>
     <use xlink:href="#DejaVuSans-69" x="1310.839844"/>
     <use xlink:href="#DejaVuSans-74" x="1338.623047"/>
     <use xlink:href="#DejaVuSans-65" x="1377.832031"/>
     <use xlink:href="#DejaVuSans-72" x="1439.355469"/>
     <use xlink:href="#DejaVuSans-61" x="1480.46875"/>
     <use xlink:href="#DejaVuSans-74" x="1541.748047"/>
     <use xlink:href="#DejaVuSans-69" x="1580.957031"/>
     <use xlink:href="#DejaVuSans-6f" x="1608.740234"/>
     <use xlink:href="#DejaVuSans-6e" x="1669.921875"/>
     <use xlink:href="#DejaVuSans-29" x="1733.300781"/>
    </g>
   </g>
  </g>
  <g id="axes_2">
   <g id="patch_6">
    <path d="M 782.364706 218.16 
C 782.364706 202.644188 779.308712 187.27922 773.371585 172.944265 
C 767.434459 158.60931 758.73164 145.583095 747.761096 134.610967 
L 664.2 218.16 
z
" style="fill: #1f77b4"/>
   </g>
   <g id="patch_7">
    <path d="M 747.761096 134.610967 
C 736.697328 123.545602 723.545008 114.787291 709.069325 108.845585 
C 694.593643 102.903879 679.080876 99.896284 663.433546 99.99778 
C 647.786215 100.099276 632.31377 103.307855 617.916383 109.436845 
C 603.518996 115.565835 590.481399 124.494025 579.562106 135.701983 
C 568.642813 146.90994 560.057771 160.176009 554.30645 174.728383 
C 548.555129 189.280756 545.75127 204.831637 546.057999 220.476291 
C 546.364727 236.120944 549.775978 251.549972 556.093288 265.865728 
C 562.410597 280.181484 571.50903 293.100851 582.859249 303.872193 
L 664.2 218.16 
z
" style="fill: #ff7f0e"/>
   </g>
   <g id="patch_8">
    <path d="M 582.859249 303.872193 
C 599.466123 319.632093 620.300713 330.231018 642.81735 334.373941 
C 665.333987 338.516863 688.57667 336.027885 709.7055 327.211122 
C 730.834329 318.394359 748.952226 303.624148 761.845462 284.705184 
C 774.738698 265.786219 781.859857 243.521753 782.338843 220.632164 
L 664.2 218.16 
z
" style="fill: #2ca02c"/>
   </g>
   <g id="matplotlib.axis_3"/>
   <g id="matplotlib.axis_4"/>
   <g id="text_10">
    <!-- compute time step -->
    <g transform="translate(784.288744 171.182067) scale(0.1 -0.1)">
     <use xlink:href="#DejaVuSans-63"/>
     <use xlink:href="#DejaVuSans-6f" x="54.980469"/>
     <use xlink:href="#DejaVuSans-6d" x="116.162109"/>
     <use xlink:href="#DejaVuSans-70" x="213.574219"/>
     <use xlink:href="#DejaVuSans-75" x="277.050781"/>
     <use xlink:href="#DejaVuSans-74" x="340.429688"/>
     <use xlink:href="#DejaVuSans-65" x="379.638672"/>
     <use xlink:href="#DejaVuSans-20" x="441.162109"/>
     <use xlink:href="#DejaVuSans-74" x="472.949219"/>
     <use xlink:href="#DejaVuSans-69" x="512.158203"/>
     <use xlink:href="#DejaVuSans-6d" x="539.941406"/>
     <use xlink:href="#DejaVuSans-65" x="637.353516"/>
     <use xlink:href="#DejaVuSans-20" x="698.876953"/>
     <use xlink:href="#DejaVuSans-73" x="730.664062"/>
     <use xlink:href="#DejaVuSans-74" x="782.763672"/>
     <use xlink:href="#DejaVuSans-65" x="821.972656"/>
     <use xlink:href="#DejaVuSans-70" x="883.496094"/>
    </g>
   </g>
   <g id="text_11">
    <!-- 12.5% -->
    <g transform="translate(713.819357 193.789934) scale(0.1 -0.1)">
     <use xlink:href="#DejaVuSans-31"/>
     <use xlink:href="#DejaVuSans-32" x="63.623047"/>
     <use xlink:href="#DejaVuSans-2e" x="127.246094"/>
     <use xlink:href="#DejaVuSans-35" x="159.033203"/>
     <use xlink:href="#DejaVuSans-25" x="222.65625"/>
    </g>
   </g>
   <g id="text_12">
    <!-- local -->
    <g transform="translate(547.796754 130.215556) scale(0.1 -0.1)">
     <use xlink:href="#DejaVuSans-6c"/>
     <use xlink:href="#DejaVuSans-6f" x="27.783203"/>
     <use xlink:href="#DejaVuSans-63" x="88.964844"/>
     <use xlink:href="#DejaVuSans-61" x="143.945312"/>
     <use xlink:href="#DejaVuSans-6c" x="205.224609"/>
    </g>
   </g>
   <g id="text_13">
    <!-- 50.4% -->
    <g transform="translate(597.53367 171.444565) scale(0.1 -0.1)">
     <use xlink:href="#DejaVuSans-35"/>
     <use xlink:href="#DejaVuSans-30" x="63.623047"/>
     <use xlink:href="#DejaVuSans-2e" x="127.246094"/>
     <use xlink:href="#DejaVuSans-34" x="159.033203"/>
     <use xlink:href="#DejaVuSans-25" x="222.65625"/>
    </g>
   </g>
   <g id="text_14">
    <!-- neighbor -->
    <g transform="translate(714.256049 340.875609) scale(0.1 -0.1)">
     <defs>
      <path id="DejaVuSans-68" d="M 3513 2113 
L 3513 0 
L 2938 0 
L 2938 2094 
Q 2938 2591 2744 2837 
Q 2550 3084 2163 3084 
Q 1697 3084 1428 2787 
Q 1159 2491 1159 1978 
L 1159 0 
L 581 0 
L 581 4863 
L 1159 4863 
L 1159 2956 
Q 1366 3272 1645 3428 
Q 1925 3584 2291 3584 
Q 2894 3584 3203 3211 
Q 3513 2838 3513 2113 
z
" transform="scale(0.015625)"/>
     </defs>
     <use xlink:href="#DejaVuSans-6e"/>
     <use xlink:href="#DejaVuSans-65" x="63.378906"/>
     <use xlink:href="#DejaVuSans-69" x="124.902344"/>
     <use xlink:href="#DejaVuSans-67" x="152.685547"/>
     <use xlink:href="#DejaVuSans-68" x="216.162109"/>
     <use xlink:href="#DejaVuSans-62" x="279.541016"/>
     <use xlink:href="#DejaVuSans-6f" x="343.017578"/>
     <use xlink:href="#DejaVuSans-72" x="404.199219"/>
    </g>
   </g>
   <g id="text_15">
    <!-- 36.8% -->
    <g transform="translate(675.619706 286.350048) scale(0.1 -0.1)">
     <use xlink:href="#DejaVuSans-33"/>
     <use xlink:href="#DejaVuSans-36" x="63.623047"/>
     <use xlink:href="#DejaVuSans-2e" x="127.246094"/>
     <use xlink:href="#DejaVuSans-38" x="159.033203"/>
     <use xlink:href="#DejaVuSans-25" x="222.65625"/>
    </g>
   </g>
   <g id="text_16">
    <!-- cartesian: -->
    <g transform="translate(634.420313 37.579368) scale(0.12 -0.12)">
     <use xlink:href="#DejaVuSans-63"/>
     <use xlink:href="#DejaVuSans-61" x="54.980469"/>
     <use xlink:href="#DejaVuSans-72" x="116.259766"/>
     <use xlink:href="#DejaVuSans-74" x="157.373047"/>
     <use xlink:href="#DejaVuSans-65" x="196.582031"/>
     <use xlink:href="#DejaVuSans-73" x="258.105469"/>
     <use xlink:href="#DejaVuSans-69" x="310.205078"/>
     <use xlink:href="#DejaVuSans-61" x="337.988281"/>
     <use xlink:href="#DejaVuSans-6e" x="399.267578"/>
     <use xlink:href="#DejaVuSans-3a" x="462.646484"/>
    </g>
    <!-- 17412400 (element*iteration)s in 5.96 s -->
    <g transform="translate(543.181875 51.016743) scale(0.12 -0.12)">
     <use xlink:href="#DejaVuSans-31"/>
     <use xlink:href="#DejaVuSans-37" x="63.623047"/>
     <use xlink:href="#DejaVuSans-34" x="127.246094"/>
     <use xlink:href="#DejaVuSans-31" x="190.869141"/>
     <use xlink:href="#DejaVuSans-32" x="254.492188"/>
     <use xlink:href="#DejaVuSans-34" x="318.115234"/>
     <use xlink:href="#DejaVuSans-30" x="381.738281"/>
     <use xlink:href="#DejaVuSans-30" x="445.361328"/>
     <use xlink:href="#DejaVuSans-20" x="508.984375"/>
     <use xlink:href="#DejaVuSans-28" x="540.771484"/>
     <use xlink:href="#DejaVuSans-65" x="579.785156"/>
     <use xlink:href="#DejaVuSans-6c" x="641.308594"/>
     <use xlink:href="#DejaVuSans-65" x="669.091797"/>
     <use xlink:href="#DejaVuSans-6d" x="730.615234"/>
     <use xlink:href="#DejaVuSans-65" x="828.027344"/>
     <use xlink:href="#DejaVuSans-6e" x="889.550781"/>
     <use xlink:href="#DejaVuSans-74" x="952.929688"/>
     <use xlink:href="#DejaVuSans-2a" x="992.138672"/>
     <use xlink:href="#DejaVuSans-69" x="1042.138672"/>
     <use xlink:href="#DejaVuSans-74" x="1069.921875"/>
     <use xlink:href="#DejaVuSans-65" x="1109.130859"/>
     <use xlink:href="#DejaVuSans-72" x="1170.654297"/>
     <use xlink:href="#DejaVuSans-61" x="1211.767578"/>
     <use xlink:href="#DejaVuSans-74" x="1273.046875"/>
     <use xlink:href="#DejaVuSans-69" x="1312.255859"/>
     <use xlink:href="#DejaVuSans-6f" x="1340.039062"/>
     <use xlink:href="#DejaVuSans-6e" x="1401.220703"/>
     <use xlink:href="#DejaVuSans-29" x="1464.599609"/>
     <use xlink:href="#DejaVuSans-73" x="1503.613281"/>
     <use xlink:href="#DejaVuSans-20" x="1555.712891"/>
     <use xlink:href="#DejaVuSans-69" x="1587.5"/>
     <use xlink:href="#DejaVuSans-6e" x="1615.283203"/>
     <use xlink:href="#DejaVuSans-20" x="1678.662109"/>
     <use xlink:href="#DejaVuSans-35" x="1710.449219"/>
     <use xlink:href="#DejaVuSans-2e" x="1774.072266"/>
     <use xlink:href="#DejaVuSans-39" x="1805.859375"/>
     <use xlink:href="#DejaVuSans-36" x="1869.482422"/>
     <use xlink:href="#DejaVuSans-20" x="1933.105469"/>
     <use xlink:href="#DejaVuSans-73" x="1964.892578"/>
    </g>
    <!-- at 3.42e-07 per (element*iteration) -->
    <g transform="translate(557.86125 64.454118) scale(0.12 -0.12)">
     <use xlink:href="#DejaVuSans-61"/>
     <use xlink:href="#DejaVuSans-74" x="61.279297"/>
     <use xlink:href="#DejaVuSans-20" x="100.488281"/>
     <use xlink:href="#DejaVuSans-33" x="132.275391"/>
     <use xlink:href="#DejaVuSans-2e" x="195.898438"/>
     <use xlink:href="#DejaVuSans-34" x="227.685547"/>
     <use xlink:href="#DejaVuSans-32" x="291.308594"/>
     <use xlink:href="#DejaVuSans-65" x="354.931641"/>
     <use xlink:href="#DejaVuSans-2d" x="416.455078"/>
     <use xlink:href="#DejaVuSans-30" x="452.539062"/>
     <use xlink:href="#DejaVuSans-37" x="516.162109"/>
     <use xlink:href="#DejaVuSans-20" x="579.785156"/>
     <use xlink:href="#DejaVuSans-70" x="611.572266"/>
     <use xlink:href="#DejaVuSans-65" x="675.048828"/>
     <use xlink:href="#DejaVuSans-72" x="736.572266"/>
     <use xlink:href="#DejaVuSans-20" x="777.685547"/>
     <use xlink:href="#DejaVuSans-28" x="809.472656"/>
     <use xlink:href="#DejaVuSans-65" x="848.486328"/>
     <use xlink:href="#DejaVuSans-6c" x="910.009766"/>
     <use xlink:href="#DejaVuSans-65" x="937.792969"/>
     <use xlink:href="#DejaVuSans-6d" x="999.316406"/>
     <use xlink:href="#DejaVuSans-65" x="1096.728516"/>
     <use xlink:href="#DejaVuSans-6e" x="1158.251953"/>
     <use xlink:href="#DejaVuSans-74" x="1221.630859"/>
     <use xlink:href="#DejaVuSans-2a" x="1260.839844"/>
     <use xlink:href="#DejaVuSans-69" x="1310.839844"/>
     <use xlink:href="#DejaVuSans-74" x="1338.623047"/>
     <use xlink:href="#DejaVuSans-65" x="1377.832031"/>
     <use xlink:href="#DejaVuSans-72" x="1439.355469"/>
     <use xlink:href="#DejaVuSans-61" x="1480.46875"/>
     <use xlink:href="#DejaVuSans-74" x="1541.748047"/>
     <use xlink:href="#DejaVuSans-69" x="1580.957031"/>
     <use xlink:href="#DejaVuSans-6f" x="1608.740234"/>
     <use xlink:href="#DejaVuSans-6e" x="1669.921875"/>
     <use xlink:href="#DejaVuSans-29" x="1733.300781"/>
    </g>
   </g>
  </g>
  <g id="axes_3">
   <g id="patch_9">
    <path d="M 1136.858824 218.16 
C 1136.858824 204.081643 1134.342842 190.115921 1129.429753 176.922677 
C 1124.516663 163.729432 1117.285081 151.519773 1108.076679 140.870573 
L 1018.694118 218.16 
z
" style="fill: #1f77b4"/>
   </g>
   <g id="patch_10">
    <path d="M 1108.076679 140.870573 
C 1096.738902 127.758825 1082.653686 117.301017 1066.822768 110.240906 
C 1050.991849 103.180796 1033.799638 99.689818 1016.46884 100.016249 
C 999.138041 100.342681 982.089485 104.478595 966.53566 112.129848 
C 950.981836 119.781101 937.300423 130.761903 926.464442 144.291302 
C 915.62846 157.820701 907.90103 173.570173 903.831726 190.419621 
C 899.762421 207.269069 899.450053 224.809351 902.916837 241.793006 
C 906.383621 258.776661 913.545376 274.791289 923.892759 288.697935 
C 934.240143 302.60458 947.521899 314.065558 962.793431 322.265768 
L 1018.694118 218.16 
z
" style="fill: #ff7f0e"/>
   </g>
   <g id="patch_11">
    <path d="M 962.793431 322.265768 
C 980.567663 331.809829 1000.493474 336.644795 1020.665216 336.308265 
C 1040.836958 335.971734 1060.590399 330.474789 1078.036376 320.34314 
C 1095.482353 310.211491 1110.046391 295.778762 1120.335626 278.425259 
C 1130.624861 261.071756 1136.300481 241.368909 1136.819685 221.201042 
L 1018.694118 218.16 
z
" style="fill: #2ca02c"/>
   </g>
   <g id="matplotlib.axis_5"/>
   <g id="matplotlib.axis_6"/>
   <g id="text_17">
    <!-- compute time step -->
    <g transform="translate(1140.503316 175.558319) scale(0.1 -0.1)">
     <use xlink:href="#DejaVuSans-63"/>
     <use xlink:href="#DejaVuSans-6f" x="54.980469"/>
     <use xlink:href="#DejaVuSans-6d" x="116.162109"/>
     <use xlink:href="#DejaVuSans-70" x="213.574219"/>
     <use xlink:href="#DejaVuSans-75" x="277.050781"/>
     <use xlink:href="#DejaVuSans-74" x="340.429688"/>
     <use xlink:href="#DejaVuSans-65" x="379.638672"/>
     <use xlink:href="#DejaVuSans-20" x="441.162109"/>
     <use xlink:href="#DejaVuSans-74" x="472.949219"/>
     <use xlink:href="#DejaVuSans-69" x="512.158203"/>
     <use xlink:href="#DejaVuSans-6d" x="539.941406"/>
     <use xlink:href="#DejaVuSans-65" x="637.353516"/>
     <use xlink:href="#DejaVuSans-20" x="698.876953"/>
     <use xlink:href="#DejaVuSans-73" x="730.664062"/>
     <use xlink:href="#DejaVuSans-74" x="782.763672"/>
     <use xlink:href="#DejaVuSans-65" x="821.972656"/>
     <use xlink:href="#DejaVuSans-70" x="883.496094"/>
    </g>
   </g>
   <g id="text_18">
    <!-- 11.3% -->
    <g transform="translate(1069.251905 196.176981) scale(0.1 -0.1)">
     <use xlink:href="#DejaVuSans-31"/>
     <use xlink:href="#DejaVuSans-31" x="63.623047"/>
     <use xlink:href="#DejaVuSans-2e" x="127.246094"/>
     <use xlink:href="#DejaVuSans-33" x="159.033203"/>
     <use xlink:href="#DejaVuSans-25" x="222.65625"/>
    </g>
   </g>
   <g id="text_19">
    <!-- local -->
    <g transform="translate(893.939911 139.663807) scale(0.1 -0.1)">
     <use xlink:href="#DejaVuSans-6c"/>
     <use xlink:href="#DejaVuSans-6f" x="27.783203"/>
     <use xlink:href="#DejaVuSans-63" x="88.964844"/>
     <use xlink:href="#DejaVuSans-61" x="143.945312"/>
     <use xlink:href="#DejaVuSans-6c" x="205.224609"/>
    </g>
   </g>
   <g id="text_20">
    <!-- 55.8% -->
    <g transform="translate(947.472718 176.598156) scale(0.1 -0.1)">
     <use xlink:href="#DejaVuSans-35"/>
     <use xlink:href="#DejaVuSans-35" x="63.623047"/>
     <use xlink:href="#DejaVuSans-2e" x="127.246094"/>
     <use xlink:href="#DejaVuSans-38" x="159.033203"/>
     <use xlink:href="#DejaVuSans-25" x="222.65625"/>
    </g>
   </g>
   <g id="text_21">
    <!-- neighbor -->
    <g transform="translate(1083.970602 333.320829) scale(0.1 -0.1)">
     <use xlink:href="#DejaVuSans-6e"/>
     <use xlink:href="#DejaVuSans-65" x="63.378906"/>
     <use xlink:href="#DejaVuSans-69" x="124.902344"/>
     <use xlink:href="#DejaVuSans-67" x="152.685547"/>
     <use xlink:href="#DejaVuSans-68" x="216.162109"/>
     <use xlink:href="#DejaVuSans-62" x="279.541016"/>
     <use xlink:href="#DejaVuSans-6f" x="343.017578"/>
     <use xlink:href="#DejaVuSans-72" x="404.199219"/>
    </g>
   </g>
   <g id="text_22">
    <!-- 32.4% -->
    <g transform="translate(1038.415879 282.229259) scale(0.1 -0.1)">
     <use xlink:href="#DejaVuSans-33"/>
     <use xlink:href="#DejaVuSans-32" x="63.623047"/>
     <use xlink:href="#DejaVuSans-2e" x="127.246094"/>
     <use xlink:href="#DejaVuSans-34" x="159.033203"/>
     <use xlink:href="#DejaVuSans-25" x="222.65625"/>
    </g>
   </g>
   <g id="text_23">
    <!-- deformed: -->
    <g transform="translate(987.681618 37.579368) scale(0.12 -0.12)">
     <use xlink:href="#DejaVuSans-64"/>
     <use xlink:href="#DejaVuSans-65" x="63.476562"/>
     <use xlink:href="#DejaVuSans-66" x="125"/>
     <use xlink:href="#DejaVuSans-6f" x="160.205078"/>
     <use xlink:href="#DejaVuSans-72" x="221.386719"/>
     <use xlink:href="#DejaVuSans-6d" x="260.75"/>
     <use xlink:href="#DejaVuSans-65" x="358.162109"/>
     <use xlink:href="#DejaVuSans-64" x="419.685547"/>
     <use xlink:href="#DejaVuSans-3a" x="483.162109"/>
    </g>
    <!-- 9309600 (element*iteration)s in 4.19 s -->
    <g transform="translate(901.493493 51.016743) scale(0.12 -0.12)">
     <use xlink:href="#DejaVuSans-39"/>
     <use xlink:href="#DejaVuSans-33" x="63.623047"/>
     <use xlink:href="#DejaVuSans-30" x="127.246094"/>
     <use xlink:href="#DejaVuSans-39" x="190.869141"/>
     <use xlink:href="#DejaVuSans-36" x="254.492188"/>
     <use xlink:href="#DejaVuSans-30" x="318.115234"/>
     <use xlink:href="#DejaVuSans-30" x="381.738281"/>
     <use xlink:href="#DejaVuSans-20" x="445.361328"/>
     <use xlink:href="#DejaVuSans-28" x="477.148438"/>
     <use xlink:href="#DejaVuSans-65" x="516.162109"/>
     <use xlink:href="#DejaVuSans-6c" x="577.685547"/>
     <use xlink:href="#DejaVuSans-65" x="605.46875"/>
     <use xlink:href="#DejaVuSans-6d" x="666.992188"/>
     <use xlink:href="#DejaVuSans-65" x="764.404297"/>
     <use xlink:href="#DejaVuSans-6e" x="825.927734"/>
     <use xlink:href="#DejaVuSans-74" x="889.306641"/>
     <use xlink:href="#DejaVuSans-2a" x="928.515625"/>
     <use xlink:href="#DejaVuSans-69" x="978.515625"/>
     <use xlink:href="#DejaVuSans-74" x="1006.298828"/>
     <use xlink:href="#DejaVuSans-65" x="1045.507812"/>
     <use xlink:href="#DejaVuSans-72" x="1107.03125"/>
     <use xlink:href="#DejaVuSans-61" x="1148.144531"/>
     <use xlink:href="#DejaVuSans-74" x="1209.423828"/>
     <use xlink:href="#DejaVuSans-69" x="1248.632812"/>
     <use xlink:href="#DejaVuSans-6f" x="1276.416016"/>
     <use xlink:href="#DejaVuSans-6e" x="1337.597656"/>
     <use xlink:href="#DejaVuSans-29" x="1400.976562"/>
     <use xlink:href="#DejaVuSans-73" x="1439.990234"/>
     <use xlink:href="#DejaVuSans-20" x="1492.089844"/>
     <use xlink:href="#DejaVuSans-69" x="1523.876953"/>
     <use xlink:href="#DejaVuSans-6e" x="1551.660156"/>
     <use xlink:href="#DejaVuSans-20" x="1615.039062"/>
     <use xlink:href="#DejaVuSans-34" x="1646.826172"/>
     <use xlink:href="#DejaVuSans-2e" x="1710.449219"/>
     <use xlink:href="#DejaVuSans-31" x="1742.236328"/>
     <use xlink:href="#DejaVuSans-39" x="1805.859375"/>
     <use xlink:href="#DejaVuSans-20" x="1869.482422"/>
     <use xlink:href="#DejaVuSans-73" x="1901.269531"/>
    </g>
    <!-- at 4.5e-07 per (element*iteration) -->
    <g transform="translate(916.172868 64.454118) scale(0.12 -0.12)">
     <use xlink:href="#DejaVuSans-61"/>
     <use xlink:href="#DejaVuSans-74" x="61.279297"/>
     <use xlink:href="#DejaVuSans-20" x="100.488281"/>
     <use xlink:href="#DejaVuSans-34" x="132.275391"/>
     <use xlink:href="#DejaVuSans-2e" x="195.898438"/>
     <use xlink:href="#DejaVuSans-35" x="227.685547"/>
     <use xlink:href="#DejaVuSans-65" x="291.308594"/>
     <use xlink:href="#DejaVuSans-2d" x="352.832031"/>
     <use xlink:href="#DejaVuSans-30" x="388.916016"/>
     <use xlink:href="#DejaVuSans-37" x="452.539062"/>
     <use xlink:href="#DejaVuSans-20" x="516.162109"/>
     <use xlink:href="#DejaVuSans-70" x="547.949219"/>
     <use xlink:href="#DejaVuSans-65" x="611.425781"/>
     <use xlink:href="#DejaVuSans-72" x="672.949219"/>
     <use xlink:href="#DejaVuSans-20" x="714.0625"/>
     <use xlink:href="#DejaVuSans-28" x="745.849609"/>
     <use xlink:href="#DejaVuSans-65" x="784.863281"/>
     <use xlink:href="#DejaVuSans-6c" x="846.386719"/>
     <use xlink:href="#DejaVuSans-65" x="874.169922"/>
     <use xlink:href="#DejaVuSans-6d" x="935.693359"/>
     <use xlink:href="#DejaVuSans-65" x="1033.105469"/>
     <use xlink:href="#DejaVuSans-6e" x="1094.628906"/>
     <use xlink:href="#DejaVuSans-74" x="1158.007812"/>
     <use xlink:href="#DejaVuSans-2a" x="1197.216797"/>
     <use xlink:href="#DejaVuSans-69" x="1247.216797"/>
     <use xlink:href="#DejaVuSans-74" x="1275"/>
     <use xlink:href="#DejaVuSans-65" x="1314.208984"/>
     <use xlink:href="#DejaVuSans-72" x="1375.732422"/>
     <use xlink:href="#DejaVuSans-61" x="1416.845703"/>
     <use xlink:href="#DejaVuSans-74" x="1478.125"/>
     <use xlink:href="#DejaVuSans-69" x="1517.333984"/>
     <use xlink:href="#DejaVuSans-6f" x="1545.117188"/>
     <use xlink:href="#DejaVuSans-6e" x="1606.298828"/>
     <use xlink:href="#DejaVuSans-29" x="1669.677734"/>
    </g>
   </g>
  </g>
 </g>
</svg>
